<svg viewBox="0 0 24 16" xmlns="http://www.w3.org/2000/svg"><g fill="#111"><path d="m14.404 13.358c-.175 0-.315.141-.315.315s.141.315.315.315.315-.141.315-.315-.14-.315-.315-.315zm0 .564c-.138 0-.249-.11-.249-.248 0-.137.111-.248.249-.248.137 0 .247.111.247.248 0 .138-.11.248-.247.248z"/><path d="m14.533 13.601c0-.06-.047-.107-.106-.107h-.152v.361h.067v-.146h.048l.069.146h.074l-.071-.153c.041-.015.071-.056.071-.101zm-.106.039h-.085v-.078h.085c.021 0 .039.018.039.039s-.018.039-.039.039z"/></g><path d="m18.459 6.343c-.038.443-.44.858-.44.858l-.331-.163-.273-.733 1.184-2.474c.085.166.13.333.13.333.172-.339.196-.682.171-.959l.221-.463-.123-1.801c-.06-.242-.295-.482-.589-.575-.278-.089-.561-.038-.762.126l-4.032 3.118c-2.051.058-3.566.955-4.495 2.527l-4.467 3.593s.828 1.568 2.729 1.381l1.228-.221c.132.57.868 3.862 3.716 4.659-.482-.928-1.106-2.579-.494-3.933.815 2.618 2.011 2.545 2.011 2.545-1.156-1.641-.214-3.385-.214-3.385.471.806 1.151 1.164 1.706 1.164 0 0-.814-1.072-.385-2.476l2.533.093 1.137-.477.697-1.269-.547-.248c.171-.773-.311-1.22-.311-1.22z" fill="#111"/><path d="m18.544 7.63h.002c.023-.093.127-.568-.017-.893-.125.381-.349.59-.447.668l-.56-.271.003.003 1.146.741-.7.164h-.002l-.626-.232h.002l-.004-.002c.037-.189.096-.604-.037-.905-.129.391-.35.618-.47.719l-.604-.224-.508-1.326 1.844-2.98c.105.11.218.26.31.458.091-.293.004-.669-.056-.867l.224-.362.525-.38.098.493-.876 2.427.694-1.497c.03.024.094.074.237.37.073-.234-.038-.755-.038-.755l.203-.387-.096-1.507c-.08.128-.163.404-.198.514-.169-1.16-.619-.299-.73-.993l-.373.289c-.029.146-.076.44-.085.885 0 0-.262-.275-.345-.537-.032.163-.082.485-.093.97 0 0-.292-.309-.382-.6-.035.182-.088.533-.1 1.057 0 0-.314-.332-.415-.647-.04.201-.097.586-.111 1.159 0 0-.366-.388-.466-.745l-1.853 1.433c-.123.146-.702.735-.914 1.62 0 0-.001-.625.049-.817-.163.117-.775.597-1.109.944 0 0 .04-.63.299-.989-.547.399-1.381 1.245-1.381 1.245.69-1.193 1.243-1.548 1.52-1.779-1.394.441-2.604 1.419-3.134 3.071 0 0 .01-.33.061-.603l-3.954 3.127s.609 1.12 2.323 1.077l2.238-.355s-.223-.598-.201-1.02c.272.942.742 1.292.742 1.292s-1.256.165-1.256.166c.228.825.727 3.146 3 4.237-.529-1.021-.622-1.991-.533-2.803.144-.968.637-1.557.637-1.557.08 1.136.619 1.995.971 2.443.092.128.193.246.308.348 0 0-.458-.828-.123-2.313.029-.084.284-.796.545-1.057.338.955 1.163 1.323 1.163 1.323-.589-1.218-.077-2.386-.077-2.386s2.651.099 2.672.1l.996-.418.513-.932z" fill="#8c2633"/><path d="m14.947 5.482 2.792-3.169-2.936 3.007s-.73.124-1.788.959c.529 1.018-2.001 4.193-3.072 3.351.219.646 1.015.382 1.015.382-.106.247-1.146 2.03.221 4.148-2.228-3.605 2.983-7.141 3.268-7.254-.068-.488-.796-.629-.796-.629.344-.445 1.404-.821 1.296-.795zm-6.227 1.81c-.167.141-.611.499-1.11.899-.897.719-1.977 1.578-1.977 1.578.285.511.954.65 1.345.688.179.018.299.014.299.014l1.904-.337s-2.749-.626-.461-2.842z" fill="#111"/><path d="m16.89 6.162.414.589-.234-.583.234-.602z" fill="#8c2633"/><path d="m18.544 7.63h.002c.023-.094.127-.568-.017-.893-.125.381-.349.59-.447.668l-.56-.271.003.002 1.146.742-.7.164h-.002l-.626-.232h.002l-.004-.002c.037-.189.096-.604-.037-.904-.129.389-.35.617-.47.719l-.604-.225-.508-1.326 1.844-2.98c.105.11.218.26.31.458.091-.293.004-.669-.056-.867l.224-.362.525-.38.098.493-.876 2.427.694-1.497c.03.024.094.074.237.37.073-.234-.038-.755-.038-.755l.203-.387-.3-.748-.849.469-2.792 3.169c.107-.027-.952.349-1.298.794 0 0 .728.141.796.629-.284.113-5.495 3.649-3.268 7.254.194.303.438.613.744.927-.529-1.021-.622-1.991-.533-2.803.149-1.353.807-2.27.807-2.27s-.021 2.008.801 3.156c.092.128.193.246.308.348 0 0-.458-.828-.123-2.313.118-.528.336-1.139.711-1.824-.233 1.095.755 1.875.997 2.091-.589-1.218-.077-2.386-.077-2.386s2.651.099 2.672.1l.926-.907.07.489.513-.932zm-12.911 2.139c.285.511.954.65 1.345.688-.113-.111-.49-.506-.374-.796 0 0 .318.25.751.296 0 0-.359-.996.254-1.766-.896.719-1.976 1.578-1.976 1.578zm7.307-5.392c.041-.128-.214-.102-.214-.102.176-.115.355-.183.446-.212.063-.078.116-.141.143-.17-.125.01-.449.08-1.086.534.259-.049.54-.064.711-.05z" fill="#e2d6b5"/><path d="m16.175 5.008-.852 1.033.739 1.366-.501-1.366z" fill="#111"/></svg>