<svg viewBox="0 0 24 16" xmlns="http://www.w3.org/2000/svg"><g fill="#111"><path d="m18.147 14.559c.229 0 .413-.184.413-.411s-.185-.41-.413-.41c-.226 0-.41.183-.41.41s.184.411.41.411zm0-.734c.18 0 .324.144.324.322s-.145.323-.324.323c-.178 0-.322-.146-.322-.323 0-.178.145-.322.322-.322z"/><path d="m18.067 14.192h.063l.089.19h.099l-.094-.199c.054-.019.094-.07.094-.132 0-.076-.062-.139-.14-.139h-.199v.47h.089zm0-.191h.111c.027 0 .05.023.05.051 0 .029-.022.052-.05.052h-.111z"/></g><path d="m12 16c4.419 0 8-3.582 8-8 0-4.417-3.581-8-8-8-4.418 0-8 3.583-8 8 0 4.418 3.582 8 8 8z" fill="#fcb514"/><path d="m12 15.702c4.255 0 7.702-3.447 7.702-7.702 0-4.254-3.447-7.702-7.702-7.702-4.254 0-7.703 3.448-7.703 7.702 0 4.255 3.449 7.702 7.703 7.702z" fill="#111"/><path d="m16.935 3.681c-.191-.218-.396-.423-.615-.613l-1.334 1.332.624.605zm-4.5-2.223c-.144-.01-.289-.017-.435-.017s-.29.006-.435.016v2.108h.869v-2.107zm-4.114 2.249-.641-.64c-.219.19-.423.396-.614.614l1.255 1.254zm-.639 9.227.64-.64v-1.229l-1.254 1.255c.19.217.395.423.614.614zm1.192-5.368h-3.416c-.01.143-.017.288-.017.434s.007.291.017.435h3.416zm6.355.434.447.435h2.867c.01-.144.017-.289.017-.435s-.007-.291-.016-.434h-2.867zm-.243 3.601 1.333 1.333c.219-.19.424-.396.614-.614l-1.324-1.324zm-3.421 2.941c.145.01.289.017.435.017s.291-.007.435-.017v-2.106h-.869v2.106z" fill="#fcb514"/><path d="m9.211 10.359-.554.538v1.201h5.336l1.35-1.313v-2.205l-.596-.58.596-.581v-2.204l-1.35-1.314h-5.336v1.202l.554.538z" fill="#fcb514"/><path d="m11.208 12.436h-2.522l-.728.728c.918.72 2.032 1.199 3.25 1.347zm2.921 0h-1.336v2.074c1.217-.147 2.331-.627 3.25-1.347l-1.313-1.313zm-5.255-2.43v-1.214h-3.384c.147 1.218.627 2.332 1.347 3.25zm0-4.011-2.037-2.037c-.72.918-1.199 2.032-1.347 3.25h3.384zm5.855-1.845 1.313-1.313c-.919-.719-2.033-1.2-3.25-1.346v2.075h1.336zm.95 4.643v1.766l1.484 1.483c.72-.918 1.2-2.032 1.348-3.249zm-4.471-5.228v-2.074c-1.218.146-2.332.627-3.25 1.346l.729.729h2.521zm4.471 3.643h2.832c-.147-1.217-.628-2.332-1.348-3.25l-1.484 1.484z" fill="#fff"/><path d="m8.935 11.015v.807h4.946l1.185-1.154v-1.97l-.717-.698.716-.697v-1.97l-1.185-1.154h-4.945v.806l.554.538v4.954z" fill="#111"/><path d="m13.795 10.14v-1.035l-.543-.529h-2.579v2.091h2.578zm0-3.245v-1.034l-.543-.529h-2.579v2.091h2.578z" fill="#fcb514"/><path d="m13.518 5.979-.379-.369h-2.188v1.535h2.188l.379-.368zm0 3.244-.379-.368h-2.188v1.534h2.188l.379-.367z" fill="#111"/><path d="m13.181 6.636v-.515l-.179-.174h-1.715v.862h1.715zm0 3.243v-.515l-.179-.173h-1.715v.862h1.715z" fill="#fff"/></svg>