<svg viewBox="0 0 24 16" xmlns="http://www.w3.org/2000/svg"><g fill="#111"><path d="m10.642 14.334c-.231 0-.42.188-.42.421 0 .231.188.42.42.42s.421-.188.421-.42c-.001-.233-.189-.421-.421-.421zm0 .751c-.183 0-.33-.148-.33-.33 0-.183.147-.331.33-.331s.331.148.331.331c0 .182-.149.33-.331.33z"/><path d="m10.814 14.657c0-.079-.063-.143-.143-.143h-.201v.479h.09v-.193h.064l.091.194h.1l-.095-.203c.055-.02.094-.072.094-.134zm-.142.052h-.112v-.104h.112c.029 0 .053.023.053.053s-.024.051-.053.051z"/></g><path d="m20.176 6.788s.191-.55.191-1.412c0-2.599-2.066-4.551-4.932-4.551-2.194 0-3.767 1.481-4.683 1.481-.377 0-.824-.759-.824-.759s-.622.31-.505 1.047c0 0-.495-.292-1.297-.292-.979 0-1.759.624-1.987 1.17-1.149.442-.948.965-1.93 1.057 0 0 .04 1.035 1.136 1.265-.562.562-1.712.67-1.712.67 0 .354.799 1.264 2.382 1.002-.407.583-.072 1.147-1.161 1.668 0 0 .136.222.7.366 0 0 .022.494.161.993 0 0-.598-.148-1.045.074 0 0 .578.44.636 1.26.064.925.565 2.346 2.114 2.193-.234.178-.701.352-.701.352s.425.71 1.489.71c1.09 0 1.384-1.165 2.452-1.165 1.007 0 1.487.753 3.127.753 3.438 0 5.875-3.41 6.148-5.676h-4.236s-.447 1.55-1.508 1.55c-.688 0-1.392-.476-1.392-1.773 0-1.394 1.181-3.873 2.886-3.873.508 0 .676.397.676.858 0 .499-.195 1.032-.195 1.032zm-12.703 3.091c-.783 0-1.081-.606-1.081-.606.26-.058.414-.481.664-.481.271 0 .292.385 1.388.747-.101.046-.453.34-.971.34z" fill="#111"/><path d="m7.081 8.987c-.189 0-.262.295-.445.335 0 0 .246.383.824.383.301 0 .591-.164.591-.164-.76-.181-.811-.554-.97-.554z" fill="none"/><path d="m20.037 6.612s.143-.537.143-1.236c0-2.487-1.939-4.387-4.744-4.387-2.023 0-3.741 1.501-4.665 1.501-.394 0-.881-.675-.881-.675s-.537.361-.15 1.181c0 0-.635-.516-1.6-.516-1.414 0-1.863 1.132-1.863 1.132-1.075.375-.996.977-1.865 1.046 0 0 .096.95 1.27.987-.448.83-1.816.953-1.816.953s.388.726 1.587.726c.774 0 1.313-.299 1.313-.299-1.201.646-.427 1.543-1.612 2.127 0 0 .261.147.577.2 0 0 .022.746.264 1.458 0 0-.333-.273-.988-.158 0 0 .442.499.476 1.133.054 1.017.603 2.068 1.65 2.068.582 0 .901-.28.901-.28-.142.53-1.047.878-1.047.878s.48.449 1.193.449c1.113 0 1.272-1.178 2.462-1.178.911 0 1.698.786 3.146.786 3.66 0 5.764-3.852 5.934-5.328h-3.893s-.504 1.543-1.637 1.543c-1.021 0-1.574-.767-1.574-1.953 0-1.505 1.211-4.068 3.078-4.068.682 0 .873.557.873 1.01 0 .492-.154.9-.154.9zm-13.401 2.71c.184-.04.256-.335.445-.335.159 0 .21.373.97.554 0 0-.29.164-.591.164-.578 0-.824-.383-.824-.383z" fill="#f3bc52"/><g fill="#ce1126"><path d="m19.703 6.219s.092-.319.092-.843c0-2.207-1.867-4.01-4.359-4.01-1.93 0-3.453 1.506-4.686 1.506-.463 0-.762-.426-.762-.426s.035.958 1.283 1.47c-1.513-.071-1.91-1.081-3.08-1.081-1.158 0-1.597.915-1.597.915s.304-.294.756-.294c1.125 0 1.055 1.127 2.439 2.108-.795 0-1.102-.428-2.074-.428-1.938 0-1.514 1.279-3.031 1.635 0 0 .29.216.741.216 1.065 0 1.072-.522 1.834-.522.781 0 .665.562 1.592 1.217-.215.066-.854-.416-1.494-.416-.635 0-.978.443-1.08 1.032-.102.592-.414.742-.414.742.637.038.685-.644 1.144-.644.436 0 .711.596 1.271.709.451.091.985.215 1.187.543-.952.093-1.14.573-1.99.573-.962 0-1.369-.753-1.369-.753-.053 1.125.687 2.631 1.989 2.631.683 0 1.173-.241 1.667.025-1.594.454-.954 1.814-2.042 2.324 0 0 .183.089.46.089.921 0 1.09-1.233 2.462-1.233 1.016 0 1.783.794 3.141.794 2.985 0 5.157-3.057 5.411-4.523h-3.084s-.572 1.562-1.918 1.562c-1.311 0-1.992-.995-1.992-2.368 0-1.959 1.532-4.484 3.492-4.484.857 0 1.312.737 1.312 1.388 0 .336-.088.547-.088.547h2.787z"/><path d="m8.292 4.633s-.539-.729-1.394-.729c-1.076 0-1.403.887-2.049.956 0 0 .216.398.89.398 1.408.001 1.24-1.024 2.553-.625zm.716 7.624c-.636-.232-1.035.231-1.606.231-1.015 0-1.047-1.215-1.745-1.44 0 0 .163.351.163.566 0 .39.233 1.883 1.323 1.883.913 0 .887-.726 1.865-1.24z"/></g><path d="m6.392 9.272s.298.606 1.081.606c.519 0 .87-.294.971-.341-1.096-.361-1.118-.746-1.388-.746-.25 0-.405.424-.664.481zm1.659.269s-.29.164-.591.164c-.578 0-.824-.383-.824-.383.184-.04.256-.335.445-.335.159 0 .21.373.97.554z" fill="#111"/></svg>