<svg viewBox="0 0 24 16" xmlns="http://www.w3.org/2000/svg"><path d="m18.674 10.715c-.184 0-.332.15-.332.334 0 .186.148.332.332.332s.334-.146.334-.332c0-.184-.151-.334-.334-.334zm0 .597c-.145 0-.262-.117-.262-.264 0-.145.117-.262.262-.262s.262.117.262.262c0 .147-.118.264-.262.264z"/><path d="m18.811 10.973c0-.062-.051-.111-.111-.111h-.16v.381h.07v-.156h.051l.072.156h.078l-.076-.162c.042-.017.076-.058.076-.108zm-.112.043h-.092v-.084h.092c.02 0 .039.02.039.041 0 .023-.017.043-.039.043z"/><path d="m20.539 10.295c0-.629.617-2.965-3.869-6.498l.754-.168-.389-1.28-.748.499v-.775h-1.469c-.959-.691-1.42-1.573-2.928-1.573-.63 0-1.292.125-1.436.125-.111 0-.447-.071-1.018-.071-1.649 0-1.801 1.23-1.595 1.662-2.169 1.486-3.243 2.556-3.243 2.944 0 .149.088.343.088.623 0 .61-1.318 1.954-1.318 2.666 0 .663.846.709.846.709.048.195-.28.846.014 1.178-.408.443.068.664.068 1.016 0 .238-.166.312-.166.752 0 .502.235 1.105 1.473 1.105.489 0 .922-.076 1.266-.076.097 1.039.54 1.447.613 1.707.06.209.196.66.471.66.359 0 2.34-.648 3.844-1.561.753.279 1.712.188 2.06.188.381 0 .537.232.762.232.135 0 1.156-1.143 1.094-3.643.641 1.084 1.02 1.789 1.057 2.193.832-.297 1.531-2.262 1.229-3.514 0 0 1.047 1.699 2.635 1.449-.005.004-.095-.309-.095-.549z"/><path d="m10.561 11.848c.384-.59.165-1.605-.566-1.324-.422-.689-.9-1.623-.9-2.776 0-1.229.251-1.551.251-2.637 0-1.85-.856-2.216-1.405-2.588-1.308.885-3.043 2.098-3.043 2.743 0 .19.084.369.084.556 0 .668-1.3 1.965-1.3 2.593 0 .236.188.433.49.433s1.071-.109 1.36-.143c.289-.029.321-.17.321-.246 0-.188-.297-.449-.522-.449-.188 0-.205.11-.205.138 0 .123.177.158.177.158.225-.03.226.167.012.167-.176 0-.373-.13-.373-.354 0-.225.18-.281.314-.281.562 0 .885.508.792.832.697.346.677.853.562.853-.241 0-.074-.641-.981-.641-.254 0-.786.076-.912.09-.123.014-.161.032-.176.137-.016.102-.147.477-.147.707 0 .34.227.363.373.363.382 0 1.029-.092 1.029-.244 0-.1-.164-.07-.224-.07-.115 0-.167-.07-.167-.111 0-.102.165-.15.361-.15.325 0 .359.213.343.311-.036.219.316.166.316.631 0 .053-.004.186-.115.186-.112 0-.113-.139-.113-.217 0-.076-.127-.199-.236-.199-.115 0-.533.215-1.433.133-.355.447.064.479.064.93 0 .502-.154.471-.154.777 0 .611.67.77 1.339.77 1.384 0 2.946-.32 3.496-1.311-.188.875-.893 1.188-2.092 1.461.136.971.337 1.195.483 1.457.146.264.178.631.436.631.309 0 2.13-.656 3.355-1.395z" fill="#d18a00"/><path d="m8.831 9.928c-.266-.289-.665-1.129.128-1.848-.606-.163-1.44 1.459-.128 1.848zm-.949-5.6c.037.043.099.049.144.014.032-.028.054-.095.012-.144-.012-.015-.278-.33-.65-.635.044-.033.102-.076.164-.123.158.132.77.657 1.155 1.136.037.044.1.05.144.015s.049-.098.016-.142c-.377-.468-.944-.96-1.147-1.135.067-.048.125-.093.155-.114.413.3.647.588.65.591.035.044.099.051.142.016.044-.036.053-.099.018-.143-.013-.016-.277-.339-.753-.673-.036-.026-.083-.025-.12.002l-.648.485c-.06.044-.048.123-.002.162.405.315.717.684.72.688zm-.194.85c-.617 0-.82-.662-1.595-.662-.416 0-.63.163-.63.301s.161.259.161.259c.078.17-.462.356-.178.47l.349.136c-.113.198-.04.565-.018.657-.714.006-.645.228-.026.237.002.102-.071.375.04.375.117 0 .267-.137.324-.397.52-.064 1.106-.243 1.106-.243.104-.029.209-.124.008-.243l-.956-.563s-.082-.048-.028-.173l.073-.169c.021-.051.073-.058.098-.058.272 0 .681.407 1.221.407.234 0 .495-.137.495-.269s-.321-.065-.444-.065z"/><path d="m6.209 5.843c-.053.198-.016.425-.003.485.613-.037.864-.149.864-.149zm-.944 5.095c-.067.033.206.6.157.854.041.115.211.537.498.391.286-.146.044-.529-.025-.631-.236-.111-.563-.65-.63-.614zm2.527-4.023c-.237.063-.454.298-.883.413-.159.041-.437.001-.52.001.065.088.236.241.236.241s-.063.156-.076.263c.071-.042.279-.168.438-.209.43-.113.734-.014.971-.076.111-.031.315-.087.233-.402-.082-.313-.289-.262-.399-.231z" fill="#fff"/><path d="m10.31 10.615c-.262-.076-.573.199-.694.613-.12.414-.005.811.256.889.262.076.572-.197.693-.613.121-.414.005-.813-.255-.889zm-4.74.182c-.128-.178-.197-.018-.333.055-.136.068-.309.031-.236.238.077.225-.086.682-.015.82.058.111.182.154.283.104.091-.049.135-.129.153-.223.049-.254-.098-.605-.031-.641.066-.035.267.291.502.4.086.039.177.051.269.006.101-.053.138-.182.082-.293-.072-.138-.537-.273-.674-.466zm1.853-3.034c-.07.019-.177.079-.353.126-.175.047-.395.048-.43-.087-.004-.011-.004-.024-.001-.036.013-.109.172-.254.172-.254s-.21-.047-.275-.136c-.007-.01-.014-.021-.017-.032-.036-.134.158-.242.333-.288.174-.047.298-.047.369-.064.142-.038.261-.132.232-.244-.057-.209-.328-.158-.478-.119-.75.198-.916.506-.861.72.056.213.299.268.299.268s-.184.168-.128.381c.055.212.352.398 1.102.201.151-.04.413-.129.359-.337-.031-.115-.182-.136-.323-.099zm7.681-4.145c-2.188 1.638-3.365 4.08-3.723 4.916 0 0-.047.098.008.205l.693 1.35c.029.057.091.066.138.023l1.14-1.029c.078-.072.104-.186.104-.186.52-2.975 1.221-4.429 1.658-5.088-.015-.047-.022-.098-.022-.148.004-.015.004-.029.004-.043z" fill="#cf0a2c"/><path d="m16.92 2.746-.588.389.137.448.66-.146zm-1.613 1.366c-.043-.038-.08-.082-.109-.131-.701 1.124-1.596 3.936-1.596 6.343 0 2.463.754 3.771 1.025 3.771.209 0 .947-1.318.947-3.018 0-.465-.389-2.326-.389-5.821.001-.748.057-.948.122-1.144zm-3.753 4.495.621 1.342 1.13-1.047s.545-3.178 1.516-4.93c-2.563 2.486-3.267 4.635-3.267 4.635zm4.151-5.401c-.254 0-.457.206-.457.457 0 .253.205.457.457.457s.457-.204.457-.457-.205-.457-.457-.457z" fill="#00833e"/><path d="m13.92 4.041c.152 0 .133-.205-.01-.205-2.19 0-3.445.278-3.638.324-.122-1.073-.739-1.416-.739-2.11 0-.27.178-.324.324-.324.512 0 .896.6 1.606.6.66 0 .802-.468 1.179-.468.564 0 .316 1.502 1.316 1.502.316 0 .523-.126.523-.126.137-.075.008-.236-.107-.176 0 0-.201.103-.398.103-.846 0-.477-1.507-1.355-1.507-.421 0-.562.464-1.169.464-.679 0-.948-.607-1.621-.607-.382 0-.519.255-.519.512 0 .769.759 1.354.759 2.408 0 1.073-.366 2.016-.366 3.506 0 1.737 1.65 2.249 1.65 3.868 0 .916.352 1.48.744 1.48.216 0 .417-.127.513-.463.057.023.107.035.152.035.111 0 .521-.119.521-.602 0-1.381-2.372-2.094-2.372-4.257 0-1.04.167-2.704.422-2.704.134 0 .301.582.62.582.396 0 .258-1.149.434-1.149.142 0 .353.537.604.537.203 0 .27-.417.357-.744.033-.153-.182-.195-.213-.041-.055.243-.17.565-.17.565-.131-.129-.338-.523-.59-.523-.402 0-.343 1.147-.434 1.147-.168 0-.274-.596-.641-.596-.472 0-.611 1.642-.611 2.934 0 2.273 2.374 3.035 2.374 4.226 0 .299-.219.402-.307.402-.035 0-.07-.01-.107-.021.012-.082.018-.174.018-.275 0-.701-.386-.834-.543-.834-.156 0-.245.137-.245.363 0 .303.268.639.529.832-.04.189-.122.363-.298.363-.341 0-.535-.791-.535-1.264 0-1.709-1.649-2.203-1.649-3.91 0-1.454.367-2.386.367-3.352 0-.059-.001-.117-.004-.175.226-.05 1.639-.366 3.629-.32z" fill="#ffd100"/><path d="m12.165 11.719c-.031 0-.062.045-.062.162 0 .133.149.408.335.59.006-.094.005-.172.005-.213 0-.154-.087-.539-.278-.539z"/><path d="m15.023 4.582s-1.248 2.627-1.248 5.688c0 2.027.629 3.576.803 3.576.137 0 .777-.965.777-2.979 0-.812-.439-3.902-.332-6.285z" fill="#ffd100"/><path d="m14.428 8.438-.451.348c-.053.436-.088.887-.094 1.35l.496-.338c.004-.396.017-.849.049-1.36zm.334-2.056c-.088.743-.145 1.411-.182 2.002l.504.372c-.068-.741-.139-1.571-.17-2.364-.004-.113-.129-.219-.152-.01zm-.237 3.493.699.482c-.025-.387-.076-.891-.129-1.451l-.523-.389c-.031.514-.043.967-.047 1.358zm.084-3.488c.018-.137-.096-.115-.119-.035-.189.64-.377 1.421-.494 2.277l.439-.338c.038-.566.092-1.203.174-1.904zm-.617 5.355c.035.234.076.451.123.648.072.078.273.221.443-.289.289.479.471.416.527.375.039-.176.074-.369.102-.584l-.693-.461zm.576-.4.635.424c.029-.271.047-.57.047-.896 0-.1-.006-.223-.014-.365l-.711-.488c-.002.604.024 1.047.043 1.325zm-.191-1.404-.494.338c0 .484.035.936.092 1.342l.445-.277c-.024-.298-.045-.767-.043-1.403z" fill="#00833e"/><g fill="#cf0a2c"><path d="m12.396 7.164c-.303.499-.549 1.029-.657 1.274-.043.105-.061.164-.061.164l.533 1.15.982-.914c.012-.051.1-.54.252-1.201.221-.936.59-2.307.996-3.139-.896.968-1.619 1.987-2.045 2.666z"/><circle cx="15.705" cy="3.662" r=".292"/></g><path d="m13.725 5.563c-.025-.013-.059-.003-.07.023-.203.402-.379.784-.533 1.14l-.624.276c-.035.055-.067.107-.099.16l.66-.292c-.172.404-.311.771-.428 1.09l-.832.337c-.023.054-.042.099-.058.139l.842-.342c-.258.735-.364 1.187-.367 1.194-.006.027.011.059.04.062.029.006.057-.012.063-.041.002-.006.104-.439.352-1.15l.447.751.076-.072s0 0 .002-.002l-.479-.806c.104-.292.23-.625.383-.99l.346.595c.012-.05.021-.1.035-.151l-.328-.567c.168-.396.363-.828.596-1.284.013-.024.001-.054-.024-.07z" fill="#fff"/><path d="m16.037 2.316h-.963l.615.666h.348zm3.57 4.796c-1.049-1.686-2.881-3.103-3.301-3.417-.006.097-.1.257-.146.336-.057.061-.123.133-.156.152.072.291.184.707.332 1.19.221.536.467 1.197.676 1.886.238.57.515 1.138.828 1.641 1.299 2.088 2.596 1.801 2.596 1.801-.223-.355.431-1.56-.829-3.589z" fill="#ff671b"/><path d="m19.219 7.232c-.828-1.333-2.592-2.918-2.992-3.271-.023.044-.055.085-.09.122.252.716 1.234 3.404 2.139 4.858.883 1.422 1.746 1.352 1.746 1.352s.29-1.299-.803-3.061z" fill="#fff"/><g fill="#ff671b"><path d="m16.27 4.145c.141.392.418 1.147.762 1.982l.092-.506-.449-.722c-.016-.025-.008-.059.018-.074.027-.015.059-.008.072.018l.432.69.666.165c-.636-.681-1.279-1.274-1.593-1.553z"/><path d="m17.273 5.663.795 1.278 1.032.305c-.291-.459-.691-.948-1.107-1.405zm-.168.646c.193.464.406.947.625 1.4l.258-.696-.781-1.257zm2.827 3.875c.023-.201.059-.738-.16-1.479l-.684-.125.402.648c.018.023.008.057-.018.072-.023.016-.059.008-.074-.018l-.406-.656-.258.771c.536.638 1.012.761 1.198.787zm-1.78-3.107.859 1.381.725.132c-.115-.362-.289-.771-.553-1.208zm.502 2.224.266-.791-.859-1.383-.264.715c.188.382.379.739.568 1.043.098.156.194.295.289.416z"/></g><g fill="#d18a00"><path d="m6.121 5.038-.389.104c-.082.021-.086.068-.008.106l.295.142c.03.015.066.001.08-.029l.101-.232c.029-.069-.007-.11-.079-.091z"/><ellipse cx="10.092" cy="11.367" rx=".496" ry=".275" transform="matrix(.27939333 -.96017674 .96017674 .27939333 -3.641966 17.88124)"/></g><path d="m17.012 7.26c-.209-.688-.455-1.349-.676-1.886-.148-.484-.26-.9-.332-1.19-.051.028-.104.05-.162.063-.043.01-.09.016-.137.016-.043 0-.084-.005-.125-.013-.057-.012-.107-.032-.158-.058-.186 4.312.242 5.058.32 6.29 1.088 1.715 1.127 2.215 1.127 2.215s1.271-.891.979-3.535c-.041-.061-.082-.125-.121-.188-.178-.289-.346-.596-.5-.912" fill="#ffd100"/><path d="m17.371 8.787c-.037-.238-.086-.48-.145-.725-.062-.268-.137-.537-.215-.801-.209-.688-.457-1.349-.676-1.886-.217-.526-.404-.931-.494-1.126-.045.01-.09.016-.137.016-.043 0-.086-.005-.125-.013-.041.464-.189 2.448.094 4.234.404 2.562 1.377 3.49 1.377 3.49s.673-.968.321-3.189z" fill="#001970"/><path d="m16.123 7.156-.336-2.124c-.016-.096-.143-.084-.148.055-.027.645-.039 1.554.039 2.482zm.354 2.24-.166-1.05-.467.464c.074.391.162.738.256 1.049zm-.788-1.686c.023.254.057.508.096.758.012.071.021.141.033.208l.473-.465-.146-.921zm.209-2.695s.174 1.1.34 2.153l.75.422c-.279-1.003-.672-1.984-.953-2.636-.031-.083-.156-.065-.137.061zm.87 5.596c-.008-.035-.201-.824-.262-1.074l-.367.449c.133.412.275.752.41 1.021.07-.128.205-.37.219-.396zm-.508-3.302c.049.305.098.608.141.887l.84.479c-.053-.305-.125-.618-.209-.932zm.162 1.027c.08.496.143.892.166 1.041l.77.416c-.01-.293-.039-.617-.094-.977zm.838 2.726-.416-.357-.234.424c.174.322.326.535.422.652.062-.133.156-.369.228-.719zm.099-1.14-.742-.4c.057.229.219.898.26 1.066l.406.35c.049-.278.082-.616.076-1.016z" fill="#ffd100"/></svg>