<svg viewBox="0 0 24 16" xmlns="http://www.w3.org/2000/svg"><path d="m21.788 12.917-.403.733c-.953 1.466-2.455 2.107-3.884 2.162s-1.832-.55-2.18-.806c-.348-.257-.843-1.447-.843-1.447l.01-.324c-.272.11-.549.215-.833.313-1.265.438-2.519.708-3.702.822l-.294.747s-5.204.311-7.237.715l1.624-2.69c-.518-.411-.898-.915-1.102-1.506-.944-2.725 2.166-6.284 6.975-8.035l2.195-3.601.989 1.539c1.411.257 1.649 1.091 1.649 1.091 3.051-.097 5.485.903 6.138 2.791.413 1.192.049 2.544-.894 3.835 0 0 1.755 1.077 1.801 3.615z" fill="#236192"/><path d="m17.275 8.153-2.48-3.958c.122-.22.122-.645.122-.645 2.695.166 4.755 1.246 5.176 2.963.198.807.009 1.658-.487 2.477.001.001-.878-.592-2.331-.837z" fill="#fff"/><path d="m20.72 11.933c-.202.277-.413.534-.413.534-.061.077-.172.201-.278.31l-.087 1.046-.169-.026c-.046-.101-.25-.421-.333-.493-1.153.868-2.316.957-2.316.957-1.315.245-2.171-.275-2.171-.275.154.391.58.892.58.892.624.758 1.702.716 1.702.716 2.977-.058 4.141-2.319 4.141-2.319l-.198-.01c-.013-.452-.402-1.223-.458-1.332z" fill="#111"/><path d="m18.183 14.626c-.586.172-2.144.529-2.869-.285 0 0 .885.734 3.027.024z" fill="#a2aaad"/><path d="m18.667 14.799c-2.144.711-3.029-.024-3.029-.024.903 1.014 3.098.212 3.098.212.334-.103.673-.295.866-.414l.111-.291c-.282.253-1.046.517-1.046.517z" fill="#a2aaad"/><path d="m8.798 4.91c-1.82 1.167-3.136 2.638-3.373 5.02 0 0 .114-.106.195-.163.008.658.393 2.215 2.262 2.289s2.712-.495 3.335-.605 1.869-.257 2.895-.11 2.882.558 3.548 2.294c-.415.142-1.276.271-1.753.216-.476-.055-1.063-.275-1.136-.825-.037.623.458.934 1.008.989s1.19.006 2.052-.208c.184-.251.184-.615.193-.79.192.136.339.393.375.521.165-.257-.043-.825-.159-1.063.25.165.57.681.593.808l.133-.166c-.018-.311-.56-1.099-.674-1.246l-.474.297c-.575-.811-1.436-1.287-2.26-1.525s-1.822-.363-2.945-.291c.636-.295 2.102-.423 2.963-.222.861.202 1.636.517 2.44 1.477l.428-.293c.448.391 1.343 1.677 1.497 2.506l.079-.009s.038-1.629-.011-2.216c.134.11.308.286.349.375.152-.192.042-.705-.007-.912.269.281.892 1.216 1.02 2.208.103-.339.067-.706.055-.84s-.085-.476-.305-1.038-.513-1.209-1.246-1.82-1.587-1.16-3.164-1.246c-1.344-.073-3.371.684-3.909.904-.537.22-1.991.855-2.98 1.002s-1.496.206-1.823-.141l-.097.151c-.413-.132-.89-.816-.951-1.268-.059-.45-.108-.927.369-1.94.476-1.014 1.282-1.881 1.478-2.12z" fill="#fff"/><path d="m6.794 7.221c-.366.639-.879 2.044-.403 2.997s1.918 1.075 2.834.892 2.015-.599 2.48-.794c.464-.195 1.389-.623 2.388-.788s1.759-.137 2.556.238c.797.376 1.275.63 1.943 1.327l.271-.141.554.584.119-.883.336-.514c-.125-.327-.769-1.272-2.092-1.477.409.179 1.243.508 1.779 1.466l-.238.416-.03.431-.386-.416-.204.128c-.301-.383-.985-.969-1.962-1.25s-2.175-.355-3.298-.049c-.941.257-1.515.513-1.783.635-.269.122-.745.354-1.38.538-.635.183-1.27.317-2.04.208-.77-.11-1.441-.476-1.625-1.331s-.065-1.255.181-2.217z" fill="#236192"/><path d="m10.502 12.899-.22.586c.861.037 2.831-.348 4.022-.76-.486-.284-1.732-.541-3.802.174z" fill="#fff"/><path d="m7.375 8.258 4.748-7.736 4.819 7.595c-.302-.037-.828 0-1.084.043-.257.043-.831.165-.989.208-.159.043-.977.275-1.252.366s-1.057.366-1.301.458c-.245.091-.856.348-1.088.427s-.678.232-1.13.324-.879.177-1.325.134-.676-.173-.873-.354c-.147-.134-.402-.461-.476-.892-.062-.354-.054-.492-.049-.573z" fill="#a2aaad"/><path d="m12.128 1.031 4.475 7.071c-.269.002-.57.028-.745.058-.257.043-.831.165-.989.208-.159.043-.977.275-1.252.366s-1.057.366-1.301.458c-.245.091-.856.348-1.088.427s-.678.232-1.13.324-.879.177-1.325.134-.676-.173-.873-.354c-.147-.134-.402-.461-.476-.892-.006-.034-.012-.066-.016-.096zm-3.185 8.807c1.162.147 3.745-1.056 3.745-1.056 2.389-.922 3.181-.833 3.181-.833-.878-.333-3.11.58-3.11.58l-.601-1.929-.971 2.581c-1.687.617-2.244.657-2.244.657z" fill="#6f263d"/><path d="m11.528 9.025.958-.395-.367-1.165z" fill="#236192"/><path d="m4.728 12.041c-.485-.426-.819-.938-.963-1.523-.529-2.158 1.702-4.621 5.179-5.98 0 0-2.699 1.222-3.848 3.884-.539 1.25-.269 2.565.012 3.017z" fill="#fff"/><path d="m9.082 4.553.082-.128c-.641.275-1.512.888-1.796 1.117s-.834.696-1.218 1.154-.742 1.027-.971 1.531-.376.989-.412 1.832.495 1.658.495 1.658l-2.318 3.774s.696-.11.889-.137c.192-.027.953-.119 1.273-.156.321-.037 1.383-.137 1.796-.165.412-.027 1.594-.128 2.565-.165l.852-2.244c.376-.092.632-.229 1.264-.357s1.273-.174 2.272-.009 1.951.742 2.162.934c-.238-.412-.742-.797-1.548-1.063s-1.686-.266-2.162-.247c-.476.018-1.246.192-1.667.311s-.834.311-1.347.421-1.008.192-1.512.147-1.255-.101-1.942-.77-.852-1.466-.779-2.391c.073-.924.724-2.198 1.493-3.068s1.988-1.713 2.529-1.979z" fill="#a2aaad"/><path d="m10.019 12.697-.722 1.906c-3.381.201-5.794.524-5.794.524l1.941-3.171c.166.238.633.678 1.173.87s.889.238 1.392.211c.505-.028 1.134-.101 2.01-.34z" fill="#6f263d"/><path d="m14.595 3.805c.493-2.29-2.484-2.314-2.484-2.314l-.135.652-.458.141-.282 1.022-.369.3-.54.881c-.001-.001 3.399-2.537 4.268-.682z" fill="#fff"/><path d="m11.677 2.987.047-.188s1.75-.576 2.49.129c0 .001-.775-.598-2.537.059z" fill="#236192"/><path d="m11.108 3.597s2.484-1.6 3.423-.085c0 0-.517-1.362-3.606.364z" fill="#a2aaad"/><path d="m20.793 9.207c0-.191.155-.331.338-.331.181 0 .336.141.336.331 0 .193-.155.333-.336.333-.184 0-.338-.141-.338-.333zm.337.278c.15 0 .269-.118.269-.278 0-.157-.119-.276-.269-.276-.152 0-.271.119-.271.276 0 .16.119.278.271.278zm-.07-.086h-.058v-.383h.146c.091 0 .135.033.135.109 0 .069-.043.098-.099.105l.109.169h-.065l-.101-.166h-.067zm.069-.215c.049 0 .093-.004.093-.062 0-.047-.043-.056-.083-.056h-.079v.119h.069z" fill="#236192"/></svg>