<svg xmlns="http://www.w3.org/2000/svg" viewBox="0 0 24 16"><path d="M21.788 12.917l-0.403 0.733c-0.953 1.466-2.455 2.107-3.884 2.162s-1.832-0.55-2.18-0.806c-0.348-0.257-0.843-1.447-0.843-1.447l0.01-0.324c-0.272 0.11-0.549 0.215-0.833 0.313 -1.265 0.438-2.519 0.708-3.702 0.822l-0.294 0.747c0 0-5.204 0.311-7.237 0.715l1.624-2.69c-0.518-0.411-0.898-0.915-1.102-1.506C2 8.911 5.11 5.352 9.919 3.601L12.114 0l0.989 1.539c1.411 0.257 1.649 1.091 1.649 1.091 3.051-0.097 5.485 0.903 6.138 2.791 0.413 1.192 0.049 2.544-0.894 3.835 0 0 1.755 1.077 1.801 3.615L21.788 12.917z" fill="#236192"/><path d="M17.275 8.153l-2.48-3.958c0.122-0.22 0.122-0.645 0.122-0.645 2.695 0.166 4.755 1.246 5.176 2.963 0.198 0.807 0.009 1.658-0.487 2.477C19.607 8.991 18.728 8.398 17.275 8.153z" fill="#FFF"/><path d="M20.72 11.933c-0.202 0.277-0.413 0.534-0.413 0.534 -0.061 0.077-0.172 0.201-0.278 0.31l-0.087 1.046 -0.169-0.026c-0.046-0.101-0.25-0.421-0.333-0.493 -1.153 0.868-2.316 0.957-2.316 0.957 -1.315 0.245-2.171-0.275-2.171-0.275 0.154 0.391 0.58 0.892 0.58 0.892 0.624 0.758 1.702 0.716 1.702 0.716 2.977-0.058 4.141-2.319 4.141-2.319l-0.198-0.01C21.165 12.813 20.776 12.042 20.72 11.933z" fill="#111"/><path d="M18.183 14.626c-0.586 0.172-2.144 0.529-2.869-0.285 0 0 0.885 0.734 3.027 0.024L18.183 14.626z" fill="#A2AAAD"/><path d="M18.667 14.799c-2.144 0.711-3.029-0.024-3.029-0.024 0.903 1.014 3.098 0.212 3.098 0.212 0.334-0.103 0.673-0.295 0.866-0.414l0.111-0.291C19.431 14.535 18.667 14.799 18.667 14.799z" fill="#A2AAAD"/><path d="M8.798 4.91C6.978 6.077 5.662 7.548 5.425 9.93c0 0 0.114-0.106 0.195-0.163 0.008 0.658 0.393 2.215 2.262 2.289s2.712-0.495 3.335-0.605c0.623-0.11 1.869-0.257 2.895-0.11 1.026 0.147 2.882 0.558 3.548 2.294 -0.415 0.142-1.276 0.271-1.753 0.216 -0.476-0.055-1.063-0.275-1.136-0.825 -0.037 0.623 0.458 0.934 1.008 0.989s1.19 0.006 2.052-0.208c0.184-0.251 0.184-0.615 0.193-0.79 0.192 0.136 0.339 0.393 0.375 0.521 0.165-0.257-0.043-0.825-0.159-1.063 0.25 0.165 0.57 0.681 0.593 0.808l0.133-0.166c-0.018-0.311-0.56-1.099-0.674-1.246l-0.474 0.297c-0.575-0.811-1.436-1.287-2.26-1.525 -0.824-0.238-1.822-0.363-2.945-0.291 0.636-0.295 2.102-0.423 2.963-0.222 0.861 0.202 1.636 0.517 2.44 1.477l0.428-0.293c0.448 0.391 1.343 1.677 1.497 2.506l0.079-0.009c0 0 0.038-1.629-0.011-2.216 0.134 0.11 0.308 0.286 0.349 0.375 0.152-0.192 0.042-0.705-0.007-0.912 0.269 0.281 0.892 1.216 1.02 2.208 0.103-0.339 0.067-0.706 0.055-0.84 -0.012-0.134-0.085-0.476-0.305-1.038 -0.22-0.562-0.513-1.209-1.246-1.82 -0.733-0.611-1.587-1.16-3.164-1.246 -1.344-0.073-3.371 0.684-3.909 0.904 -0.537 0.22-1.991 0.855-2.98 1.002s-1.496 0.206-1.823-0.141l-0.097 0.151c-0.413-0.132-0.89-0.816-0.951-1.268C6.892 8.52 6.843 8.043 7.32 7.03 7.796 6.016 8.602 5.149 8.798 4.91z" fill="#FFF"/><path d="M6.794 7.221C6.428 7.86 5.915 9.265 6.391 10.218c0.476 0.953 1.918 1.075 2.834 0.892 0.916-0.183 2.015-0.599 2.48-0.794 0.464-0.195 1.389-0.623 2.388-0.788 0.999-0.165 1.759-0.137 2.556 0.238 0.797 0.376 1.275 0.63 1.943 1.327l0.271-0.141 0.554 0.584 0.119-0.883 0.336-0.514c-0.125-0.327-0.769-1.272-2.092-1.477 0.409 0.179 1.243 0.508 1.779 1.466l-0.238 0.416 -0.03 0.431 -0.386-0.416 -0.204 0.128c-0.301-0.383-0.985-0.969-1.962-1.25 -0.977-0.281-2.175-0.355-3.298-0.049 -0.941 0.257-1.515 0.513-1.783 0.635 -0.269 0.122-0.745 0.354-1.38 0.538 -0.635 0.183-1.27 0.317-2.04 0.208 -0.77-0.11-1.441-0.476-1.625-1.331S6.548 8.183 6.794 7.221z" fill="#236192"/><path d="M10.502 12.899l-0.22 0.586c0.861 0.037 2.831-0.348 4.022-0.76C13.818 12.441 12.572 12.184 10.502 12.899z" fill="#FFF"/><path d="M7.375 8.258l4.748-7.736 4.819 7.595c-0.302-0.037-0.828 0-1.084 0.043 -0.257 0.043-0.831 0.165-0.989 0.208 -0.159 0.043-0.977 0.275-1.252 0.366s-1.057 0.366-1.301 0.458C12.071 9.283 11.46 9.54 11.228 9.619c-0.232 0.079-0.678 0.232-1.13 0.324 -0.452 0.092-0.879 0.177-1.325 0.134 -0.446-0.043-0.676-0.173-0.873-0.354 -0.147-0.134-0.402-0.461-0.476-0.892C7.362 8.477 7.37 8.339 7.375 8.258z" fill="#A2AAAD"/><path d="M12.128 1.031l4.475 7.071c-0.269 0.002-0.57 0.028-0.745 0.058 -0.257 0.043-0.831 0.165-0.989 0.208 -0.159 0.043-0.977 0.275-1.252 0.366s-1.057 0.366-1.301 0.458C12.071 9.283 11.46 9.54 11.228 9.619c-0.232 0.079-0.678 0.232-1.13 0.324 -0.452 0.092-0.879 0.177-1.325 0.134 -0.446-0.043-0.676-0.173-0.873-0.354 -0.147-0.134-0.402-0.461-0.476-0.892C7.418 8.797 7.412 8.765 7.408 8.735L12.128 1.031zM8.943 9.838c1.162 0.147 3.745-1.056 3.745-1.056 2.389-0.922 3.181-0.833 3.181-0.833 -0.878-0.333-3.11 0.58-3.11 0.58l-0.601-1.929L11.187 9.181C9.5 9.798 8.943 9.838 8.943 9.838z" fill="#6F263D"/><path fill="#236192" d="M11.528 9.025L12.486 8.63 12.119 7.465z"/><path d="M4.728 12.041c-0.485-0.426-0.819-0.938-0.963-1.523C3.236 8.36 5.467 5.897 8.944 4.538c0 0-2.699 1.222-3.848 3.884 -0.539 1.25-0.269 2.565 0.012 3.017L4.728 12.041z" fill="#FFF"/><path d="M9.082 4.553l0.082-0.128C8.523 4.7 7.652 5.313 7.368 5.542c-0.284 0.229-0.834 0.696-1.218 1.154S5.408 7.723 5.179 8.227c-0.229 0.504-0.376 0.989-0.412 1.832s0.495 1.658 0.495 1.658l-2.318 3.774c0 0 0.696-0.11 0.889-0.137 0.192-0.027 0.953-0.119 1.273-0.156 0.321-0.037 1.383-0.137 1.796-0.165 0.412-0.027 1.594-0.128 2.565-0.165l0.852-2.244c0.376-0.092 0.632-0.229 1.264-0.357s1.273-0.174 2.272-0.009c0.999 0.165 1.951 0.742 2.162 0.934 -0.238-0.412-0.742-0.797-1.548-1.063 -0.806-0.266-1.686-0.266-2.162-0.247 -0.476 0.018-1.246 0.192-1.667 0.311s-0.834 0.311-1.347 0.421c-0.513 0.11-1.008 0.192-1.512 0.147s-1.255-0.101-1.942-0.77 -0.852-1.466-0.779-2.391C5.133 8.676 5.784 7.402 6.553 6.532S8.541 4.819 9.082 4.553z" fill="#A2AAAD"/><path d="M10.019 12.697L9.297 14.603c-3.381 0.201-5.794 0.524-5.794 0.524l1.941-3.171c0.166 0.238 0.633 0.678 1.173 0.87s0.889 0.238 1.392 0.211C8.514 13.009 9.143 12.936 10.019 12.697z" fill="#6F263D"/><path d="M14.595 3.805c0.493-2.29-2.484-2.314-2.484-2.314l-0.135 0.652 -0.458 0.141 -0.282 1.022L10.867 3.606l-0.54 0.881C10.326 4.486 13.726 1.95 14.595 3.805z" fill="#FFF"/><path d="M11.677 2.987l0.047-0.188c0 0 1.75-0.576 2.49 0.129C14.214 2.929 13.439 2.33 11.677 2.987z" fill="#236192"/><path d="M11.108 3.597c0 0 2.484-1.6 3.423-0.085 0 0-0.517-1.362-3.606 0.364L11.108 3.597z" fill="#A2AAAD"/><path d="M20.793 9.207c0-0.191 0.155-0.331 0.338-0.331 0.181 0 0.336 0.141 0.336 0.331 0 0.193-0.155 0.333-0.336 0.333C20.947 9.54 20.793 9.399 20.793 9.207zM21.13 9.485c0.15 0 0.269-0.118 0.269-0.278 0-0.157-0.119-0.276-0.269-0.276 -0.152 0-0.271 0.119-0.271 0.276C20.859 9.367 20.978 9.485 21.13 9.485zM21.06 9.399h-0.058V9.016h0.146c0.091 0 0.135 0.033 0.135 0.109 0 0.069-0.043 0.098-0.099 0.105l0.109 0.169h-0.065l-0.101-0.166h-0.067V9.399zM21.129 9.184c0.049 0 0.093-0.004 0.093-0.062 0-0.047-0.043-0.056-0.083-0.056h-0.079v0.119H21.129z" fill="#236192"/></svg>