<svg viewBox="0 0 24 16" xmlns="http://www.w3.org/2000/svg"><g fill="#111"><path d="m16.445 14.702c0-.199-.16-.359-.358-.359-.199 0-.359.161-.359.359s.16.359.359.359c.198-.001.358-.161.358-.359zm-.64 0c0-.156.126-.282.282-.282.155 0 .281.126.281.282 0 .155-.126.282-.281.282-.156 0-.282-.127-.282-.282z"/><path d="m16.234 14.906-.081-.173c.047-.017.081-.062.081-.115 0-.067-.055-.122-.121-.122h-.173v.41h.077v-.166h.055l.078.166zm-.121-.243h-.096v-.089h.096c.025 0 .045.02.045.045-.001.024-.02.044-.045.044z"/></g><path d="m5.924 12.45h-1.596l2.174-3.64-3.502-2.821h5.188l.556-.932h1.645l3.054-5.057.513 5.083c.86.087 1.562.397 2.048.906h6.469l-6.147 3.292c-.068.146-.146.296-.231.441-.406.701-.9 1.246-1.502 1.664l.432 4.288-4.025-3.242c-.192.01-.39.017-.589.019l-6.631 3.549z" fill="#006847"/><path d="m6.518 12.113h-1.598l2.02-3.381-2.988-2.408h4.428l.556-.931h1.643l2.632-4.358.439 4.362c.971.042 1.729.36 2.205.927h5.28l-5.069 2.716c-.076.17-.164.344-.265.515-.416.717-.931 1.264-1.565 1.666l.373 3.689-3.5-2.819c-.254.015-.517.022-.785.022l-5.625 3.013z" fill="#111"/><path d="m18.459 6.995h-2.956c-.315-.582-1.036-.931-2.071-.931h-.389l-.299-2.959-1.787 2.959h-1.64l-.557.931h-2.906l1.961 1.581-1.712 2.865h2.808l-1.436.389-.937 1.55 3.618-1.938h.15c.365 0 .702-.015 1.017-.039l2.456 1.978-.215-2.062c-.664.07-1.307.015-1.604.007 1.728-.276 2.636-1.03 3.263-2.107.428-.732.547-1.389.405-1.91.245.3.372.607.419.992z" fill="#fff"/><path d="m13.564 11.316.215 2.062-1.071-2.025c.263.002.558-.003.856-.037m-.82-8.212-.701 2.959h1zm-4.44 4.654-2.45-.763 1.961 1.581zm1.499-.253h2.432c.701 0 1.119.13 1.224.489l1.016-.496c-.276-.644-1.067-.715-1.562-.715h-2.915l-.006-.002-2.322 3.893 1.571-.768 1.171-1.912zm5.7-.51-1.028.504c.067.175.161.593-.094 1.215-.292.708-1.16 1.96-3.531 1.96h-3.18l-1.567.768h2.808l-.361.098-2.012 1.839 3.618-1.938h.15c.365 0 .702-.016 1.017-.039l.637-.078c1.728-.276 2.636-1.03 3.263-2.107.428-.732.547-1.389.405-1.91.001 0-.05-.166-.125-.312m.351.651c.104.199.166.411.193.653l2.411-1.305z" fill="#8f8f8c"/><path d="m12.234 7.505h-2.431l.609.49-1.171 1.911h1.611c.537 0 1.157-.021 1.673-.323.65-.382 1.037-1.056.947-1.528-.076-.406-.497-.55-1.238-.55z" fill="#111"/></svg>