<svg viewBox="0 0 24 16" xmlns="http://www.w3.org/2000/svg"><g fill="#ce1126"><path d="m12.444 12.767c-.221 0-.4.18-.4.4 0 .222.18.4.4.4.222 0 .4-.179.4-.4.001-.221-.178-.4-.4-.4zm0 .714c-.174 0-.314-.141-.314-.314s.141-.314.314-.314.314.141.314.314-.14.314-.314.314z"/><path d="m12.609 13.074c0-.075-.062-.136-.136-.136h-.193v.457h.086v-.185h.062l.087.186h.095l-.091-.193c.052-.019.09-.069.09-.129zm-.135.05h-.107v-.1h.107c.027 0 .05.022.05.05s-.023.05-.05.05z"/></g><path d="m20.896 4.923c.896-.766 1.765-2.001 1.765-3.416 0-.205-.25-.263-.352-.124-.923 1.261-1.794 1.74-2.32 1.922.875-.662 1.733-1.744 1.953-2.971.023-.224-.22-.289-.332-.172-1.071 1.071-2.547 2.214-6.511 2.214-.958 0-2.053-.028-2.761-.028-3.218 0-4.401 1.991-4.668 2.543-.265-.037-.532-.061-.799-.061-3.051 0-5.532 2.482-5.532 5.533 0 3.05 2.481 5.531 5.532 5.531 2.245 0 4.229-1.325 5.097-3.385.061.006.125.017.18.017.701 0 .848-.205.848-.378 0-.093-.092-.204-.137-.27 1.028-.005 1.33-.054 1.775-.207.072-.022.115-.09.115-.161 0-.152-.312-.403-.537-.599 1.438-.024 2.497-.281 2.497-.617 0-.065-.006-.148-.388-.449.812-.221 2.237-.768 2.237-1.125 0-.137-.119-.222-.259-.32 1.264-.476 2.325-1.314 2.325-1.615 0-.243-.356-.263-.534-.277.63-.403 1.506-1.09 1.506-1.387.001-.306-.481-.185-.7-.198z" fill="#ce1126"/><path d="m20.526 5.001c1.007-.754 1.964-2.057 1.964-3.495 0-.03-.029-.035-.042-.022-1.557 2.125-2.972 2.104-2.972 2.104-.062 0-.076-.087-.026-.121 1.004-.591 2.081-1.81 2.323-3.163.004-.018-.023-.04-.042-.021-1.144 1.143-2.714 2.265-6.632 2.265-1.255 0-1.909-.028-2.761-.028-3.396 0-4.441 2.258-4.565 2.557-.293-.05-.594-.076-.902-.076-2.961 0-5.361 2.4-5.361 5.362 0 2.961 2.4 5.361 5.361 5.361 2.267 0 4.205-1.408 4.989-3.396.101.018.197.027.287.027.546 0 .678-.122.678-.207 0-.058-.35-.439-.176-.439 1.211 0 1.483-.045 1.928-.198-.213-.334-.985-.767-.588-.767 1.92 0 2.55-.371 2.55-.449 0-.092-.612-.532-.612-.532.884-.146 2.461-.853 2.461-1.042 0-.109-.45-.293-.377-.398 1.401-.466 2.443-1.372 2.443-1.537 0-.132-.822-.117-.822-.117v-.087c.712-.37 1.794-1.263 1.794-1.459 0-.126-1.016.084-.9-.122z" fill="#fff"/><g fill="#ce1126"><path d="m8.188 9.35c-.174-.225-.404-.404-.67-.518l-.043.043.09.612c.027.022.054.045.08.07l.448.003c.03-.065.062-.136.095-.21zm-1.942-.467.495.371c.035-.004.071-.007.107-.007l.441-.435-.009-.06c-.131-.033-.268-.051-.409-.051-.222 0-.432.043-.625.121zm1.074.144-.242.239c.103.019.2.053.291.098zm.181 2.258c-.085.058-.177.104-.275.137l.272.203zm-2.216 1.531.79-.777c-.309-.146-.571-.376-.757-.66l-.663.889c.183.211.395.396.63.548zm2.508-3.083c.043.062.08.131.11.202.025-.047.062-.115.104-.2zm-1.485 2.399c-.019-.007-.038-.013-.058-.02l-.811.798c.312.176.662.297 1.032.347zm1.479-1.082-.041.006c-.021.028-.045.055-.069.08l-.006.619.049.036c.149-.089.284-.201.398-.332-.164-.149-.283-.291-.331-.409zm-1.546-1.61c.084-.058.177-.104.275-.137l-.272-.202zm-1.018 1.776c-.01-.019-.019-.036-.027-.055l-1.138-.01c.1.358.266.688.485.976zm2.273.626-.496-.37c-.035.005-.07.007-.106.008l-.44.434.008.061c.132.032.269.051.41.051.221 0 .432-.044.624-.122zm-1.074-.143.242-.239c-.103-.019-.201-.052-.292-.098zm1.247.34-.01 1.138c.358-.1.688-.267.977-.485l-.913-.68c-.018.009-.035.018-.054.027zm-1.721-1.046c-.058-.085-.104-.178-.137-.276l-.203.272zm.15.176-.619-.005-.035.048c.18.302.453.543.78.682l.044-.043-.09-.612c-.028-.023-.055-.046-.08-.07zm-.033-1.579.005-.619-.048-.037c-.302.181-.543.455-.681.782l.042.043.612-.089c.023-.027.046-.055.07-.08zm-.53.323.238.243c.02-.104.053-.201.098-.292zm-.274.04c-.033.132-.051.269-.051.41 0 .221.043.432.122.624l.06.001.37-.496c-.004-.035-.006-.07-.007-.106l-.435-.442zm1.231 2.227.159 1.097c.072.005.146.008.22.008.21 0 .415-.022.613-.064l.01-1.108c-.195.069-.404.107-.623.107-.13-.001-.257-.015-.379-.04zm2.002-4.021c0-.076-.002-.151-.005-.228-.01-.008-.021-.015-.032-.022l-.79.777c.231.109.437.268.604.459.122-.321.223-.679.223-.986zm-2.475.556c.018-.01.036-.02.054-.027l.01-1.139c-.358.1-.688.266-.977.485zm1.231-.17-.159-1.096c-.073-.005-.146-.008-.22-.008-.211 0-.416.022-.614.064l-.009 1.108c.194-.068.404-.107.623-.107.13 0 .257.014.379.039zm1.92 3.62c-.338-.174-.655-.38-.903-.579-.111.126-.238.237-.38.33l.889.662c.144-.124.276-.263.394-.413zm-.867-4.35c-.314-.176-.662-.296-1.033-.347l.164 1.125c.02.006.039.012.058.02zm-4.354 2.548c0 .21.022.415.064.613l1.108.009c-.069-.194-.106-.404-.106-.622 0-.131.013-.257.038-.38l-1.096.16c-.005.073-.008.146-.008.22zm.028-.399 1.126-.164c.006-.019.013-.038.019-.058l-.798-.812c-.177.314-.297.663-.347 1.034zm.44-1.187.777.79c.146-.31.377-.571.66-.757l-.888-.663c-.211.183-.397.394-.549.63z"/><circle cx="6.871" cy="10.363" r=".603"/><path d="m6.871 6.748c-1.996 0-3.614 1.619-3.614 3.615s1.618 3.614 3.614 3.614c1.219 0 2.296-.604 2.951-1.527-.138-.048-.277-.105-.415-.169-.581.767-1.501 1.262-2.536 1.262-1.756 0-3.18-1.424-3.18-3.18 0-1.758 1.424-3.181 3.18-3.181.587 0 1.136.159 1.607.436-.004-.157-.005-.319.008-.49-.486-.243-1.035-.38-1.615-.38z"/><path d="m10.888 12.591c-.233.056-.535.021-.858-.073-.688 1.008-1.846 1.669-3.158 1.669-2.112 0-3.824-1.712-3.824-3.823 0-.068.002-.135.006-.202-.118.18-.084.476-.294.476-.166 0-.074-.227-.196-.227-.075 0-.086.104-.18.104-.012 0-.021-.004-.028-.004-.021 0-.029.045-.068.045-.049 0-.082-.059-.122-.059-.044 0-.058.084-.115.084-.06 0-.117-.1-.141-.146.038 2.709 2.245 4.893 4.963 4.893 2.079 0 3.86-1.279 4.599-3.094-.557-.168-1.089-.452-1.089-.452.032.331.505.809.505.809zm-8.489-4.127c.115.094.023.26.105.375.63-1.805 2.347-3.1 4.366-3.1.659 0 1.287.139 1.854.388.042-.1.09-.203.145-.309-.611-.27-1.288-.42-1.999-.42-2.085 0-3.87 1.287-4.604 3.11.041.027.086-.084.133-.044zm10.533-5.101h2.731c3.489 0 5.017-1.248 5.618-2.353.034-.067-.008-.081-.074-.021-.76.681-1.893 1.871-6.521 1.871h-1.953c-3.071 0-4.228 1.385-4.529 2.309.153.039.305.085.452.138.546-.984 1.587-1.944 4.276-1.944z"/><path d="m12.868 4.067c-2.733 0-4.308 1.877-4.127 3.67.134 1.337-.613 2.422-.613 2.422s1.043-.472 1.043-2.375c0-1.803 1.794-3.116 3.306-3.116 1.462 0 3.159.009 4 .009 4.461 0 5.541-2.061 5.694-2.463.027-.06-.012-.048-.027-.02-.931 1.256-2.235 1.974-5.773 1.974-2.274 0-2.994-.101-3.503-.101z"/><path d="m13.887 5.629c-.738 0-.812.206-.812.206-.024.029-.012.096-.063.116-.169.065-.355-.075-.5.113-.088.113-.301-.026-.438.054-.031.018 0 .097.024.107.064.028.171.02.211.053.043.035.038.084.078.113.049.036.14.052.181.108.031.043.042.129.088.132 1.108.063 2.245.063 3.297-.344.118-.188-1.032-.658-2.066-.658zm-4.354 2.443c.014.107-.013.272.009.274.771.084 1.554-.053 2.267-.381.199-.084-.774-.591-1.585-.591-.263 0-.441.112-.441.112-.047.026-.083.133-.136.211-.039.059.036.15.005.188-.058.071-.13.114-.119.187zm1.055-1.877c-.038.006-.066.066-.094.106-.07.099-.291.077-.29.189.003.205-.225.242-.261.389-.029.116-.091.203-.1.327.818.004 1.66-.048 2.385-.465.191-.086-.998-.639-1.64-.546zm2.603-.701c-.059-.237-.347-.282-.543-.396-.078-.046-.17-.025-.26.014-.194.084-.445-.059-.646.086-.057.042-.087.119-.161.138-.093.024-.185.028-.279.04-.034.005-.099.028-.094.067.019.167-.137.202-.26.245-.12.042-.078.201-.082.318.798.009 1.626-.104 2.325-.512zm-4.062 3.936c.204.106 1.195-.036 1.712-.357-.53-.451-1.38-.614-1.38-.614-.118.32-.24.641-.332.971z"/><path d="m8.979 9.617c-.097.052-.208.198-.12.257.158.107.419.346 1.622.346 1.172 0 1.618-.362 1.839-.587 0-.146-1.03-.442-1.169-.361-.042.021-.047.063-.053.082-.047.019-.189.021-.224.046-.08.059-.064.154-.086.159-.183.046-.409-.069-.582.01-.047.021-.043.15-.104.155-.124.009-.262-.066-.382-.028-.021.008-.085.017-.128.044-.067-.034-.101-.042-.187-.063-.063-.015-.125.028-.202.015-.073-.012-.154-.111-.224-.075zm4.752-.846c.217-.113.478-.123.636-.338-.971-.508-2.105-.455-2.243-.375-.035.02-.074.091-.118.118-.066.044-.129.022-.173.067-.026.026.003.096-.016.122-.024.034-.078.04-.111.059-.035.019-.106-.012-.16.011s-.056.073-.091.09c-.131.066-.319-.01-.409-.01-.046.003-.034.075-.02.09.059.057.227.074.22.16-.001.018-.042.076-.067.08.09.19.918.442 2.008.08.181-.054.37-.064.544-.154zm1.241-1.399c.089-.061.203-.062.256-.146.117-.153-1.018-.405-1.479-.405-.457 0-1.303.115-1.447.166-.06.025-.063.147-.134.156-.136.017-.27.033-.406.045-.045.003-.034.075-.02.087.089.071.116.115.153.226.004.01.096.001.116.019.089.076.152.185.263.212.538.129 1.057.165 1.607.037.059-.014.102-.062.154-.068.193-.025.394-.036.544-.179.107-.103.275-.071.393-.15zm1.304-2.325c.032-.02.006-.122-.02-.125-.124-.019-.258-.068-.391.051-.045.041-.129-.047-.191-.009-.051.03-.101.111-.147.132-.128.057-.252-.076-.393-.06-.042.004-.031.097-.073.106-.121.029-.227-.104-.295-.059-.105.068-.193.154-.32.097-.122-.056-.282-.17-.366-.098-.145.126-.32-.057-.448-.008-.107.042-.397.111-.199.226.614.372 1.896.298 2.843-.253zm-6.088 6.974c-.032-.059-.115-.027-.173-.062-.042-.024-.062-.111-.102-.145-.032-.025-.107.033-.146.01-.056-.032-.098-.103-.141-.15-.048-.054-.092-.111-.14-.164-.044-.051-.091-.097-.147-.13-.03-.018-.09.021-.126.012-.065-.018-.104-.131-.156-.178-.03-.027-.079-.031-.106-.057-.028-.026-.034-.075-.063-.107-.037-.043-.094-.058-.136-.092-.057-.046-.098-.162-.142-.227s-.107-.072-.149-.128c-.052-.071-.082-.189-.146-.261-.063-.072-.224.043-.272.14-.08.159-.075.361.047.498.602.672 1.382 1.229 2.276 1.377-.068-.095-.137-.263-.178-.336zm1.978-.225c-.092-.025-.171-.075-.255-.11-.052-.021-.101.06-.156.026-.112-.067-.209-.163-.298-.234-.071-.057-.213-.199-.274-.17-.023.011-.058.143-.116.099-.14-.104-.23-.217-.361-.331-.06-.053-.116.119-.192.083-.174-.085-.244-.273-.379-.408-.156-.155-.306-.336-.521-.394-.036-.009-.016.043-.05.069-.164.129-.346-.091-.505-.164-.146-.067-.275-.175-.44-.187-.035-.003-.033.051-.021.066.939 1.11 2.243 1.944 3.674 1.911.033-.001.102.003.046-.066-.047-.054-.096-.174-.152-.19zm1.329-.81c-.042-.006-.106.051-.143.044-.111-.021-.199-.121-.334-.191-.056-.029-.084.102-.128.099-.224-.013-.546-.249-.745-.369-.035-.021-.249.021-.284.028-.128.026-.291-.198-.392-.246-.076-.035-.183-.073-.255-.019-.099.073-.216.034-.323.032-.042-.001-.079.088-.13.104-.147.047-.31-.055-.454.017-.004.002-.023.032-.022.043.01.09.11.105.177.146 1.033.654 2.627.866 3.515.668.021-.006-.011-.082-.07-.128-.062-.048-.153-.065-.192-.093-.091-.061-.138-.122-.22-.135zm2.078-.953c-.109.033-.193-.047-.284-.013-.021.009-.035.043-.053.043-.171.003-.285-.181-.459-.167-.044.004-.043.08-.079.088-.107.025-.203-.104-.3-.058-.068.033-.117.031-.184.012-.086-.025-.149-.102-.232-.114-.072-.012-.146.061-.228.037-.205-.061-.364-.255-.585-.209-.108.023-.202-.051-.277-.006-.083.049-.106.108-.189.158-.057.034-.189.029-.248.065-.046.027-.057.097-.108.118-.097.04-.21.012-.301.062-.011.006-.017.057.022.067.842.285 2.204.6 3.832.177.049-.016.06-.045.02-.092-.09-.101-.213-.207-.347-.168zm1.948-1.426c-.144.067-.311-.007-.47.03-.041.01-.01.07-.051.076-.156.021-.318-.018-.465.039-.115.045-.253-.006-.379-.004-.048.002-.049.066-.056.119-.007.043-.072.07-.093.064-.156-.047-.306-.062-.464-.086-.398-.059-.792-.186-1.166-.074-.122.038-.284.067-.377.163-.036.037-.074.11-.122.127-.229.084-.479.1-.706.181-.069.024-.2.121-.151.134 0 0 .704.204 1.472.204 1.478 0 2.604-.364 3.428-.813-.048-.062-.291-.21-.4-.16zm1.622-1.618c-.091.03-.215-.056-.292.001-.116.085-.252.07-.37.058-.057-.006-.146-.026-.196.013-.032.025.015.066.045.094-.3.103-.63.006-.914.121-.021.009-.034.113-.086.124-.261.052-.504-.05-.763-.003-.065.012-.036.151-.104.154-.232.012-.458-.008-.689-.018-.275-.012-.529.088-.789.168-.078.023-.101.146-.184.159-.225.034-.453-.006-.658.096-.015.007-.015.075 0 .084.251.142.539.239.711.469 1.747-.018 3.628-.247 5.083-1.44.028-.023-.144-.059-.236-.081-.091-.021-.165-.021-.275-.057-.098-.031-.188.027-.283.058zm1.814-1.644c-.018-.011-.282-.058-.429-.024-.031.007-.05.058-.079.063-.188.03-.322.121-.514.126-.04.001-.126.029-.178.054-.07.033-.165-.048-.22.013-.035.039.026.134-.037.164-.168.079-.363-.062-.526.044-.048.031.051.135-.011.154-.235.074-.643-.292-.796.088-.024.059-.098.032-.144.021-.045-.012-.107-.032-.134-.01-.145.117-.229.164-.432.107-.052-.015-.053.138-.152.114-.113-.027-.223-.11-.327-.063-.048.021-.013.148-.083.155-.283.027-.575-.014-.836.103-.064.028-.07.145-.16.159-.199.033-.397.01-.583.07-.029.009-.023.098.022.104.119.018.254-.001.346.054.112.067.184.255.293.26 2.245.043 3.866-.761 4.979-1.688.045-.039.023-.055.001-.068zm-.551-1.317c-.033.016-.022.126-.087.156-.11.051-.236.049-.354.085-.044.014-.042.073-.079.096-.062.04-.147.007-.193.041-.284.208-.621.115-.936.167.005.237-.369.092-.523.195-.167.113-.145.082-.395.084-.077.001-.035.115-.098.117-.199.003-.456-.06-.604-.016-.027.008-.035.133-.088.147-.108.029-.223.041-.326.074-.08.025.024.177-.083.211-.183.058-.384.016-.567.12-.073.042-.179.002-.272.02-.08.015-.111.099-.046.135.06.033.158.024.216.053.136.067.247.163.393.172 2.371.146 5.438-1.539 5.921-3.581.017-.082-.021-.067-.038-.021-.516 1.225-1.841 1.745-1.841 1.745z"/></g></svg>