<svg viewBox="0 0 24 16" xmlns="http://www.w3.org/2000/svg"><g fill="#00205b"><path d="m18.56 14.148c0-.228-.185-.41-.41-.41-.23 0-.412.183-.412.41s.184.412.41.412c.227 0 .412-.184.412-.412m-.735 0c0-.18.145-.323.323-.323s.323.145.323.323-.144.323-.322.323-.323-.143-.323-.322"/><path d="m18.317 14.384-.093-.2c.054-.02.093-.07.093-.13 0-.077-.063-.14-.14-.14h-.198v.47h.087v-.19h.063l.09.19h.097zm-.14-.28h-.11v-.104h.11c.03 0 .052.023.052.053s-.024.05-.052.05"/></g><path d="m12.445.384c.913 1.432 1.325 1.96 1.325 2.76 0 .963-.81 1.742-1.77 1.742s-1.772-.78-1.772-1.74c0-.803.412-1.33 1.325-2.762-4.005.23-7.183 3.552-7.183 7.616 0 4.215 3.416 7.63 7.63 7.63s7.63-3.415 7.63-7.63c0-4.064-3.178-7.386-7.185-7.616" fill="#00205b"/><path d="m12 14.936c3.83 0 6.936-3.104 6.936-6.935 0-3.213-2.186-5.916-5.15-6.703.156.196.68.918.68 1.848 0 1.344-1.105 2.437-2.465 2.437s-2.465-1.095-2.465-2.438c0-.93.524-1.65.68-1.848-2.965.787-5.15 3.49-5.15 6.704 0 3.83 3.105 6.936 6.935 6.936" fill="#fff"/><g fill="#00205b"><path d="m13.443 8.832h-.497v.795c0 .16-.13.288-.29.288s-.287-.13-.287-.288v-1.013h.576v-.75h-.577v-.586c0-.16.128-.288.287-.288s.29.13.29.288v.364h.496v-1.682h-2.101v1.03c.203 0 .37.165.37.368v2.346c0 .117-.096.21-.212.21v4.25c0 .305-.16.443-.234.492.24.03.486.045.736.045.305 0 .604-.02.896-.065 0 0 .547-.108.547-.59v-5.216z"/><path d="m11.34 8.832h-.498v.873c0 .116-.094.21-.21.21s-.21-.094-.21-.21v-2.505c0-.115.095-.21.21-.21v-1.03h-1.08v1.03c.115 0 .21.095.21.21v2.504c0 .117-.095.21-.21.21v3.703c0 .31-.17.41-.25.44.476.244.994.425 1.54.532 0 0 .498.074.498-.426z"/><path d="m9.393 13.617v-3.702c-.117 0-.21-.094-.21-.21v-2.505c0-.115.093-.21.21-.21v-1.03h-1.083v1.03c.118 0 .212.095.212.21v2.504c0 .117-.094.21-.21.21v2.522c0 .527-.27.61-.412.618.334.325.71.61 1.12.85-.002 0 .373.143.373-.287m8.353-5.974v-1.133c0-.303-.246-.55-.548-.55h-.648c-.302 0-.55.247-.55.55v1.514c0 .08.05.19.11.244l.867.775c.06.054.11.164.11.244v.335c0 .162-.133.293-.295.293-.163 0-.294-.13-.294-.293v-.79h-.498v4.317c1.076-1 1.745-2.398 1.745-3.946v-.223c0-.08-.048-.19-.108-.244l-.867-.775c-.06-.053-.11-.163-.11-.243v-.515c0-.117.097-.212.214-.212s.213.095.213.212v.44h.66z"/><path d="m8.153 12.437v-5.927c0-.303-.247-.55-.55-.55h-.8c-.303 0-.55.247-.55.55v2.694c0 1.35.51 2.585 1.352 3.54.165.216.548.277.548-.307m7.48-2.733v-1.227c0-.21-.236-.307-.236-.307s.235-.097.235-.307v-1.353c0-.303-.246-.55-.55-.55h-1.48v1.03c.116 0 .21.095.21.21v2.504c0 .117-.094.21-.21.21v4.13c0 .214-.087.375-.203.493.388-.094.762-.223 1.115-.388 0 0 .254-.124.254-.586v-3.65c-.165 0-.297-.13-.297-.295v-.917c0-.125.102-.227.227-.227s.227.102.227.227v4.908c0 .14-.02.257-.048.354.293-.162.57-.35.828-.56 0 0 .137-.113.137-.65v-2.84c-.118 0-.213-.093-.213-.21"/></g><path d="m7.203 6.99c-.16 0-.29.13-.29.29v2.346c0 .16.13.29.29.29s.29-.13.29-.29v-2.346c0-.16-.13-.29-.29-.29m7.52.873c.138 0 .25-.112.25-.25v-.373c0-.14-.112-.25-.25-.25-.14 0-.25.11-.25.25v.373c0 .138.11.25.25.25" fill="#fff"/><path d="m13.29 3.17c0-.904-.784-1.387-1.29-2.648-.506 1.262-1.29 1.744-1.29 2.648 0 .617.51 1.22 1.29 1.22s1.29-.603 1.29-1.22" fill="#cf4520"/></svg>