<svg xmlns="http://www.w3.org/2000/svg" viewBox="0 0 24 16"><path d="m53.285 156.638c-0.2 0.034-0.432 0.078-0.697 0.138 0.265-0.06 0.498-0.104 0.697-0.138zM54.188 156.535l0 0c0 0-0.304 0.002-0.903 0.103 0.598-0.101 0.902-0.103 0.903-0.103z" transform="translate(0 -27.999) scale(.21817)"/><path d="m27.032 152.308c0.516 10.165 4.727 28.525 22.089 40.515 2.323-1.244 3.872-3.336 4.793-4.966 1.831 2.213 2.02 5.301 2.02 5.303 1.957-9.164-6.628-16.237-6.628-16.237 0 0 6.195 3.012 10.465 7.906 0 0 0.124-0.825-0.133-2.169-0.3-1.568-0.767-2.669-0.767-2.669 0 0 4.463 3.626 6.871 9.024l0 0 0 0c0.055-0.048 0.109-0.097 0.163-0.145 6.123-6.335 6.298-15.829 6.298-15.829-1.335-5.539-3.679-7.461-3.679-7.461 0.467 2.534 0.756 5.314 0.756 5.314-1.49 3.292-4.159 5.494-4.159 5.494-2.402 0.267-4.307 0.027-7.64-1.101-2.892-0.979-5.038-2.502-5.038-2.502 0 0-1.101-0.067-2.369 0.067-1.073 0.113-2.369 0.4-2.369 0.4 1.435-2.536 2.286-5.112 2.44-6.284-0.976-1.033-2.033-2.016-3.112-2.793-2.376 0.111-4.266 0.248-4.266 0.248l0.801-3.247c0 0-0.546 0.455-1.157 1.066-0.656 0.656-1.379 1.47-1.379 1.47-1.424 0.578-3.426 0.89-3.426 0.89-1.023-0.267-2.002-0.934-2.002-0.934 2.402-3.559 6.317-4.983 6.317-4.983-0.712-0.845-0.667-1.512-0.667-1.512 0.998-0.66 1.91-1.203 2.716-1.648-0.197 0.522-0.224 0.89-0.224 0.89 0 0 1.37-1.105 2.204-1.605 0.934-0.561 1.844-1.04 1.844-1.04 0.604-1.947 1.64-3.526 1.907-3.75 0 0 0.546-0.087 0.829-0.054 0.053 0.637 0.78 1.652 1.076 2.041-1.511 0.494-2.82 1.477-2.82 1.477 0 0 3.32-0.886 6.259-0.984 3.981-0.133 6.435 0.764 6.435 0.764-0.598 0.863-1.408 1.773-1.408 1.773 6.586-2.232 7.274-3.939 10.844-4.706 1.301 0.211 2.48 0.634 2.48 0.634 0.845 0.89 1.046 1.802 1.046 1.802-0.489 3.804-2.024 8.076-2.024 8.076-1.201 1.468-3.27 2.803-3.27 2.803 2.069-0.267 5.138-1.203 5.138-1.203 1.908 1.393 4.414 4.42 5.454 5.723 2.164-6.003 3.015-11.635 3.23-15.855-0.869-0.438-11.679-5.715-27.968-5.715-16.291-0.003-27.101 5.274-27.97 5.712zm13.065 24.346c-1.602-1.268-2.135-3.114-2.135-3.114 0.045-1.29 0.667-2.089 0.667-2.089 2.891 2.046 7.34 3.87 7.34 3.87-3.47 0.332-5.872 1.333-5.872 1.333zm-0.634-10.06c0.235-0.184 0.554-0.437 0.764-0.595 0 0 1.263-0.18 2.639-0.273 1.068-0.084 2.057-0.039 2.057-0.039l0.882 1.034c-0.466 0.052-1.194 0.168-1.982 0.425 0 0 1.753 0.485 2.958 1.309-0.018 0.16-0.04 0.32-0.067 0.477-0.385-0.038-1.48-0.12-2.598 0.044 0 0 1.22 0.571 2.229 1.377-0.061 0.178-0.123 0.351-0.187 0.514-0.399-0.084-1.276-0.235-2.301-0.206 0 0 0.929 0.578 1.777 1.364-0.216 0.419-0.376 0.671-0.376 0.671-2.579-0.77-5.789-2.239-6.608-2.62l-0.043-2.542c0.274-0.346 0.428-0.557 0.856-0.94zm-3.744-1.004c0.18 0.286 0.402 0.615 0.663 0.954 0.28 0.364 0.586 0.687 0.934 1.012l0.926 2.606c-0.66 0.629-1.527 2.001-1.527 2.001-1.068-1.824-1.913-4.182-1.913-4.182l0.917-2.391zM55 196.354c1.556-0.808 3.028-1.664 4.421-2.559-1.393 0.895-2.865 1.751-4.421 2.559l0 0zM67.99 162.909c1.423-0.801 3.336-2.58 3.336-2.58 1.023-3.025 1.907-7.081 1.907-7.081 0-0.4-0.484-1.051-0.484-1.051-0.484-0.25-1.601-0.417-1.601-0.417-1.652 0.267-3.804 1.885-5.517 3.229 0.89 0 2.447-0.287 2.447-0.287-0.312 0.801-1.424 2.892-1.424 2.892 0.712 0.044 2.091-0.267 2.091-0.267-0.534 1.646-1.557 3.65-1.557 3.65l0.802 1.912zM23.13 136.571l0 13.527c0 3.689 0.527 13.411 5.409 23.988 5.954 12.901 14.713 20.498 26.461 26.599 11.652-6.052 20.47-13.616 26.462-26.599 4.881-10.577 5.409-20.299 5.409-23.988l0-13.527c-9.853-5.13-21.12-7.256-31.87-7.256-10.652 0-21.954 2.092-31.871 7.256zm62.01 1.049 0 12.477c0 3.575-0.511 12.997-5.249 23.263C74.374 185.314 66.003 193.021 55 198.736 44.041 193.044 35.645 185.356 30.109 173.361 25.371 163.095 24.86 153.672 24.86 150.098l0-12.478c8.709-4.535 20.113-6.576 30.14-6.576 9.992 0 21.414 2.033 30.14 6.576zM56.089 157.28c-0.222-0.095-0.452-0.188-0.672-0.276-0.66-0.263-1.229-0.469-1.229-0.469-0.001 0-0.304 0.002-0.903 0.103-0.2 0.034-0.432 0.078-0.697 0.138-1.059 0.237-2.638 0.709-4.716 1.645l0 0 0 0-0.201-0.413-0.268-0.55-2.681 3.689 0 0 0 0 0 0c0.91 0.17 1.854 0.226 2.72 0.222 1.906-0.009 3.441-0.307 3.441-0.307 0.998-0.841 1.882-1.753 2.487-2.416 0.202-0.221 0.372-0.414 0.506-0.568 0.178-0.205 0.29-0.339 0.321-0.375 0.625-0.178 1.114-0.267 1.892-0.423zm-5.872 2.827c-1.512 0.734-2.803 0.133-2.803 0.133 0 0 0.189-0.319 0.356-0.602 0.217 0.234 0.834 0.477 1.29 0.291 0.45-0.184 0.626-0.655 0.685-0.879 0.501-0.096 1.059-0.167 1.628-0.211 0.001 0-0.225 0.816-1.156 1.268z" fill="#041E42" transform="translate(0 -27.999) scale(.21817)"/><path d="M53.371 158.646c-.605.663-1.489 1.575-2.487 2.416 0 0-1.535.298-3.441.307 1.906-.009 3.441-.307 3.441-.307.998-.842 1.882-1.754 2.487-2.416zM47.872 158.42L47.872 158.42 47.671 158.008z" fill="#B99758" transform="translate(0 -27.999) scale(.21817)"/><path d="m24.86 150.097c0 3.575 0.511 12.997 5.249 23.263 5.536 11.995 13.932 19.684 24.891 25.375 11.003-5.715 19.374-13.422 24.891-25.375 4.738-10.266 5.249-19.689 5.249-23.263l0-12.477c-8.727-4.543-20.148-6.576-30.14-6.576-10.027 0-21.431 2.041-30.14 6.576l0 12.477zm54.878 18.066c-1.04-1.303-3.545-4.33-5.454-5.723 0 0-3.07 0.936-5.138 1.203 0 0 2.069-1.335 3.27-2.803 0 0 1.535-4.273 2.024-8.076 0 0-0.2-0.912-1.046-1.802 0 0-1.179-0.423-2.48-0.634-3.57 0.767-4.258 2.474-10.844 4.706 0 0 0.81-0.91 1.408-1.773 0 0-2.454-0.898-6.435-0.764-2.939 0.098-6.259 0.984-6.259 0.984 0 0 1.309-0.983 2.82-1.477-0.296-0.389-1.023-1.404-1.076-2.041-0.283-0.034-0.829 0.054-0.829 0.054-0.267 0.224-1.303 1.803-1.907 3.75 0 0-0.91 0.479-1.844 1.04-0.834 0.5-2.204 1.605-2.204 1.605 0 0 0.027-0.368 0.224-0.89-0.806 0.444-1.718 0.988-2.716 1.648 0 0-0.045 0.667 0.667 1.512 0 0-3.915 1.424-6.317 4.983 0 0 0.979 0.667 2.002 0.934 0 0 2.002-0.311 3.426-0.89 0 0 0.723-0.814 1.379-1.47 0.611-0.611 1.157-1.066 1.157-1.066l-0.801 3.247c0 0 1.89-0.137 4.266-0.248 1.08 0.777 2.136 1.76 3.112 2.793-0.155 1.172-1.006 3.748-2.44 6.284 0 0 1.296-0.287 2.369-0.4 1.268-0.133 2.369-0.067 2.369-0.067 0 0 2.146 1.524 5.038 2.502 3.334 1.129 5.238 1.368 7.64 1.101 0 0 2.669-2.202 4.159-5.494 0 0-0.289-2.78-0.756-5.314 0 0 2.345 1.923 3.679 7.461 0 0-0.175 9.494-6.298 15.829-0.054 0.049-0.109 0.097-0.163 0.145l0 0c-1.9 1.684-4 3.288-6.32 4.781-1.393 0.895-2.865 1.751-4.421 2.559l0 0 0 0c0 0 0.801-1.682 0.934-3.194l0 0c0-0.002-0.189-3.09-2.02-5.303-0.921 1.63-2.469 3.722-4.793 4.966-17.362-11.99-21.573-30.35-22.089-40.515 0.869-0.438 11.679-5.715 27.968-5.715 16.289 0 27.099 5.277 27.968 5.715-0.214 4.222-1.065 9.855-3.229 15.857zM66.655 157.614c0 0 1.112-2.091 1.424-2.892 0 0-1.557 0.287-2.447 0.287 1.713-1.344 3.865-2.962 5.517-3.229 0 0 1.118 0.167 1.601 0.417 0 0 0.484 0.651 0.484 1.051 0 0-0.884 4.056-1.907 7.081 0 0-1.913 1.78-3.336 2.58l-0.801-1.913c0 0 1.023-2.004 1.557-3.65-0.001 0.001-1.38 0.312-2.092 0.268zm-12.456 0.089c0.022 0.4 0 0.712 0 0.712-0.667 1.157-1.935 2.536-2.747 3.292-1.702 0.4-3.358 0.423-4.771 0.356l-1.957-0.916 0 0 0 0 2.681-3.689 0 0c0 0 3.68-1.47 6.784-0.923l0 0 0 0c0 0 0.569 0.207 1.229 0.469 0.22 0.088 0.45 0.181 0.672 0.276-0.779 0.156-1.268 0.245-1.891 0.423-0.032 0.036-0.144 0.171-0.322 0.375 0.178-0.205 0.29-0.339 0.322-0.375zm3.449 2.749c0.133-0.545 0.043-2.264 0.043-2.264 0 0 0.98 0.326 2.492 1.527 0 0-0.196 1.113-0.5 2.235l-5.258 2.41c0 0.001 1.754-1.891 3.223-3.908zM26.974 138.903c0 0 11.032-5.745 28.026-5.745 16.994 0 28.026 5.745 28.026 5.745l0 11.135c-8.408-3.825-18.82-5.559-28.026-5.559-9.237 0-19.635 1.739-28.026 5.557l0-11.133z" fill="#B99758" transform="translate(0 -27.999) scale(.21817)"/><path d="m49.061 159.929c-0.456 0.186-1.074-0.057-1.29-0.291-0.167 0.283-0.356 0.602-0.356 0.602 0 0 1.29 0.601 2.803-0.133 0.931-0.452 1.157-1.268 1.157-1.268-0.57 0.044-1.127 0.115-1.628 0.211-0.061 0.224-0.236 0.695-0.686 0.879zM83.026 150.038l0-11.135c0 0-11.032-5.745-28.026-5.745-16.994 0-28.026 5.745-28.026 5.745l0 11.134c8.391-3.818 18.789-5.557 28.026-5.557 9.206-0.001 19.619 1.733 28.026 5.558zm-8.492-10.854c0.224-0.354 0.448-0.707 0.671-1.059 1.039 0.31 2.073 0.644 3.101 1.002 0.221 0.496 0.442 0.993 0.663 1.491 0 2.005 0 4.01 0 6.015-0.474-0.171-0.95-0.336-1.426-0.496l0-2.902c-0.521-0.175-1.043-0.344-1.567-0.506l0 2.902c-0.479-0.149-0.96-0.292-1.442-0.43l0-6.017zm-7.939-3.049c1.291 0.215 2.577 0.465 3.856 0.751 0.227 0.469 0.453 0.94 0.68 1.412 0 1.587 0 3.173 0 4.759-0.226 0.366-0.453 0.733-0.68 1.101-1.28-0.286-2.566-0.537-3.856-0.751l0-7.272zm-4.945-0.643c0.495 0.047 0.989 0.099 1.483 0.156l0 7.272c-0.494-0.057-0.988-0.109-1.483-0.156l0-7.272zm-26.855 4.1c-0.782 0.233-1.561 0.48-2.337 0.741l0 1.435c0.554-0.186 1.111-0.366 1.668-0.538l0 1.467c-0.558 0.172-1.114 0.351-1.668 0.538l0 2.902c-0.477 0.16-0.952 0.326-1.427 0.496 0-2.424 0-4.848 0-7.272 1.246-0.448 2.501-0.861 3.764-1.237l0 1.468zm7.242 4.056c-1.288 0.24-2.57 0.516-3.846 0.828l0-7.272c0.486-0.118 0.972-0.232 1.46-0.341l0 5.805c0.793-0.176 1.589-0.339 2.387-0.487l0 1.467zm8.041-2.282c-0.231 0.435-0.461 0.871-0.692 1.308-1.071 0.085-2.14 0.195-3.206 0.329-0.23-0.39-0.459-0.778-0.688-1.165l0-4.761c0.229-0.45 0.459-0.898 0.688-1.345 1.067-0.134 2.136-0.244 3.206-0.329 0.23 0.4 0.461 0.802 0.692 1.205l0 4.758zm3.485-6.172c1.304-0.026 2.609-0.017 3.913 0.029 0.231 0.426 0.461 0.854 0.692 1.282l0 1.858c-0.231 0.409-0.462 0.818-0.693 1.229-0.163-0.006-0.326-0.011-0.488-0.015 0.394 0.978 0.788 1.96 1.181 2.945-0.527-0.023-1.054-0.041-1.581-0.053-0.394-0.976-0.788-1.949-1.182-2.919-0.117-0.001-0.235-0.001-0.352-0.001l0 2.903c-0.496-0.001-0.993 0.004-1.49 0.014 0-2.424 0-4.848 0-7.272zM56.679 136.666c-0.542-0.013-1.084-0.019-1.626-0.02l0 1.435c0.542 0 1.084 0.007 1.626 0.02l0-1.435zM77.542 140.334c-0.521-0.175-1.043-0.344-1.567-0.506l0 1.435c0.524 0.162 1.046 0.331 1.567 0.506l0-1.435zM68.067 142.2c0.535 0.1 1.069 0.207 1.602 0.32l0-4.337c-0.533-0.113-1.067-0.22-1.602-0.32l0 4.337zM46.972 141.44c0.54-0.062 1.079-0.117 1.62-0.166 0-1.446 0-2.891 0-4.337-0.54 0.049-1.08 0.105-1.62 0.166l0 4.337z" fill="#C8102E" transform="translate(0 -27.999) scale(.21817)"/><path d="M55.053 139.548c.117 0 .235 0 .352.001.394.97.788 1.943 1.182 2.919.527.012 1.054.03 1.581.053-.393-.985-.787-1.967-1.181-2.945.163.004.326.01.488.015.231-.411.462-.82.693-1.229l0-1.858c-.23-.428-.461-.856-.692-1.282-1.304-.046-2.609-.055-3.913-.029 0 2.424 0 4.848 0 7.271.497-.01.993-.015 1.49-.014l0-2.902zm0-2.902c.542.001 1.084.007 1.626.02l0 1.435c-.542-.013-1.084-.02-1.626-.02l0-1.435zM39.651 136.864c-.487.108-.974.222-1.46.341l0 7.272c1.276-.312 2.559-.588 3.846-.828l0-1.467c-.798.149-1.593.311-2.387.487l0-5.805zM31.031 146.634c.474-.171.95-.336 1.427-.496l0-2.902c.554-.186 1.111-.366 1.668-.538l0-1.467c-.558.172-1.114.352-1.668.538l0-1.435c.776-.261 1.555-.508 2.337-.741l0-1.467c-1.263.376-2.518.789-3.764 1.237 0 2.423 0 4.847 0 7.271zM75.976 142.729c.524.163 1.046.331 1.567.506l0 2.902c.477.16.952.326 1.426.496 0-2.005 0-4.01 0-6.015-.221-.498-.441-.995-.663-1.491-1.028-.359-2.061-.692-3.101-1.002-.223.352-.447.705-.671 1.059l0 6.016c.482.138.962.282 1.442.43l0-2.901zm0-2.902c.524.163 1.046.331 1.567.506l0 1.435c-.521-.175-1.043-.344-1.567-.506l0-1.435zM46.18 135.731c-.23.447-.459.895-.688 1.345l0 4.761c.229.387.459.776.688 1.165 1.067-.134 2.136-.244 3.206-.329.23-.437.461-.873.692-1.308l0-4.759c-.231-.403-.461-.804-.692-1.205-1.07.086-2.14.196-3.206.33zm2.412 5.543c-.54.049-1.08.104-1.62.166l0-4.336c.54-.062 1.079-.117 1.62-.166 0 1.445 0 2.89 0 4.336zM63.133 135.648c-.494-.057-.988-.109-1.483-.156l0 7.272c.495.047.989.099 1.483.156l0-7.272zM71.132 143.058c0-1.586 0-3.173 0-4.759-.226-.472-.453-.942-.68-1.412-1.28-.286-2.566-.537-3.856-.751l0 7.272c1.291.214 2.577.465 3.856.751.227-.369.453-.736.68-1.101zM69.67 142.52c-.533-.113-1.067-.22-1.602-.32l0-4.337c.535.101 1.069.207 1.602.32l0 4.337zM36.716 172.163c0 0 .867-1.371 1.527-2.001l-.926-2.606c-.348-.325-.654-.648-.934-1.012-.261-.339-.483-.668-.663-.954l-.916 2.391c-.001 0 .844 2.357 1.912 4.182zM37.962 173.54c0 0 .534 1.846 2.135 3.114 0 0 2.402-1.001 5.872-1.333 0 0-4.449-1.824-7.34-3.87 0 0-.623.799-.667 2.089zM50.885 161.061c0 0-1.535.298-3.441.307-.866.004-1.809-.051-2.72-.222l1.957.916c1.413.067 3.07.045 4.771-.356.812-.756 2.08-2.135 2.747-3.292 0 0 .022-.312 0-.712-.032.036-.144.171-.322.375-.134.154-.304.347-.506.568-.605.663-1.489 1.575-2.486 2.416zM44.723 161.147L44.723 161.147 44.723 161.147zM45.257 172.696c0 0 .16-.252.376-.671-.848-.787-1.777-1.364-1.777-1.364 1.025-.029 1.902.122 2.301.206.064-.164.127-.336.187-.514-1.009-.805-2.229-1.377-2.229-1.377 1.118-.164 2.213-.082 2.598-.044.027-.157.049-.317.067-.477-1.205-.824-2.958-1.309-2.958-1.309.789-.256 1.517-.372 1.982-.425l-.882-1.034c0 0-.99-.045-2.057.039-1.377.092-2.639.273-2.639.273-.21.158-.529.411-.764.595-.428.383-.582.594-.856.94l.043 2.542c.819.382 4.029 1.85 6.608 2.62z" fill="#fff" transform="translate(0 -27.999) scale(.21817)"/><path d="m60.184 159.715c-1.512-1.201-2.492-1.527-2.492-1.527 0 0 0.091 1.719-0.043 2.264-1.47 2.017-3.223 3.908-3.223 3.908l5.258-2.41c0.304-1.122 0.5-2.235 0.5-2.235z" fill="#041E42" transform="translate(0 -27.999) scale(.21817)"/><path d="m58.87 179.99c0 0 0.467 1.101 0.767 2.669 0.257 1.344 0.133 2.169 0.133 2.169-4.271-4.893-10.465-7.906-10.465-7.906 0 0 8.586 7.073 6.628 16.237l0 0C55.8 194.673 55 196.354 55 196.354l0 0c1.556-0.808 3.028-1.664 4.421-2.559 2.321-1.492 4.421-3.096 6.32-4.781l0 0C63.333 183.617 58.87 179.99 58.87 179.99ZM47.872 158.42l0 0c2.079-0.936 3.657-1.407 4.716-1.645 0.265-0.059 0.497-0.104 0.697-0.138 0.599-0.101 0.902-0.103 0.902-0.103l0.001 0c-3.105-0.548-6.784 0.923-6.784 0.923l0 0 0.268 0.55 0.2 0.413z" fill="#fff" transform="translate(0 -27.999) scale(.21817)"/><path d="m64.056 197.79 0 1.457-0.364 0 0-1.457-0.422 0 0-0.362 1.208 0 0 0.362-0.422 0zm1.975 1.457 0-1.074-0.307 0.669-0.322 0-0.307-0.669 0 1.074-0.364 0 0-1.819 0.364 0 0.468 0.971 0.468-0.971 0.364 0 0 1.819-0.364 0z" fill="#041E42" transform="translate(0 -27.999) scale(.21817)"/></svg>