<svg viewBox="0 0 24 16" xmlns="http://www.w3.org/2000/svg"><g transform="matrix(.21817 0 0 .21817 0 -27.999)"><path d="m53.285 156.638c-.2.034-.432.078-.697.138.265-.06.498-.104.697-.138zm.903-.103s-.304.002-.903.103c.598-.101.902-.103.903-.103z"/><path d="m27.032 152.308c.516 10.165 4.727 28.525 22.089 40.515 2.323-1.244 3.872-3.336 4.793-4.966 1.831 2.213 2.02 5.301 2.02 5.303 1.957-9.164-6.628-16.237-6.628-16.237s6.195 3.012 10.465 7.906c0 0 .124-.825-.133-2.169-.3-1.568-.767-2.669-.767-2.669s4.463 3.626 6.871 9.024c.055-.048.109-.097.163-.145 6.123-6.335 6.298-15.829 6.298-15.829-1.335-5.539-3.679-7.461-3.679-7.461.467 2.534.756 5.314.756 5.314-1.49 3.292-4.159 5.494-4.159 5.494-2.402.267-4.307.027-7.64-1.101-2.892-.979-5.038-2.502-5.038-2.502s-1.101-.067-2.369.067c-1.073.113-2.369.4-2.369.4 1.435-2.536 2.286-5.112 2.44-6.284-.976-1.033-2.033-2.016-3.112-2.793-2.376.111-4.266.248-4.266.248l.801-3.247s-.546.455-1.157 1.066c-.656.656-1.379 1.47-1.379 1.47-1.424.578-3.426.89-3.426.89-1.023-.267-2.002-.934-2.002-.934 2.402-3.559 6.317-4.983 6.317-4.983-.712-.845-.667-1.512-.667-1.512.998-.66 1.91-1.203 2.716-1.648-.197.522-.224.89-.224.89s1.37-1.105 2.204-1.605c.934-.561 1.844-1.04 1.844-1.04.604-1.947 1.64-3.526 1.907-3.75 0 0 .546-.087.829-.054.053.637.78 1.652 1.076 2.041-1.511.494-2.82 1.477-2.82 1.477s3.32-.886 6.259-.984c3.981-.133 6.435.764 6.435.764-.598.863-1.408 1.773-1.408 1.773 6.586-2.232 7.274-3.939 10.844-4.706 1.301.211 2.48.634 2.48.634.845.89 1.046 1.802 1.046 1.802-.489 3.804-2.024 8.076-2.024 8.076-1.201 1.468-3.27 2.803-3.27 2.803 2.069-.267 5.138-1.203 5.138-1.203 1.908 1.393 4.414 4.42 5.454 5.723 2.164-6.003 3.015-11.635 3.23-15.855-.869-.438-11.679-5.715-27.968-5.715-16.291-.003-27.101 5.274-27.97 5.712zm13.065 24.346c-1.602-1.268-2.135-3.114-2.135-3.114.045-1.29.667-2.089.667-2.089 2.891 2.046 7.34 3.87 7.34 3.87-3.47.332-5.872 1.333-5.872 1.333zm-.634-10.06c.235-.184.554-.437.764-.595 0 0 1.263-.18 2.639-.273 1.068-.084 2.057-.039 2.057-.039l.882 1.034c-.466.052-1.194.168-1.982.425 0 0 1.753.485 2.958 1.309-.018.16-.04.32-.067.477-.385-.038-1.48-.12-2.598.044 0 0 1.22.571 2.229 1.377-.061.178-.123.351-.187.514-.399-.084-1.276-.235-2.301-.206 0 0 .929.578 1.777 1.364-.216.419-.376.671-.376.671-2.579-.77-5.789-2.239-6.608-2.62l-.043-2.542c.274-.346.428-.557.856-.94zm-3.744-1.004c.18.286.402.615.663.954.28.364.586.687.934 1.012l.926 2.606c-.66.629-1.527 2.001-1.527 2.001-1.068-1.824-1.913-4.182-1.913-4.182zm19.281 30.764c1.556-.808 3.028-1.664 4.421-2.559-1.393.895-2.865 1.751-4.421 2.559zm12.99-33.445c1.423-.801 3.336-2.58 3.336-2.58 1.023-3.025 1.907-7.081 1.907-7.081 0-.4-.484-1.051-.484-1.051-.484-.25-1.601-.417-1.601-.417-1.652.267-3.804 1.885-5.517 3.229.89 0 2.447-.287 2.447-.287-.312.801-1.424 2.892-1.424 2.892.712.044 2.091-.267 2.091-.267-.534 1.646-1.557 3.65-1.557 3.65zm-44.86-26.338v13.527c0 3.689.527 13.411 5.409 23.988 5.954 12.901 14.713 20.498 26.461 26.599 11.652-6.052 20.47-13.616 26.462-26.599 4.881-10.577 5.409-20.299 5.409-23.988v-13.527c-9.853-5.13-21.12-7.256-31.87-7.256-10.652 0-21.954 2.092-31.871 7.256zm62.01 1.049v12.477c0 3.575-.511 12.997-5.249 23.263-5.517 11.954-13.888 19.661-24.891 25.376-10.959-5.692-19.355-13.38-24.891-25.375-4.738-10.266-5.249-19.689-5.249-23.263v-12.478c8.709-4.535 20.113-6.576 30.14-6.576 9.992 0 21.414 2.033 30.14 6.576zm-29.051 19.66c-.222-.095-.452-.188-.672-.276-.66-.263-1.229-.469-1.229-.469-.001 0-.304.002-.903.103-.2.034-.432.078-.697.138-1.059.237-2.638.709-4.716 1.645l-.201-.413-.268-.55-2.681 3.689c.91.17 1.854.226 2.72.222 1.906-.009 3.441-.307 3.441-.307.998-.841 1.882-1.753 2.487-2.416.202-.221.372-.414.506-.568.178-.205.29-.339.321-.375.625-.178 1.114-.267 1.892-.423zm-5.872 2.827c-1.512.734-2.803.133-2.803.133s.189-.319.356-.602c.217.234.834.477 1.29.291.45-.184.626-.655.685-.879.501-.096 1.059-.167 1.628-.211.001 0-.225.816-1.156 1.268z" fill="#041e42"/><path d="m53.371 158.646c-.605.663-1.489 1.575-2.487 2.416 0 0-1.535.298-3.441.307 1.906-.009 3.441-.307 3.441-.307.998-.842 1.882-1.754 2.487-2.416zm-5.499-.226-.201-.412z" fill="#b99758"/><path d="m24.86 150.097c0 3.575.511 12.997 5.249 23.263 5.536 11.995 13.932 19.684 24.891 25.375 11.003-5.715 19.374-13.422 24.891-25.375 4.738-10.266 5.249-19.689 5.249-23.263v-12.477c-8.727-4.543-20.148-6.576-30.14-6.576-10.027 0-21.431 2.041-30.14 6.576zm54.878 18.066c-1.04-1.303-3.545-4.33-5.454-5.723 0 0-3.07.936-5.138 1.203 0 0 2.069-1.335 3.27-2.803 0 0 1.535-4.273 2.024-8.076 0 0-.2-.912-1.046-1.802 0 0-1.179-.423-2.48-.634-3.57.767-4.258 2.474-10.844 4.706 0 0 .81-.91 1.408-1.773 0 0-2.454-.898-6.435-.764-2.939.098-6.259.984-6.259.984s1.309-.983 2.82-1.477c-.296-.389-1.023-1.404-1.076-2.041-.283-.034-.829.054-.829.054-.267.224-1.303 1.803-1.907 3.75 0 0-.91.479-1.844 1.04-.834.5-2.204 1.605-2.204 1.605s.027-.368.224-.89c-.806.444-1.718.988-2.716 1.648 0 0-.045.667.667 1.512 0 0-3.915 1.424-6.317 4.983 0 0 .979.667 2.002.934 0 0 2.002-.311 3.426-.89 0 0 .723-.814 1.379-1.47.611-.611 1.157-1.066 1.157-1.066l-.801 3.247s1.89-.137 4.266-.248c1.08.777 2.136 1.76 3.112 2.793-.155 1.172-1.006 3.748-2.44 6.284 0 0 1.296-.287 2.369-.4 1.268-.133 2.369-.067 2.369-.067s2.146 1.524 5.038 2.502c3.334 1.129 5.238 1.368 7.64 1.101 0 0 2.669-2.202 4.159-5.494 0 0-.289-2.78-.756-5.314 0 0 2.345 1.923 3.679 7.461 0 0-.175 9.494-6.298 15.829-.054.049-.109.097-.163.145-1.9 1.684-4 3.288-6.32 4.781-1.393.895-2.865 1.751-4.421 2.559s.801-1.682.934-3.194c0-.002-.189-3.09-2.02-5.303-.921 1.63-2.469 3.722-4.793 4.966-17.362-11.99-21.573-30.35-22.089-40.515.869-.438 11.679-5.715 27.968-5.715s27.099 5.277 27.968 5.715c-.214 4.222-1.065 9.855-3.229 15.857zm-13.083-10.549s1.112-2.091 1.424-2.892c0 0-1.557.287-2.447.287 1.713-1.344 3.865-2.962 5.517-3.229 0 0 1.118.167 1.601.417 0 0 .484.651.484 1.051 0 0-.884 4.056-1.907 7.081 0 0-1.913 1.78-3.336 2.58l-.801-1.913s1.023-2.004 1.557-3.65c-.001.001-1.38.312-2.092.268zm-12.456.089c.022.4 0 .712 0 .712-.667 1.157-1.935 2.536-2.747 3.292-1.702.4-3.358.423-4.771.356l-1.957-.916 2.681-3.689s3.68-1.47 6.784-.923.569.207 1.229.469c.22.088.45.181.672.276-.779.156-1.268.245-1.891.423-.032.036-.144.171-.322.375.178-.205.29-.339.322-.375zm3.449 2.749c.133-.545.043-2.264.043-2.264s.98.326 2.492 1.527c0 0-.196 1.113-.5 2.235l-5.258 2.41c0 .001 1.754-1.891 3.223-3.908zm-30.674-21.549s11.032-5.745 28.026-5.745 28.026 5.745 28.026 5.745v11.135c-8.408-3.825-18.82-5.559-28.026-5.559-9.237 0-19.635 1.739-28.026 5.557z" fill="#b99758"/><path d="m49.061 159.929c-.456.186-1.074-.057-1.29-.291-.167.283-.356.602-.356.602s1.29.601 2.803-.133c.931-.452 1.157-1.268 1.157-1.268-.57.044-1.127.115-1.628.211-.061.224-.236.695-.686.879zm33.965-9.891v-11.135s-11.032-5.745-28.026-5.745-28.026 5.745-28.026 5.745v11.134c8.391-3.818 18.789-5.557 28.026-5.557 9.206-.001 19.619 1.733 28.026 5.558zm-8.492-10.854c.224-.354.448-.707.671-1.059 1.039.31 2.073.644 3.101 1.002.221.496.442.993.663 1.491v6.015c-.474-.171-.95-.336-1.426-.496v-2.902c-.521-.175-1.043-.344-1.567-.506v2.902c-.479-.149-.96-.292-1.442-.43zm-7.939-3.049c1.291.215 2.577.465 3.856.751.227.469.453.94.68 1.412v4.759c-.226.366-.453.733-.68 1.101-1.28-.286-2.566-.537-3.856-.751zm-4.945-.643c.495.047.989.099 1.483.156v7.272c-.494-.057-.988-.109-1.483-.156zm-26.855 4.1c-.782.233-1.561.48-2.337.741v1.435c.554-.186 1.111-.366 1.668-.538v1.467c-.558.172-1.114.351-1.668.538v2.902c-.477.16-.952.326-1.427.496 0-2.424 0-4.848 0-7.272 1.246-.448 2.501-.861 3.764-1.237zm7.242 4.056c-1.288.24-2.57.516-3.846.828v-7.272c.486-.118.972-.232 1.46-.341v5.805c.793-.176 1.589-.339 2.387-.487v1.467zm8.041-2.282c-.231.435-.461.871-.692 1.308-1.071.085-2.14.195-3.206.329-.23-.39-.459-.778-.688-1.165v-4.761c.229-.45.459-.898.688-1.345 1.067-.134 2.136-.244 3.206-.329.23.4.461.802.692 1.205zm3.485-6.172c1.304-.026 2.609-.017 3.913.029.231.426.461.854.692 1.282v1.858c-.231.409-.462.818-.693 1.229-.163-.006-.326-.011-.488-.015.394.978.788 1.96 1.181 2.945-.527-.023-1.054-.041-1.581-.053-.394-.976-.788-1.949-1.182-2.919-.117-.001-.235-.001-.352-.001v2.903c-.496-.001-.993.004-1.49.014 0-2.424 0-4.848 0-7.272zm3.116 1.472c-.542-.013-1.084-.019-1.626-.02v1.435c.542 0 1.084.007 1.626.02zm20.863 3.668c-.521-.175-1.043-.344-1.567-.506v1.435c.524.162 1.046.331 1.567.506zm-9.475 1.866c.535.1 1.069.207 1.602.32v-4.337c-.533-.113-1.067-.22-1.602-.32zm-21.095-.76c.54-.062 1.079-.117 1.62-.166 0-1.446 0-2.891 0-4.337-.54.049-1.08.105-1.62.166z" fill="#c8102e"/><path d="m55.053 139.548c.117 0 .235 0 .352.001.394.97.788 1.943 1.182 2.919.527.012 1.054.03 1.581.053-.393-.985-.787-1.967-1.181-2.945.163.004.326.01.488.015.231-.411.462-.82.693-1.229v-1.858c-.23-.428-.461-.856-.692-1.282-1.304-.046-2.609-.055-3.913-.029v7.271c.497-.01.993-.015 1.49-.014zm0-2.902c.542.001 1.084.007 1.626.02v1.435c-.542-.013-1.084-.02-1.626-.02zm-15.402.218c-.487.108-.974.222-1.46.341v7.272c1.276-.312 2.559-.588 3.846-.828v-1.467c-.798.149-1.593.311-2.387.487v-5.805zm-8.62 9.77c.474-.171.95-.336 1.427-.496v-2.902c.554-.186 1.111-.366 1.668-.538v-1.467c-.558.172-1.114.352-1.668.538v-1.435c.776-.261 1.555-.508 2.337-.741v-1.467c-1.263.376-2.518.789-3.764 1.237zm44.945-3.905c.524.163 1.046.331 1.567.506v2.902c.477.16.952.326 1.426.496 0-2.005 0-4.01 0-6.015-.221-.498-.441-.995-.663-1.491-1.028-.359-2.061-.692-3.101-1.002-.223.352-.447.705-.671 1.059v6.016c.482.138.962.282 1.442.43zm0-2.902c.524.163 1.046.331 1.567.506v1.435c-.521-.175-1.043-.344-1.567-.506zm-29.796-4.096c-.23.447-.459.895-.688 1.345v4.761c.229.387.459.776.688 1.165 1.067-.134 2.136-.244 3.206-.329.23-.437.461-.873.692-1.308v-4.759c-.231-.403-.461-.804-.692-1.205-1.07.086-2.14.196-3.206.33zm2.412 5.543c-.54.049-1.08.104-1.62.166v-4.336c.54-.062 1.079-.117 1.62-.166zm14.541-5.626c-.494-.057-.988-.109-1.483-.156v7.272c.495.047.989.099 1.483.156zm7.999 7.41c0-1.586 0-3.173 0-4.759-.226-.472-.453-.942-.68-1.412-1.28-.286-2.566-.537-3.856-.751v7.272c1.291.214 2.577.465 3.856.751.227-.369.453-.736.68-1.101zm-1.462-.538c-.533-.113-1.067-.22-1.602-.32v-4.337c.535.101 1.069.207 1.602.32zm-32.954 29.643s.867-1.371 1.527-2.001l-.926-2.606c-.348-.325-.654-.648-.934-1.012-.261-.339-.483-.668-.663-.954l-.916 2.391c-.001 0 .844 2.357 1.912 4.182zm1.246 1.377s.534 1.846 2.135 3.114c0 0 2.402-1.001 5.872-1.333 0 0-4.449-1.824-7.34-3.87 0 0-.623.799-.667 2.089zm12.923-12.479s-1.535.298-3.441.307c-.866.004-1.809-.051-2.72-.222l1.957.916c1.413.067 3.07.045 4.771-.356.812-.756 2.08-2.135 2.747-3.292 0 0 .022-.312 0-.712-.032.036-.144.171-.322.375-.134.154-.304.347-.506.568-.605.663-1.489 1.575-2.486 2.416zm-5.628 11.635s.16-.252.376-.671c-.848-.787-1.777-1.364-1.777-1.364 1.025-.029 1.902.122 2.301.206.064-.164.127-.336.187-.514-1.009-.805-2.229-1.377-2.229-1.377 1.118-.164 2.213-.082 2.598-.044.027-.157.049-.317.067-.477-1.205-.824-2.958-1.309-2.958-1.309.789-.256 1.517-.372 1.982-.425l-.882-1.034s-.99-.045-2.057.039c-1.377.092-2.639.273-2.639.273-.21.158-.529.411-.764.595-.428.383-.582.594-.856.94l.043 2.542c.819.382 4.029 1.85 6.608 2.62z" fill="#fff"/><path d="m60.184 159.715c-1.512-1.201-2.492-1.527-2.492-1.527s.091 1.719-.043 2.264c-1.47 2.017-3.223 3.908-3.223 3.908l5.258-2.41c.304-1.122.5-2.235.5-2.235z" fill="#041e42"/><path d="m58.87 179.99s.467 1.101.767 2.669c.257 1.344.133 2.169.133 2.169-4.271-4.893-10.465-7.906-10.465-7.906s8.586 7.073 6.628 16.237c-.133 1.514-.933 3.195-.933 3.195 1.556-.808 3.028-1.664 4.421-2.559 2.321-1.492 4.421-3.096 6.32-4.781-2.408-5.397-6.871-9.024-6.871-9.024zm-10.998-21.57c2.079-.936 3.657-1.407 4.716-1.645.265-.059.497-.104.697-.138.599-.101.902-.103.902-.103h.001c-3.105-.548-6.784.923-6.784.923l.268.55z" fill="#fff"/><path d="m64.056 197.79v1.457h-.364v-1.457h-.422v-.362h1.208v.362zm1.975 1.457v-1.074l-.307.669h-.322l-.307-.669v1.074h-.364v-1.819h.364l.468.971.468-.971h.364v1.819z" fill="#041e42"/></g></svg>