<svg viewBox="0 0 24 16" xmlns="http://www.w3.org/2000/svg"><path d="m18.518.22h-.252-12.532-.252v.252 10.468.13l.104.075 6.266 4.527.148.108.148-.107 6.265-4.527.104-.075v-.13-10.469-.252z" fill="#111"/><path d="m5.734 10.969 6.266 4.529 6.266-4.529v-10.468h-12.532z" fill="#fff"/><path d="m16.395 13.434c0-.07-.058-.127-.127-.127h-.182v.43h.08v-.176h.058l.081.176h.09l-.085-.182c.048-.02.085-.067.085-.121zm-.127.046h-.102v-.094h.102c.025 0 .046.021.046.047s-.021.047-.046.047z" fill="#111"/><path d="m16.24 13.145c-.207 0-.375.17-.375.377 0 .205.168.373.375.373s.374-.168.374-.373c0-.208-.167-.377-.374-.377zm0 .669c-.163 0-.295-.131-.295-.293 0-.164.132-.295.295-.295.162 0 .294.131.294.295 0 .163-.132.293-.294.293z" fill="#111"/><path d="m6.147 10.758 5.853 4.23 5.852-4.23v-2.575h-11.705zm0-2.937h11.704v-6.906h-11.704z" fill="#acaea9"/><path d="m6.517 10.57 5.483 3.963 5.482-3.963v-1.746h-10.965zm0-3.293h10.966v-5.993h-10.966z" fill="#111"/><path d="m7.86 5.582v-1.301c0-1.51.352-2.049.352-2.049h-1.366s.352.539.352 2.049c0 1.509-.352 2.048-.352 2.048h4.461s.372-.506.372-1.277c0 0-.509.53-1.704.53zm4.209-3.35s.353.539.353 2.049c0 1.509-.353 2.048-.353 2.048h1.015v-1.526h3.057v1.526h1.014s-.353-.539-.353-2.048c0-1.51.353-2.049.353-2.049z" fill="#acaea9"/><path d="m12.223 2.327c.106.251.294.846.294 1.955 0 1.108-.188 1.703-.294 1.953h.767v-1.527h3.246v1.526h.766c-.106-.25-.293-.845-.293-1.953 0-1.109.187-1.704.293-1.955-.278.001-4.502.001-4.779.001zm-4.457 3.35v-1.396c0-1.109.187-1.704.294-1.955h-1.061c.106.251.293.846.293 1.955 0 1.108-.187 1.703-.293 1.953h4.257c.069-.11.27-.471.316-.98-.243.167-.751.423-1.598.423z" fill="#fff"/><path d="m12.989 4.15h3.246v-1.265h-3.246z" fill="#acaea9"/><path d="m13.084 2.979h3.057v1.077h-3.057z"/><path d="m13.647 12.633.408-2.332-.086-.037s-.33.443-.394.527c-.136-.168-.395-.375-.746-.49.027-.066.155-.379.155-.379s-.196.08-.28.113c.008-.016.018-.033.018-.033s-.3.016-.347.018c-.024-.041-.188-.332-.211-.371.02-.033.082-.143.088-.154.011-.008.088-.074.088-.074l-.1-.191-.212.015s-.003.099-.004.118l-.024.039-.024-.039c-.001-.02-.005-.118-.005-.118l-.212-.015-.1.189s.077.066.087.074c.008.012.069.121.089.154-.022.039-.186.33-.21.371-.048-.002-.348-.018-.348-.018s.009.018.018.033c-.084-.033-.28-.113-.28-.113s.127.312.155.379c-.351.115-.61.322-.747.49-.062-.084-.394-.527-.394-.527l-.084.037.406 2.332s.578.148 1.648.148c1.07.002 1.648-.146 1.648-.146z" fill="#fff"/><path d="m11.662 12.674s-.529-.049-.844-.17c.214.031.562.072.881.072 0 0-.431-.043-.716-.15.216.027.522.061.805.061 0 0-.42-.043-.705-.148.256-.055.57-.098.917-.098s.66.043.916.098c-.285.105-.704.148-.704.148.281 0 .588-.033.804-.061-.285.107-.715.15-.715.15.317 0 .666-.041.881-.072-.314.121-.845.17-.845.17.78-.021 1.242-.137 1.242-.137l.357-2.08-.362.484c-.159-.26-.469-.469-.865-.584l.109-.266-.56.25v-.137l-.258-.444-.26.445v.137l-.561-.25.109.266c-.396.115-.704.324-.864.584l-.362-.484.358 2.08c.001-.001.463.114 1.242.136z" fill="#111"/><g fill="#acaea9"><path d="m11.74 10.393-.473-.211.473 1.15zm.519 0v.939l.474-1.15zm-.048-.02-.211-.275-.212.275.212.252z"/><path d="m13.656 11.811c-.093-.016-.164-.102-.164-.203 0-.113.087-.205.193-.205.015 0 .027 0 .04.004l.132-.766-.573.766c.013.367-.077.516-.077.516s-.191-.078-.406-.121l-.074-.371c-.033 0-.062-.01-.088-.027h-.002l-.189.342s-.237-.023-.356-.023l.107-.328-.199-.512-.197.51.106.328c-.12 0-.357.023-.357.023l-.174-.316c-.011.002-.022.002-.034.002-.024 0-.047-.006-.067-.016l-.078.387c-.214.043-.406.121-.406.121s-.089-.148-.077-.516l-.573-.766.132.766c.013-.004.026-.004.04-.004.107 0 .194.092.194.205 0 .102-.072.188-.165.203l.114.662c.181-.07.787-.279 1.543-.279.755 0 1.362.209 1.543.279z"/></g><path d="m12.089 10.365c0-.049-.041-.09-.089-.09-.05 0-.088.041-.088.09s.038.088.088.088c.048 0 .089-.039.089-.088zm.39.092c-.017-.021-.042-.035-.07-.035-.049 0-.088.039-.088.09 0 .039.028.076.066.086.015.008.03.014.047.014.047 0 .084-.037.084-.084 0-.03-.016-.057-.039-.071zm-.856 0c-.017-.021-.042-.035-.071-.035-.049 0-.088.039-.088.09 0 .039.029.076.067.086.014.008.029.014.047.014.047 0 .084-.037.084-.084 0-.03-.016-.057-.039-.071z" fill="#111"/><g fill="#fff"><path d="m10.489 11.029.099.131c.24-.471.722-.523.722-.523-.412.154-.585.395-.641.633l.093.121s-.012.332.055.473c.021-.01.044-.018.071-.025-.215-.885.481-1.047.481-1.047-.492.254-.445.707-.346 1.004.041-.01.086-.021.136-.033l.074-.367c-.064-.023-.109-.086-.109-.158 0-.094.076-.17.17-.17.055 0 .104.025.135.066.045.029.076.08.076.137 0 .061-.033.113-.084.141l.156.285c.083-.008.168-.014.255-.018l-.505-1.229c-.391.114-.697.325-.838.579zm2.104.354c-.05-.031-.083-.084-.083-.146 0-.094.076-.17.17-.17.055 0 .104.025.135.066.046.029.076.08.076.137 0 .074-.051.135-.118.154l.069.338c.049.012.093.023.135.033.1-.297.145-.75-.348-1.004 0 0 .697.162.483 1.047.026.008.051.016.071.025.065-.141.054-.473.054-.473l.094-.121c-.057-.238-.228-.479-.642-.633 0 0 .481.053.722.523l.099-.131c-.14-.254-.446-.465-.838-.58l-.504 1.229c.086.004.171.01.254.018z"/><path d="m11.294 11.092c-.08 0-.146.064-.146.145s.065.146.146.146.146-.066.146-.146-.066-.145-.146-.145zm1.531.144c0-.08-.065-.145-.146-.145s-.145.064-.145.145.064.146.145.146.146-.066.146-.146zm-2.452.371c0-.035-.026-.064-.06-.064-.006 0-.012 0-.016.002l.021.125c.032-.004.055-.029.055-.063z"/><path d="m10.313 11.424c-.012 0-.024.002-.037.006l.004.023c.012-.004.021-.006.033-.006.082 0 .146.072.146.16 0 .08-.054.145-.126.156l.005.023c.082-.014.146-.088.146-.18 0-.1-.077-.182-.171-.182zm3.313.183c0 .033.023.059.055.062l.021-.125c-.005-.002-.01-.002-.017-.002-.033.001-.059.03-.059.065z"/><path d="m13.661 11.787.004-.023c-.071-.012-.126-.076-.126-.156 0-.088.065-.16.146-.16.012 0 .021.002.033.006l.005-.023c-.014-.004-.025-.006-.038-.006-.094 0-.17.082-.17.184.001.09.063.164.146.178zm-1.586-1.422c0-.041-.033-.076-.075-.076s-.076.035-.076.076c0 .043.034.076.076.076s.075-.033.075-.076zm.333.221c.043 0 .076-.033.076-.074 0-.043-.033-.076-.076-.076-.041 0-.076.033-.076.076 0 .041.035.074.076.074zm-.856 0c.043 0 .076-.033.076-.074 0-.043-.033-.076-.076-.076-.041 0-.075.033-.075.076 0 .041.034.074.075.074z"/></g><g fill="#111"><circle cx="11.294" cy="11.236" r=".129"/><circle cx="12.68" cy="11.236" r=".129"/><path d="m11.995 11.451c.01.004.021.008.033.008.042 0 .077-.035.077-.078 0-.029-.017-.055-.043-.068.011.014.019.033.019.053 0 .046-.038.085-.086.085z"/><circle cx="11.995" cy="11.365" r=".068"/><circle cx="12" cy="10.365" r=".067"/><circle cx="12.408" cy="10.511" r=".067"/><circle cx="11.552" cy="10.511" r=".067"/><path d="m11.598 12.043c-.001 0-.001 0-.002 0 .01.004.022.008.034.008.043 0 .077-.035.077-.078 0-.029-.018-.055-.043-.068.012.016.019.033.019.053 0 .046-.038.085-.085.085zm-.66.115c-.001 0-.002 0-.002 0 .011.008.021.01.034.01.043 0 .077-.035.077-.076 0-.031-.018-.059-.043-.07.012.016.019.031.019.053-.001.046-.04.083-.085.083zm1.417-.115c-.001 0-.001 0 0 0 .008.004.021.008.032.008.044 0 .077-.035.077-.078 0-.029-.018-.055-.043-.068.011.016.019.033.019.053 0 .046-.038.085-.085.085zm.661.115c.01.008.021.01.033.01.043 0 .076-.035.076-.076 0-.031-.018-.059-.043-.07.013.016.02.031.02.053 0 .046-.039.083-.086.083z"/><circle cx="11.598" cy="11.958" r=".069"/><circle cx="10.938" cy="12.073" r=".069"/><circle cx="12.355" cy="11.958" r=".069"/><circle cx="13.016" cy="12.073" r=".069"/><path d="m10.282 11.375.083.004-.036-.108zm.193.063.024-.112-.093.067zm.14.023-.112.008.035.074zm-.077.207.109-.031-.101-.051zm-.01.029-.045.071.111.023zm-.162.137.08.08-.004-.113zm3.305-.563-.038.108.084-.004zm-.077.122-.093-.067.023.112zm-.097.076-.113-.008.077.082zm-.043.117-.102.051.109.031zm-.049.205.112-.023-.046-.071zm.152.01-.004.113.08-.08zm-1.836-1.613.279-.479.278.479h.224l.025-.053h-.219l-.279-.479.137-.234.033-.033-.023-.035-.051.005-.007.043-.118.203-.117-.203-.009-.043-.051-.005-.022.035.033.033.136.234-.278.479h-.22l.026.053z"/></g></svg>