<svg viewBox="0 0 24 16" xmlns="http://www.w3.org/2000/svg"><g fill="#192168"><path d="m20.233 12.332c-.213 0-.385.172-.385.384 0 .213.172.384.385.384.211 0 .382-.171.382-.384 0-.212-.171-.384-.382-.384zm0 .686c-.168 0-.303-.135-.303-.302s.135-.302.303-.302c.165 0 .302.135.302.302s-.137.302-.302.302z"/><path d="m20.391 12.627c0-.072-.059-.13-.131-.13h-.186v.438h.083v-.179h.059l.084.179h.091l-.088-.186c.051-.018.088-.065.088-.122zm-.131.048h-.103v-.096h.103c.027 0 .048.021.048.048s-.021.048-.048.048z"/></g><path d="m18.939 7.873 1.426-1.497-.688-3.168-3.036-.901-.312.289c-1.023-.338-3.215-.742-4.681-.74-4.981.009-8.768 2.742-8.782 6.112-.016 3.535 3.413 6.176 8.825 6.176 3.789 0 7.67-2.021 9.31-3.171z" fill="#192168"/><path d="m18.406 8.202s-2.15 1.468-4.52 1.91v-4.165c2.573.324 4.098 2.006 4.098 2.006l1.716-1.772-.551-2.486-2.344-.686-.297.324c-.951-.372-2.914-.854-5.088-.854-4.354 0-7.911 2.468-7.917 5.512-.006 2.965 3.012 5.532 7.884 5.532 4.5 0 7.749-2.145 8.767-2.719zm-7.427-.785v-1.706c.595-.029 1.256.001 1.724.057v1.649zm1.723 1.129v1.718c-.485.058-1.224.072-1.724.036v-1.754zm-2.96-2.735v4.371c-.718 0-3.008-.842-3.008-2.168 0-1.64 2.341-2.093 3.008-2.203z" fill="#fff"/><path d="m9.113 9.42v-2.847c-.821.239-1.743.704-1.743 1.441 0 .504.778 1.113 1.743 1.406zm8.173-1.281c-.643-.566-1.58-1.159-2.766-1.448v2.627c.895-.248 1.877-.668 2.766-1.179zm-5.844-1.222h.805v-.667l-.805-.032zm-.018 2.155h.828v.701h-.828z" fill="#fff"/><path d="m18.281 8.819c-2.813 1.652-4.687 1.973-6.97 1.952-3.21-.03-5.039-1.315-5.039-2.845 0-1.379 1.677-2.694 5.104-2.694 2.306 0 5.085.618 6.57 2.082l1.235-1.26-.421-2-1.822-.532-.331.374c-.999-.4-2.688-.954-5.285-.954-3.919 0-7.356 2.264-7.356 5.004 0 2.862 2.993 5.106 7.24 5.106 4.308 0 6.836-1.623 8.296-2.39z" fill="#af1e2d"/></svg>