<svg viewBox="0 0 24 16" xmlns="http://www.w3.org/2000/svg"><g fill="#fff"><path d="m.434 5.672c.049.006 4.9.683 4.9 3.541 0 1.048-.734 2.11-.741 2.12-.19.27-.073.706.319.777 0 0 2.699.487 2.793.504.301.232 1.03.692 2.075.692 1.279 0 1.72-.478 1.855-.92.622-.291 1.425-.921 1.425-1.533 0-.436-.386-.728-.748-.73-.072-.076-.175-.152-.311-.195.273-.198.583-.362.939-.48.982-.326 2.214-.608 3.039-.781-1.266 3.039-4.857 4.64-4.894 4.657-.367.161-.289.548-.289.548l-.241.108c-.513.23-.318.999.244.951 4.182-.356 7.27-1.812 9.44-4.448h.763c.084 0 .167-.021.241-.062.775-.433 1.297-.424 1.302-.424.197.009.382-.1.469-.277.396-.806.824-1.237.828-1.242.156-.156.185-.363.112-.543l-.642-1.572c-.046-.114-.133-.206-.244-.26l-1.22-.589-.345-.265-.511-.633-.173-.776c-.03-.137-.118-.255-.24-.325l-.846-.481-.528-.53c-.044-.045-.096-.08-.154-.105l-3.409-1.483c-.094-.041-.196-.052-.296-.032l-4.621.923c-1.231-.092-2.313.053-2.434.07-.379.063-.442.406-.423.501-.419.084-6.731 1.345-6.731 1.345-.119.024-.225.09-.299.187 0 0-.736.968-.736.968-.237.31-.036.746.332.794m-.167-.669.736-.968c.043-.056.105-.095.174-.109l6.954-1.389c-.098-.099-.097-.407.188-.454.047-.007 1.155-.165 2.421-.067l4.646-.928c.058-.011.118-.005.173.019l3.409 1.483c.034.015.064.035.09.061l.548.55.871.495c.071.041.122.109.14.19l.183.823.557.69.382.294 1.239.599c.065.031.115.085.143.152l.642 1.571c.057.139-.003.255-.065.317-.004.004-.452.452-.868 1.298-.051.103-.161.167-.276.162-.005 0-.569-.019-1.408.449-.043.024-.092.037-.142.037h-.858c-2.133 2.636-5.197 4.094-9.362 4.449-.318.027-.449-.42-.142-.555l.432-.193c-.097-.062-.139-.359.096-.461.042-.018 3.988-1.777 5.141-5.127-.758.153-2.272.479-3.433.864-.753.249-1.224.639-1.509.967.116-.049.265-.118.403-.118.321 0 .453.245.453.245.029-.005.056-.015.085-.015.263 0 .545.21.545.523 0 .502-.777 1.125-1.394 1.388-.081.386-.433.857-1.679.857-1.052 0-1.775-.508-1.99-.68l-2.841-.513c-.229-.041-.297-.296-.186-.454.008-.011.779-1.116.779-2.239 0-3.051-5.03-3.74-5.081-3.747-.228-.032-.326-.294-.196-.466"/><path d="m7.679 4.518s-.912.37-1.539 1.315c.284-.077.599-.158.94-.238.279-.648.599-1.077.599-1.077m13.959 2.328s.77.488 1.115-.138l-1.177-.554c-.329.191-.652.29-.951.333.568.157 1.013.359 1.013.359"/><path d="m4.673 4.49 4.178-.935s.165.537.878.968l-.012.132c-.331.067-.85.28-1.345.668.746-.139 1.574-.263 2.465-.349l.211-.495c-1.311.192-1.901-.923-1.901-.923l-.101-.34-7.606 1.702c.821.057 1.725.318 2.55.738.196-.656.683-1.166.683-1.166m12.737 2.086c-.349.175-.652.413-.995.705l.395-.742s-1.041-.042-2.038-.023l-.651.716c-.243-.073-.499-.115-.765-.121-.015-.362.127-.775.445-1.17-.422.318-.677.726-.73 1.178-.185.014-.366.047-.541.095-.091-.301-.081-.672.058-1.075-.246.375-.347.772-.296 1.152-.175.066-.342.149-.5.246-.154-.234-.248-.546-.255-.917-.089.381-.064.736.071 1.042-.557.415-.808.917-.808.917-1.768-.319-2.838 1.161-2.876 2.199-.112-.72.118-1.994 1.542-2.601l.473-1.105c.03-.07.068-.132.115-.188-1.589.297-2.573.926-2.573.926s-.428.766-.245 1.548c0 0-.279-.379-.444-1.026-.072.069-.133.131-.178.181.058.229.089.465.089.708 0 1.158-.484 1.886-.484 1.886l1.62.329s.612.891 1.927.891c.416 0 .962-.046.962-.311 0-.2-.492-.473-.492-1.053 0-.942 1.184-1.92 2.454-2.339 1.484-.489 3.752-1.058 4.892-1.058 3.235 0 3.128 2.136 3.128 2.136l.157-.007c.72-.405 1.358-.482 1.543-.496.313-1.161-.279-2.208-5-2.623m-3.957-2.266c-.685.029-1.222.277-1.631.585.536-.033 1.09-.05 1.659-.049.278-.368.444-.77.444-1.191 0-.726-.372-1.152-.372-1.152l1.8-.399.56.275s-1.323.508-1.323 1.942c0 .204.03.389.077.556.952.048 1.935.153 2.935.334 0 0 .323.784 1.213.784.431 0 .76-.239.76-.239.965.729 1.848.327 1.848.327l-.331-.275-.315.169.196-.295-.121-.137-.426.22.267-.405-.093-.107-.36.158.207-.351-.145-.223c-.135.594-.665.665-1.12.629l-.024-.263c-.099.062-.215.098-.341.098-.355 0-.643-.288-.643-.643 0-.203-1.002-1.1-1.002-1.1l1.297.4c1.087.336 1.039.875 1.051 1.167.183.081.595.14.781-.289l-.137-.714-.863-.419-.593-.555-3.32-1.342-3.268.725c.77.185 1.407.587 1.407.587s.245.565-.074 1.192m6.505.109-.162.625c0-.473-.28-.744-1.107-1.231z"/><path d="m4.431 5.901c.159.096.314.199.463.307.136-.045.296-.097.479-.153.281-1.075.857-1.788.857-1.788-1.194.446-1.7 1.42-1.799 1.634m4.951-2.453s.477.812 1.328.812l.883-.061.726-.758.991-.152c-.367-.223-.782-.383-1.204-.497l-.828 1.157.526-1.23c-.154-.034-.307-.062-.459-.085l-.714.995.442-1.034c-.186-.023-.368-.039-.541-.05l-.546.762.33-.772c-.771-.033-1.334.029-1.334.029l.19.164zm1.117 7.623c.104.471.419.604.449.781 0 0 .818-.169 1.362-.977-1.058.532-1.811.196-1.811.196m8.456-2.857c-1.483 0-1.462 3.15-6.69 5.818 4.452-.643 7.813-3.671 7.813-4.914.001-.461-.763-.904-1.123-.904"/></g><path d="m23.763 8.014-.642-1.571c-.027-.067-.078-.12-.143-.152l-1.239-.598-.382-.294-.557-.69-.183-.823c-.018-.08-.069-.149-.14-.189l-.871-.496-.548-.55c-.026-.026-.056-.047-.09-.061l-3.409-1.483c-.055-.024-.115-.03-.173-.019l-4.646.928c-1.265-.099-2.374.06-2.421.067-.285.047-.286.355-.187.454l-6.955 1.389c-.069.014-.131.053-.174.109l-.736.968c-.131.172-.032.435.194.464.051.007 5.081.695 5.081 3.746 0 1.124-.771 2.228-.779 2.239-.112.158-.044.412.186.454l2.841.513c.215.172.938.68 1.99.68 1.246 0 1.598-.471 1.679-.857.617-.263 1.394-.886 1.394-1.388 0-.313-.281-.523-.545-.523-.03 0-.057.011-.086.015 0 0-.133-.245-.453-.245-.137 0-.286.069-.403.118.285-.327.756-.717 1.509-.967 1.161-.385 2.675-.711 3.433-.864-1.152 3.349-5.099 5.109-5.141 5.126-.235.102-.193.4-.096.462l-.432.193c-.307.135-.176.582.142.555 4.166-.354 7.229-1.812 9.362-4.449h.858c.05 0 .098-.013.142-.036.839-.469 1.403-.45 1.408-.45.116.005.225-.058.276-.162.416-.846.864-1.294.868-1.298.064-.06.124-.177.068-.315m-1.194 1.486s-.627-.038-1.566.485h-.787l-.144-.078c-2.125 2.742-5.153 4.174-9.314 4.528 0 0 1.412-.621 2.177-1.025l-1.651.372s4.473-1.941 5.451-5.773c0 0-2.307.424-3.95.968-1.626.538-2.069 1.719-2.069 1.719.579-.054.878-.304 1.055-.304.21 0 .29.218.235.341.097-.042.216-.112.304-.112.106 0 .254.09.254.232 0 .354-.789.995-1.372 1.183 0 .216-.085.772-1.411.772-1.139 0-1.864-.662-1.864-.662l-2.916-.526s.833-1.173.833-2.407c0-3.346-5.334-4.035-5.334-4.035l.736-.967 7.521-1.502-.396-.339s1.134-.166 2.399-.062l4.683-.935 3.41 1.483.575.578.905.514.198.89.621.77.433.333 1.266.612.642 1.571c.001 0-.478.468-.924 1.376" fill="#ffb81c"/><path d="m21.638 6.846s-.445-.203-1.013-.358c-.883.127-1.554-.244-1.554-.244-.732 0-1.232.117-1.661.331 4.721.415 5.313 1.462 5.001 2.622.036-.003.055-.003.055-.003s.319-.596.69-1.028c0 0-.481-1.008-2.167-1.092zm-14.558-1.251c-.341.08-.656.161-.94.238-.195.294-.362.644-.466 1.055.452.478.788 1.026.94 1.625.045-.05.106-.112.178-.181-.069-.271-.118-.588-.118-.943 0-.663.191-1.294.406-1.794m10.523-.384c-1-.181-1.983-.286-2.935-.334.188.667.656 1.031.656 1.031l-.552.607c.997-.019 2.039.023 2.039.023l-.395.742 1.028-1.131zm-6.845 1.013-.506.118.585-1.369c-.891.087-1.719.211-2.465.351-.704.552-1.36 1.458-1.36 2.806 0 .675.224 1.228.224 1.228-.183-.782.245-1.548.245-1.548s.985-.629 2.572-.925c.111-.133.274-.226.508-.287 1.14-.296 2.305-.939 2.92-1.752-.569-.001-1.123.016-1.659.049-.747.564-1.064 1.329-1.064 1.329m-5.481.286c.025-.158.058-.31.096-.455-.183.056-.343.108-.479.153.133.096.261.197.383.302m13.628-1.407c.135 0 .235-.064.235-.064-.009-.048-.02-.093-.031-.137-.033.021-.08.041-.136.041-.146 0-.237-.112-.237-.236 0-.105.072-.201.175-.227-.129-.183-.259-.26-.259-.26s-.224.127-.224.405c0 .279.234.478.477.478" fill="#ffb81c"/><path d="m5.833 9.213c0 1.234-.833 2.407-.833 2.407l2.916.526s.725.662 1.864.662c1.325 0 1.411-.556 1.411-.772.583-.188 1.372-.829 1.372-1.183 0-.142-.148-.232-.254-.232-.088 0-.207.07-.304.112.055-.124-.024-.341-.235-.341-.177 0-.475.25-1.055.304 0 0 .443-1.181 2.069-1.719 1.643-.544 3.95-.968 3.95-.968-.977 3.832-5.451 5.773-5.451 5.773l1.651-.371c-.765.404-2.177 1.025-2.177 1.025 4.161-.354 7.189-1.786 9.314-4.528l.144.078h.787c.939-.524 1.566-.485 1.566-.485.446-.908.925-1.376.925-1.376l-.642-1.571-1.266-.611-.433-.335-.621-.77-.198-.89-.905-.514-.575-.578-3.41-1.483-4.683.935c-1.265-.104-2.399.062-2.399.062l.394.339-7.521 1.502-.735.968s5.334.688 5.334 4.034m6.477 1.661c-.544.809-1.362.977-1.362.977-.03-.176-.345-.309-.449-.78 0 0 .753.336 1.811-.197m-.045 3.158c5.227-2.668 5.207-5.818 6.69-5.818.36 0 1.124.443 1.124.904 0 1.243-3.362 4.271-7.814 4.914m-1.949-11.498-.33.773.546-.761c.173.011.355.027.541.05l-.442 1.032.714-.995c.152.023.305.052.459.085l-.526 1.23.828-1.157c.422.114.837.274 1.204.497l-.991.152-.726.759-.883.061c-.851 0-1.328-.812-1.328-.812l-.21-.72-.19-.164s.563-.062 1.334-.03m-8.876 2.384 7.606-1.702.1.34s.591 1.115 1.901.923l-.211.495-.585 1.369.506-.118s.317-.766 1.064-1.329c.409-.308.946-.557 1.631-.585.319-.627.074-1.19.074-1.19s-.637-.402-1.407-.587l3.268-.725 3.321 1.342.593.555.863.419.137.714.145.223-.207.352.36-.158.093.107-.267.405.427-.22.121.137-.196.295.316-.168.331.274s-.884.402-1.848-.327c0 0-.329.238-.76.238-.89 0-1.213-.784-1.213-.784l-.16.939-1.028 1.131c.342-.292.645-.53.995-.705.429-.214.929-.332 1.661-.332 0 0 .672.371 1.554.244.299-.043.622-.143.951-.333l1.176.552c-.344.625-1.115.138-1.115.138l-.65.229c1.687.084 2.167 1.091 2.167 1.091-.371.432-.69 1.028-.69 1.028s-.019 0-.055.003c-.186.014-.823.091-1.543.496l-.156.007s.107-2.136-3.128-2.136c-1.14 0-3.408.57-4.892 1.059-1.27.419-2.454 1.397-2.454 2.339 0 .58.492.853.492 1.053 0 .265-.546.311-.962.311-1.315 0-1.928-.891-1.928-.891l-1.62-.329s.484-.728.484-1.886c0-.243-.031-.479-.089-.708-.151-.599-.487-1.147-.939-1.625.104-.412.271-.761.466-1.055.627-.946 1.539-1.315 1.539-1.315s-.32.43-.599 1.077c-.215.5-.406 1.131-.406 1.794 0 .356.049.673.118.943.165.646.444 1.025.444 1.025s-.224-.552-.224-1.227c0-1.347.656-2.254 1.36-2.806.495-.388 1.014-.601 1.345-.668l.013-.133c-.713-.431-.878-.968-.878-.968l-4.179.935s-.487.509-.684 1.166c-.824-.42-1.728-.681-2.549-.738m2.991.983c.099-.214.605-1.188 1.799-1.634 0 0-.576.713-.857 1.788-.038.145-.071.297-.096.455-.122-.105-.251-.206-.383-.302-.149-.108-.304-.211-.463-.307" fill="#041e42"/><path d="m19.52 5.127c-.012-.293.035-.832-1.051-1.167l-1.297-.4s1.002.896 1.002 1.1c0 .355.288.643.643.643.125 0 .242-.036.341-.097l.024.263c.455.035.985-.035 1.12-.629-.187.426-.599.367-.782.287m-.615-.024c-.243 0-.477-.199-.477-.478 0-.278.226-.405.226-.405s.129.077.259.26c-.103.027-.175.122-.175.227 0 .124.09.236.237.236.056 0 .103-.021.136-.041.012.043.023.089.031.137-.001 0-.101.064-.237.064" fill="#041e42"/><path d="m19.796 5.044.162-.624-1.268-.606c.827.486 1.106.757 1.106 1.23m-11.872 5.733c.038-1.038 1.108-2.517 2.876-2.199 0 0 .251-.502.808-.917-.135-.305-.159-.661-.071-1.041.007.372.101.683.255.917.158-.097.325-.18.5-.246-.051-.38.05-.777.296-1.152-.139.403-.149.774-.058 1.075.175-.048.356-.081.541-.095.053-.452.308-.86.73-1.178-.319.396-.461.808-.445 1.17.266.006.522.047.765.121l.651-.716.552-.607s-.468-.364-.656-1.031c-.047-.167-.077-.352-.077-.556 0-1.434 1.323-1.942 1.323-1.942l-.56-.275-1.8.399s.372.425.372 1.152c0 .421-.166.824-.444 1.191-.615.813-1.78 1.456-2.92 1.751-.234.061-.397.154-.508.287-.047.055-.086.116-.116.187l-.473 1.105c-1.423.606-1.653 1.88-1.541 2.6m7.923 3.437c.16 0 .285.124.285.28 0 .159-.124.281-.286.281-.16 0-.288-.123-.288-.281 0-.155.128-.28.288-.28zm-.004.056c-.123 0-.215.101-.215.223 0 .124.092.223.218.223.123.002.213-.099.213-.223 0-.123-.09-.223-.215-.223zm-.042.368h-.065v-.278c.026-.005.061-.01.107-.01.053 0 .077.009.097.022.015.012.027.034.027.06 0 .032-.024.056-.058.066v.003c.027.009.043.031.051.068.009.043.014.06.02.068h-.07c-.009-.01-.014-.034-.022-.067-.005-.031-.022-.044-.058-.044h-.031v.112zm.001-.156h.031c.036 0 .065-.012.065-.041 0-.026-.019-.043-.06-.043-.017 0-.029.002-.036.003z" fill="#041e42"/></svg>