<svg xmlns="http://www.w3.org/2000/svg" viewBox="0 0 24 16"><path d="M0.434 5.672c0.049 0.006 4.9 0.683 4.9 3.541 0 1.048-0.734 2.11-0.741 2.12 -0.19 0.27-0.073 0.706 0.319 0.777 0 0 2.699 0.487 2.793 0.504 0.301 0.232 1.03 0.692 2.075 0.692 1.279 0 1.72-0.478 1.855-0.92 0.622-0.291 1.425-0.921 1.425-1.533 0-0.436-0.386-0.728-0.748-0.73 -0.072-0.076-0.175-0.152-0.311-0.195 0.273-0.198 0.583-0.362 0.939-0.48 0.982-0.326 2.214-0.608 3.039-0.781 -1.266 3.039-4.857 4.64-4.894 4.657 -0.367 0.161-0.289 0.548-0.289 0.548l-0.241 0.108c-0.513 0.23-0.318 0.999 0.244 0.951 4.182-0.356 7.27-1.812 9.44-4.448h0.763c0.084 0 0.167-0.021 0.241-0.062 0.775-0.433 1.297-0.424 1.302-0.424 0.197 0.009 0.382-0.1 0.469-0.277 0.396-0.806 0.824-1.237 0.828-1.242 0.156-0.156 0.185-0.363 0.112-0.543l-0.642-1.572c-0.046-0.114-0.133-0.206-0.244-0.26l-1.22-0.589L21.503 5.249l-0.511-0.633 -0.173-0.776c-0.03-0.137-0.118-0.255-0.24-0.325l-0.846-0.481 -0.528-0.53c-0.044-0.045-0.096-0.08-0.154-0.105l-3.409-1.483c-0.094-0.041-0.196-0.052-0.296-0.032l-4.621 0.923c-1.231-0.092-2.313 0.053-2.434 0.07C7.912 1.94 7.849 2.283 7.868 2.378 7.449 2.462 1.137 3.723 1.137 3.723c-0.119 0.024-0.225 0.09-0.299 0.187 0 0-0.736 0.968-0.736 0.968C-0.135 5.188 0.066 5.624 0.434 5.672M0.267 5.003L1.003 4.035c0.043-0.056 0.105-0.095 0.174-0.109l6.954-1.389C8.033 2.438 8.034 2.13 8.319 2.083c0.047-0.007 1.155-0.165 2.421-0.067l4.646-0.928c0.058-0.011 0.118-0.005 0.173 0.019l3.409 1.483c0.034 0.015 0.064 0.035 0.09 0.061l0.548 0.55 0.871 0.495c0.071 0.041 0.122 0.109 0.14 0.19l0.183 0.823 0.557 0.69 0.382 0.294 1.239 0.599c0.065 0.031 0.115 0.085 0.143 0.152l0.642 1.571c0.057 0.139-0.003 0.255-0.065 0.317 -0.004 0.004-0.452 0.452-0.868 1.298 -0.051 0.103-0.161 0.167-0.276 0.162 -0.005 0-0.569-0.019-1.408 0.449 -0.043 0.024-0.092 0.037-0.142 0.037h-0.858c-2.133 2.636-5.197 4.094-9.362 4.449 -0.318 0.027-0.449-0.42-0.142-0.555l0.432-0.193c-0.097-0.062-0.139-0.359 0.096-0.461 0.042-0.018 3.988-1.777 5.141-5.127 -0.758 0.153-2.272 0.479-3.433 0.864 -0.753 0.249-1.224 0.639-1.509 0.967 0.116-0.049 0.265-0.118 0.403-0.118 0.321 0 0.453 0.245 0.453 0.245 0.029-0.005 0.056-0.015 0.085-0.015 0.263 0 0.545 0.21 0.545 0.523 0 0.502-0.777 1.125-1.394 1.388 -0.081 0.386-0.433 0.857-1.679 0.857 -1.052 0-1.775-0.508-1.99-0.68l-2.841-0.513c-0.229-0.041-0.297-0.296-0.186-0.454 0.008-0.011 0.779-1.116 0.779-2.239 0-3.051-5.03-3.74-5.081-3.747C0.235 5.437 0.137 5.175 0.267 5.003" fill="#FFF"/><path d="M7.679 4.518c0 0-.912.37-1.539 1.315.284-.077.599-.158.94-.238C7.359 4.947 7.679 4.518 7.679 4.518M21.638 6.846c0 0 .77.488 1.115-.138l-1.177-.554c-.329.191-.652.29-.951.333C21.193 6.644 21.638 6.846 21.638 6.846" fill="#FFF"/><path d="M4.673 4.49l4.178-.935c0 0 .165.537.878.968L9.717 4.655C9.386 4.722 8.867 4.935 8.372 5.323 9.118 5.184 9.946 5.06 10.837 4.974l.211-.495C9.737 4.671 9.147 3.556 9.147 3.556L9.046 3.216 1.44 4.918c.821.057 1.725.318 2.55.738C4.186 5 4.673 4.49 4.673 4.49M17.41 6.576c-.349.175-.652.413-.995.705l.395-.742c0 0-1.041-.042-2.038-.023l-.651.716c-.243-.073-.499-.115-.765-.121-.015-.362.127-.775.445-1.17-.422.318-.677.726-.73 1.178-.185.014-.366.047-.541.095-.091-.301-.081-.672.058-1.075-.246.375-.347.772-.296 1.152-.175.066-.342.149-.5.246-.154-.234-.248-.546-.255-.917-.089.381-.064.736.071 1.042-.557.415-.808.917-.808.917-1.768-.319-2.838 1.161-2.876 2.199-.112-.72.118-1.994 1.542-2.601l.473-1.105c.03-.07.068-.132.115-.188C8.465 7.181 7.481 7.81 7.481 7.81s-.428.766-.245 1.548c0 0-.279-.379-.444-1.026C6.72 8.401 6.659 8.463 6.614 8.513c.058.229.089.465.089.708 0 1.158-.484 1.886-.484 1.886l1.62.329c0 0 .612.891 1.927.891.416 0 .962-.046.962-.311 0-.2-.492-.473-.492-1.053 0-.942 1.184-1.92 2.454-2.339 1.484-.489 3.752-1.058 4.892-1.058 3.235 0 3.128 2.136 3.128 2.136l.157-.007c.72-.405 1.358-.482 1.543-.496C22.723 8.038 22.131 6.991 17.41 6.576M13.453 4.31c-.685.029-1.222.277-1.631.585.536-.033 1.09-.05 1.659-.049.278-.368.444-.77.444-1.191 0-.726-.372-1.152-.372-1.152l1.8-.399.56.275c0 0-1.323.508-1.323 1.942 0 .204.03.389.077.556.952.048 1.935.153 2.935.334 0 0 .323.784 1.213.784.431 0 .76-.239.76-.239.965.729 1.848.327 1.848.327l-.331-.275L20.777 5.977l.196-.295L20.852 5.545 20.426 5.765l.267-.405L20.6 5.253l-.36.158L20.447 5.06l-.145-.223c-.135.594-.665.665-1.12.629l-.024-.263c-.099.062-.215.098-.341.098-.355 0-.643-.288-.643-.643 0-.203-1.002-1.1-1.002-1.1l1.297.4c1.087.336 1.039.875 1.051 1.167.183.081.595.14.781-.289l-.137-.714-.863-.419-.593-.555-3.32-1.342-3.268.725c.77.185 1.407.587 1.407.587S13.772 3.683 13.453 4.31M19.958 4.419L19.796 5.044c0-.473-.28-.744-1.107-1.231L19.958 4.419z" fill="#FFF"/><path d="M4.431 5.901C4.59 5.997 4.745 6.1 4.894 6.208 5.03 6.163 5.19 6.111 5.373 6.055c.281-1.075.857-1.788.857-1.788C5.036 4.713 4.53 5.687 4.431 5.901M9.382 3.448c0 0 .477.812 1.328.812l.883-.061.726-.758.991-.152c-.367-.223-.782-.383-1.204-.497l-.828 1.157.526-1.23c-.154-.034-.307-.062-.459-.085l-.714.995L11.073 2.595c-.186-.023-.368-.039-.541-.05L9.986 3.307l.33-.772C9.545 2.502 8.982 2.564 8.982 2.564l.19.164L9.382 3.448zM10.499 11.071c.104.471.419.604.449.781 0 0 .818-.169 1.362-.977C11.252 11.407 10.499 11.071 10.499 11.071M18.955 8.214c-1.483 0-1.462 3.15-6.69 5.818 4.452-.643 7.813-3.671 7.813-4.914C20.079 8.657 19.315 8.214 18.955 8.214" fill="#FFF"/><path d="M23.763 8.014l-0.642-1.571c-0.027-0.067-0.078-0.12-0.143-0.152l-1.239-0.598L21.357 5.399l-0.557-0.69 -0.183-0.823c-0.018-0.08-0.069-0.149-0.14-0.189L19.606 3.201l-0.548-0.55c-0.026-0.026-0.056-0.047-0.09-0.061l-3.409-1.483c-0.055-0.024-0.115-0.03-0.173-0.019l-4.646 0.928C9.475 1.917 8.366 2.076 8.319 2.083 8.034 2.13 8.033 2.438 8.132 2.537L1.177 3.926C1.108 3.94 1.046 3.979 1.003 4.035l-0.736 0.968c-0.131 0.172-0.032 0.435 0.194 0.464C0.512 5.474 5.542 6.162 5.542 9.213c0 1.124-0.771 2.228-0.779 2.239 -0.112 0.158-0.044 0.412 0.186 0.454l2.841 0.513c0.215 0.172 0.938 0.68 1.99 0.68 1.246 0 1.598-0.471 1.679-0.857 0.617-0.263 1.394-0.886 1.394-1.388 0-0.313-0.281-0.523-0.545-0.523 -0.03 0-0.057 0.011-0.086 0.015 0 0-0.133-0.245-0.453-0.245 -0.137 0-0.286 0.069-0.403 0.118 0.285-0.327 0.756-0.717 1.509-0.967 1.161-0.385 2.675-0.711 3.433-0.864 -1.152 3.349-5.099 5.109-5.141 5.126 -0.235 0.102-0.193 0.4-0.096 0.462l-0.432 0.193c-0.307 0.135-0.176 0.582 0.142 0.555 4.166-0.354 7.229-1.812 9.362-4.449h0.858c0.05 0 0.098-0.013 0.142-0.036 0.839-0.469 1.403-0.45 1.408-0.45 0.116 0.005 0.225-0.058 0.276-0.162 0.416-0.846 0.864-1.294 0.868-1.298C23.759 8.269 23.819 8.152 23.763 8.014M22.569 9.5c0 0-0.627-0.038-1.566 0.485h-0.787l-0.144-0.078c-2.125 2.742-5.153 4.174-9.314 4.528 0 0 1.412-0.621 2.177-1.025l-1.651 0.372c0 0 4.473-1.941 5.451-5.773 0 0-2.307 0.424-3.95 0.968 -1.626 0.538-2.069 1.719-2.069 1.719 0.579-0.054 0.878-0.304 1.055-0.304 0.21 0 0.29 0.218 0.235 0.341 0.097-0.042 0.216-0.112 0.304-0.112 0.106 0 0.254 0.09 0.254 0.232 0 0.354-0.789 0.995-1.372 1.183 0 0.216-0.085 0.772-1.411 0.772 -1.139 0-1.864-0.662-1.864-0.662l-2.916-0.526c0 0 0.833-1.173 0.833-2.407 0-3.346-5.334-4.035-5.334-4.035l0.736-0.967 7.521-1.502L8.361 2.37c0 0 1.134-0.166 2.399-0.062l4.683-0.935 3.41 1.483 0.575 0.578 0.905 0.514 0.198 0.89 0.621 0.77 0.433 0.333 1.266 0.612 0.642 1.571C23.494 8.124 23.015 8.592 22.569 9.5" fill="#FFB81C"/><path d="M21.638 6.846c0 0-.445-.203-1.013-.358-.883.127-1.554-.244-1.554-.244-.732 0-1.232.117-1.661.331 4.721.415 5.313 1.462 5.001 2.622.036-.003.055-.003.055-.003s.319-.596.69-1.028c0 0-.481-1.008-2.167-1.092L21.638 6.846zM7.08 5.595c-.341.08-.656.161-.94.238C5.945 6.127 5.778 6.477 5.674 6.888c.452.478.788 1.026.94 1.625C6.659 8.463 6.72 8.401 6.792 8.332c-.069-.271-.118-.588-.118-.943C6.674 6.726 6.865 6.095 7.08 5.595M17.603 5.211c-1-.181-1.983-.286-2.935-.334.188.667.656 1.031.656 1.031l-.552.607c.997-.019 2.039.023 2.039.023l-.395.742 1.028-1.131L17.603 5.211zM10.758 6.224l-.506.118.585-1.369C9.946 5.06 9.118 5.184 8.372 5.324 7.668 5.876 7.012 6.782 7.012 8.13c0 .675.224 1.228.224 1.228C7.053 8.576 7.481 7.81 7.481 7.81s.985-.629 2.572-.925c.111-.133.274-.226.508-.287 1.14-.296 2.305-.939 2.92-1.752-.569-.001-1.123.016-1.659.049C11.075 5.459 10.758 6.224 10.758 6.224M5.277 6.51C5.302 6.352 5.335 6.2 5.373 6.055 5.19 6.111 5.03 6.163 4.894 6.208 5.027 6.304 5.155 6.405 5.277 6.51M18.905 5.103c.135 0 .235-.064.235-.064-.009-.048-.02-.093-.031-.137-.033.021-.08.041-.136.041-.146 0-.237-.112-.237-.236 0-.105.072-.201.175-.227-.129-.183-.259-.26-.259-.26S18.428 4.347 18.428 4.625C18.428 4.904 18.662 5.103 18.905 5.103" fill="#FFB81C"/><path d="M5.833 9.213c0 1.234-0.833 2.407-0.833 2.407l2.916 0.526c0 0 0.725 0.662 1.864 0.662 1.325 0 1.411-0.556 1.411-0.772 0.583-0.188 1.372-0.829 1.372-1.183 0-0.142-0.148-0.232-0.254-0.232 -0.088 0-0.207 0.07-0.304 0.112 0.055-0.124-0.024-0.341-0.235-0.341 -0.177 0-0.475 0.25-1.055 0.304 0 0 0.443-1.181 2.069-1.719 1.643-0.544 3.95-0.968 3.95-0.968 -0.977 3.832-5.451 5.773-5.451 5.773l1.651-0.371c-0.765 0.404-2.177 1.025-2.177 1.025 4.161-0.354 7.189-1.786 9.314-4.528l0.144 0.078h0.787c0.939-0.524 1.566-0.485 1.566-0.485 0.446-0.908 0.925-1.376 0.925-1.376l-0.642-1.571 -1.266-0.611L21.152 5.608l-0.621-0.77 -0.198-0.89L19.428 3.434 18.853 2.856l-3.41-1.483 -4.683 0.935C9.495 2.204 8.361 2.37 8.361 2.37l0.394 0.339L1.234 4.211 0.499 5.179C0.499 5.179 5.833 5.867 5.833 9.213M12.31 10.874c-0.544 0.809-1.362 0.977-1.362 0.977 -0.03-0.176-0.345-0.309-0.449-0.78C10.499 11.071 11.252 11.407 12.31 10.874M12.265 14.032c5.227-2.668 5.207-5.818 6.69-5.818 0.36 0 1.124 0.443 1.124 0.904C20.079 10.361 16.717 13.389 12.265 14.032M10.316 2.534L9.986 3.307l0.546-0.761c0.173 0.011 0.355 0.027 0.541 0.05l-0.442 1.032 0.714-0.995c0.152 0.023 0.305 0.052 0.459 0.085l-0.526 1.23 0.828-1.157c0.422 0.114 0.837 0.274 1.204 0.497l-0.991 0.152L11.593 4.199l-0.883 0.061c-0.851 0-1.328-0.812-1.328-0.812L9.172 2.728 8.982 2.564C8.982 2.564 9.545 2.502 10.316 2.534M1.44 4.918l7.606-1.702 0.1 0.34c0 0 0.591 1.115 1.901 0.923l-0.211 0.495 -0.585 1.369 0.506-0.118c0 0 0.317-0.766 1.064-1.329 0.409-0.308 0.946-0.557 1.631-0.585 0.319-0.627 0.074-1.19 0.074-1.19s-0.637-0.402-1.407-0.587l3.268-0.725 3.321 1.342 0.593 0.555 0.863 0.419 0.137 0.714 0.145 0.223 -0.207 0.352 0.36-0.158 0.093 0.107 -0.267 0.405 0.427-0.22 0.121 0.137 -0.196 0.295 0.316-0.168 0.331 0.274c0 0-0.884 0.402-1.848-0.327 0 0-0.329 0.238-0.76 0.238 -0.89 0-1.213-0.784-1.213-0.784l-0.16 0.939 -1.028 1.131c0.342-0.292 0.645-0.53 0.995-0.705 0.429-0.214 0.929-0.332 1.661-0.332 0 0 0.672 0.371 1.554 0.244 0.299-0.043 0.622-0.143 0.951-0.333L22.752 6.709c-0.344 0.625-1.115 0.138-1.115 0.138l-0.65 0.229c1.687 0.084 2.167 1.091 2.167 1.091 -0.371 0.432-0.69 1.028-0.69 1.028s-0.019 0-0.055 0.003c-0.186 0.014-0.823 0.091-1.543 0.496L20.71 9.701c0 0 0.107-2.136-3.128-2.136 -1.14 0-3.408 0.57-4.892 1.059 -1.27 0.419-2.454 1.397-2.454 2.339 0 0.58 0.492 0.853 0.492 1.053 0 0.265-0.546 0.311-0.962 0.311 -1.315 0-1.928-0.891-1.928-0.891l-1.62-0.329c0 0 0.484-0.728 0.484-1.886 0-0.243-0.031-0.479-0.089-0.708C6.462 7.914 6.126 7.366 5.674 6.888c0.104-0.412 0.271-0.761 0.466-1.055 0.627-0.946 1.539-1.315 1.539-1.315s-0.32 0.43-0.599 1.077C6.865 6.095 6.674 6.726 6.674 7.389c0 0.356 0.049 0.673 0.118 0.943 0.165 0.646 0.444 1.025 0.444 1.025S7.012 8.805 7.012 8.13c0-1.347 0.656-2.254 1.36-2.806 0.495-0.388 1.014-0.601 1.345-0.668L9.73 4.523C9.017 4.092 8.852 3.555 8.852 3.555L4.673 4.49c0 0-0.487 0.509-0.684 1.166C3.165 5.236 2.261 4.975 1.44 4.918M4.431 5.901c0.099-0.214 0.605-1.188 1.799-1.634 0 0-0.576 0.713-0.857 1.788C5.335 6.2 5.302 6.352 5.277 6.51c-0.122-0.105-0.251-0.206-0.383-0.302C4.745 6.1 4.59 5.997 4.431 5.901" fill="#041E42"/><path d="M19.52 5.127c-0.012-0.293 0.035-0.832-1.051-1.167l-1.297-0.4c0 0 1.002 0.896 1.002 1.1 0 0.355 0.288 0.643 0.643 0.643 0.125 0 0.242-0.036 0.341-0.097l0.024 0.263c0.455 0.035 0.985-0.035 1.12-0.629C20.115 5.266 19.703 5.207 19.52 5.127M18.905 5.103c-0.243 0-0.477-0.199-0.477-0.478 0-0.278 0.226-0.405 0.226-0.405s0.129 0.077 0.259 0.26c-0.103 0.027-0.175 0.122-0.175 0.227 0 0.124 0.09 0.236 0.237 0.236 0.056 0 0.103-0.021 0.136-0.041 0.012 0.043 0.023 0.089 0.031 0.137C19.141 5.039 19.041 5.103 18.905 5.103" fill="#041E42"/><path d="M19.796 5.044l.162-.624-1.268-.606C19.517 4.3 19.796 4.571 19.796 5.044M7.924 10.777c.038-1.038 1.108-2.517 2.876-2.199 0 0 .251-.502.808-.917-.135-.305-.159-.661-.071-1.041.007.372.101.683.255.917.158-.097.325-.18.5-.246-.051-.38.05-.777.296-1.152-.139.403-.149.774-.058 1.075.175-.048.356-.081.541-.095.053-.452.308-.86.73-1.178-.319.396-.461.808-.445 1.17.266.006.522.047.765.121l.651-.716.552-.607c0 0-.468-.364-.656-1.031-.047-.167-.077-.352-.077-.556 0-1.434 1.323-1.942 1.323-1.942l-.56-.275-1.8.399c0 0 .372.425.372 1.152 0 .421-.166.824-.444 1.191-.615.813-1.78 1.456-2.92 1.751-.234.061-.397.154-.508.287C10.007 6.94 9.968 7.001 9.938 7.072l-.473 1.105C8.042 8.783 7.812 10.057 7.924 10.777M15.847 14.214c.16 0 .285.124.285.28 0 .159-.124.281-.286.281-.16 0-.288-.123-.288-.281 0-.155.128-.28.288-.28H15.847zM15.843 14.27c-.123 0-.215.101-.215.223 0 .124.092.223.218.223.123.002.213-.099.213-.223 0-.123-.09-.223-.215-.223H15.843zM15.801 14.638h-.065v-.278c.026-.005.061-.01.107-.01.053 0 .077.009.097.022.015.012.027.034.027.06 0 .032-.024.056-.058.066v.003c.027.009.043.031.051.068.009.043.014.06.02.068h-.07c-.009-.01-.014-.034-.022-.067-.005-.031-.022-.044-.058-.044h-.031V14.638zM15.802 14.482h.031c.036 0 .065-.012.065-.041 0-.026-.019-.043-.06-.043-.017 0-.029.002-.036.003V14.482z" fill="#041E42"/></svg>