<svg xmlns="http://www.w3.org/2000/svg" viewBox="0 0 24 16"><path d="M17.465,12.688c-0.177,0-0.32,0.144-0.32,0.32c0,0.176,0.144,0.319,0.32,0.319 c0.176,0,0.319-0.144,0.319-0.319C17.784,12.832,17.641,12.688,17.465,12.688z M17.465,13.26c-0.14,0-0.251-0.112-0.251-0.251 c0-0.14,0.111-0.251,0.251-0.251c0.139,0,0.25,0.111,0.25,0.251C17.715,13.147,17.604,13.26,17.465,13.26z"/><path d="M17.596 12.935c0-.06-.048-.108-.108-.108h-.154v.364h.068v-.147h.05l.068.147h.076l-.072-.154C17.565 13.021 17.596 12.981 17.596 12.935zM17.487 12.975h-.086v-.08h.086c.022 0 .04.018.04.04C17.527 12.956 17.51 12.975 17.487 12.975zM19.537 2.215c0-1.375-1.262-1.977-2.532-1.929 0 0 .524.506.524.881 0 .199-.148.413-.566.413h-1.879c-.423 0-.675-.145-.675-.389 0-.399.627-.865.627-.865s-1.271.077-2.123.744c-.258-.03-.519-.047-.783-.047C8.456 1.022 5.479 4 5.479 7.674c0 1.266.354 2.449.968 3.456-.1.053-.2.088-.34.088-.466 0-.469-1.032-.469-1.032s-1.175 1.369-1.175 3.199c0 1.127.476 2.096.476 2.096s1.318-1.588 3.97-1.588c0 0-1.258-.505-1.258-1.115 0 0 .006-.064.048-.145 1.177 1.052 2.729 1.692 4.432 1.692 3.673 0 6.65-2.979 6.65-6.651 0-1.318-.384-2.545-1.045-3.579C18.377 3.993 19.537 3.554 19.537 2.215z"/><path fill="#CE1126" d="M17.57,0.58c0,0,0.245,0.23,0.245,0.587c0,0.357-0.278,0.699-0.853,0.699h-1.879 c-0.73,0-0.96-0.374-0.96-0.675c0-0.302,0.17-0.463,0.17-0.463s-1.846,0.36-1.846,1.86c0,1.262,1.411,1.258,1.411,1.258h0.412 L13.119,6.89L11.37,4.674c-0.108-0.137-0.534-0.673-1.168-0.673c-0.881,0-1.265,0.989-1.396,1.334l-1.858,4.913 c0,0,0.688-0.251,1.599-0.251c0.769,0,1.415,0.155,1.415,0.155l0.861-2.277l1.094,1.984l-0.774,0.811 c-0.509,0.532-1.572,0.237-2.596,0.237c-1.911,0-1.727,0.596-2.44,0.596c-0.507,0-0.638-0.614-0.638-0.614 s-0.721,1.193-0.721,2.496c0,0.846,0.298,1.589,0.298,1.589s1.488-1.268,2.989-1.268c0,0-0.67-0.321-0.67-0.929 c0-0.173,0.229-0.727,0.968-0.727c1.143,0,1.619,0.679,3,0.679c1.934,0,3.007-1.197,3.385-2.195l2.53-6.688 c0,0,2.004,0.004,2.004-1.631C19.252,0.714,17.57,0.58,17.57,0.58z"/><g fill="#FFF"><path d="M10.202 3.715c.354 0 .882.136 1.393.782l1.436 1.819.827-2.185c0 0-1.694-.015-1.694-1.544 0-.333.073-.618.196-.861-.076-.002-.152-.005-.229-.005-3.287 0-5.952 2.665-5.952 5.952 0 .865.187 1.688.52 2.43l1.843-4.87C8.921 4.226 9.48 3.715 10.202 3.715zM14.984 10.635c-.436 1.151-1.623 2.381-3.651 2.381-1.38 0-1.916-.634-2.896-.677 1.015.805 2.297 1.286 3.693 1.286 3.286 0 5.951-2.664 5.951-5.951 0-1.107-.303-2.143-.829-3.03L14.984 10.635z"/><path d="M10.937,10.472l0.629-0.658l-0.693-1.259l-0.732,1.934c0,0-0.756-0.206-1.593-0.206 c-0.651,0-1.241,0.146-1.626,0.271c0.048,0.086,0.098,0.171,0.15,0.255c0.3-0.104,0.744-0.187,1.476-0.187 C9.601,10.622,10.554,10.872,10.937,10.472z"/></g></svg>