<svg viewBox="0 0 24 16" xmlns="http://www.w3.org/2000/svg"><path d="m17.465 12.688c-.177 0-.32.144-.32.32s.144.319.32.319.319-.144.319-.319c0-.176-.143-.32-.319-.32zm0 .572c-.14 0-.251-.112-.251-.251 0-.14.111-.251.251-.251.139 0 .25.111.25.251 0 .138-.111.251-.25.251z"/><path d="m17.596 12.935c0-.06-.048-.108-.108-.108h-.154v.364h.068v-.147h.05l.068.147h.076l-.072-.154c.041-.016.072-.056.072-.102zm-.109.04h-.086v-.08h.086c.022 0 .04.018.04.04 0 .021-.017.04-.04.04zm2.05-10.76c0-1.375-1.262-1.977-2.532-1.929 0 0 .524.506.524.881 0 .199-.148.413-.566.413h-1.879c-.423 0-.675-.145-.675-.389 0-.399.627-.865.627-.865s-1.271.077-2.123.744c-.258-.03-.519-.047-.783-.047-3.674-.001-6.651 2.977-6.651 6.651 0 1.266.354 2.449.968 3.456-.1.053-.2.088-.34.088-.466 0-.469-1.032-.469-1.032s-1.175 1.369-1.175 3.199c0 1.127.476 2.096.476 2.096s1.318-1.588 3.97-1.588c0 0-1.258-.505-1.258-1.115 0 0 .006-.064.048-.145 1.177 1.052 2.729 1.692 4.432 1.692 3.673 0 6.65-2.979 6.65-6.651 0-1.318-.384-2.545-1.045-3.579.641-.102 1.801-.541 1.801-1.88z"/><path d="m17.57.58s.245.23.245.587-.278.699-.853.699h-1.879c-.73 0-.96-.374-.96-.675 0-.302.17-.463.17-.463s-1.846.36-1.846 1.86c0 1.262 1.411 1.258 1.411 1.258h.412l-1.151 3.044-1.749-2.216c-.108-.137-.534-.673-1.168-.673-.881 0-1.265.989-1.396 1.334l-1.858 4.913s.688-.251 1.599-.251c.769 0 1.415.155 1.415.155l.861-2.277 1.094 1.984-.774.811c-.509.532-1.572.237-2.596.237-1.911 0-1.727.596-2.44.596-.507 0-.638-.614-.638-.614s-.721 1.193-.721 2.496c0 .846.298 1.589.298 1.589s1.488-1.268 2.989-1.268c0 0-.67-.321-.67-.929 0-.173.229-.727.968-.727 1.143 0 1.619.679 3 .679 1.934 0 3.007-1.197 3.385-2.195l2.53-6.688s2.004.004 2.004-1.631c0-1.501-1.682-1.635-1.682-1.635z" fill="#ce1126"/><g fill="#fff"><path d="m10.202 3.715c.354 0 .882.136 1.393.782l1.436 1.819.827-2.185s-1.694-.015-1.694-1.544c0-.333.073-.618.196-.861-.076-.002-.152-.005-.229-.005-3.287 0-5.952 2.665-5.952 5.952 0 .865.187 1.688.52 2.43l1.843-4.87c.379-1.007.938-1.518 1.66-1.518zm4.782 6.92c-.436 1.151-1.623 2.381-3.651 2.381-1.38 0-1.916-.634-2.896-.677 1.015.805 2.297 1.286 3.693 1.286 3.286 0 5.951-2.664 5.951-5.951 0-1.107-.303-2.143-.829-3.03z"/><path d="m10.937 10.472.629-.658-.693-1.259-.732 1.934s-.756-.206-1.593-.206c-.651 0-1.241.146-1.626.271.048.086.098.171.15.255.3-.104.744-.187 1.476-.187 1.053 0 2.006.25 2.389-.15z"/></g></svg>