<?xml version="1.0" encoding="utf-8"?>
<!-- Generator: Adobe Illustrator 20.1.0, SVG Export Plug-In . SVG Version: 6.00 Build 0)  -->
<svg version="1.1" id="Layer_1" xmlns="http://www.w3.org/2000/svg" xmlns:xlink="http://www.w3.org/1999/xlink" x="0px" y="0px"
	 viewBox="0 0 55 62" style="enable-background:new 0 0 55 62;" xml:space="preserve">
<style type="text/css">
	.st0{fill:#FFFFFF;}
	.st1{fill:#111111;}
	.st2{fill:#E4E5E6;}
	.st3{fill:url(#SVGID_1_);}
	.st4{fill:url(#SVGID_2_);}
	.st5{fill:url(#SVGID_3_);}
	.st6{fill:url(#SVGID_4_);}
	.st7{fill:url(#SVGID_5_);}
	.st8{fill:url(#SVGID_6_);}
	.st9{fill:url(#SVGID_7_);}
	.st10{fill:url(#SVGID_8_);}
</style>
<path class="st0" d="M3.2,37.5c0-5.6,2.6-7.8,3.2-13.1c-0.7,4.7-3.8,8.5-3.8,13.1c0,1.8,0.2,3.4,0.7,4.8c1.9,6.5,7.7,10.1,13.3,11.5
	C8.1,51.7,3.2,44.5,3.2,37.5z M52.8,37.5c0-2.9-0.8-5.2-1.7-7.4c-1.1-2.5-2.2-4.9-2.2-7.7c0,6.9,3.3,8.8,3.3,15.1
	c0,6.9-4.7,14.2-13.4,16.3C46.5,51.9,52.8,46.2,52.8,37.5z"/>
<path class="st1" d="M49.5,53.9c-1.2,0-2.1,0.9-2.1,2.1c0,1.2,0.9,2.1,2.1,2.1c1.2,0,2.1-0.9,2.1-2.1C51.7,54.8,50.8,53.9,49.5,53.9
	z M49.5,57.6c-0.9,0-1.7-0.7-1.7-1.7c0-0.9,0.7-1.7,1.7-1.7c0.9,0,1.7,0.7,1.7,1.7C51.2,56.9,50.5,57.6,49.5,57.6z"/>
<path class="st1" d="M50.5,55.5c0-0.4-0.3-0.7-0.7-0.7h-1v2.4h0.5v-1h0.3l0.5,1h0.5l-0.5-1C50.2,56.1,50.5,55.8,50.5,55.5z
	 M49.8,55.8h-0.6v-0.5h0.6c0.1,0,0.3,0.1,0.3,0.3C50,55.6,49.8,55.8,49.8,55.8z"/>
<path class="st2" d="M49.8,10.2c-1.8-0.5-3.1-1.9-3.8-4l-1.8-4.9l-0.9,3.2c1.7,7.6,8,8.2,8,8.2l2.5-1.2L49.8,10.2z M20.2,38L17,33
	l-3.6,2.7c0,0,1.3,0,1.3,1.4v9.5l2.6-1.9V38l2.9,4.5l2.7-2V28.6l-2.6,1.9V38z M30.6,27l-2.9,2.2v-4.4l-3.9,2.9c0,0,1.3,0,1.3,1.4
	v9.5l2.6-2v-4.3l2.9-2.2v4.3l2.5-1.9V20.8l-2.5,1.9C30.7,22.7,30.7,27,30.6,27z M38,25.9v-8.8L34.1,20c0,0,1.3,0,1.3,1.4v9.5
	l7.3-5.5c-0.2-1.9,0-3,0-3L38,25.9z"/>
<linearGradient id="SVGID_1_" gradientUnits="userSpaceOnUse" x1="13698.0342" y1="13229.3184" x2="13721.9141" y2="13229.3184" gradientTransform="matrix(0.2752 0 0 0.2752 -3768.7632 -3613.1587)">
	<stop  offset="0.11" style="stop-color:#FFFFFF"/>
	<stop  offset="0.24" style="stop-color:#DCDFE1"/>
	<stop  offset="0.44" style="stop-color:#A8AFB3"/>
	<stop  offset="0.54" style="stop-color:#949CA1"/>
</linearGradient>
<path class="st3" d="M4.8,22.5c0,6.7-3.3,8-3.3,15.1c0,2.1,0.4,4.1,1,6c0.2-0.4,0.5-0.8,0.9-1.1c-0.4-1.5-0.7-3.1-0.7-4.8
	c0-4.6,3.1-8.4,3.8-13.1c0.1-0.6,0.1-1.3,0.1-2c0-5.3-2.6-9.9-2.6-9.9l-2.5-1.2l1.7,3.9C4.1,17.3,4.8,19.7,4.8,22.5z"/>
<linearGradient id="SVGID_2_" gradientUnits="userSpaceOnUse" x1="51.05" y1="758.16" x2="51.05" y2="739.43" gradientTransform="matrix(1 0 0 1 0.35 -728)">
	<stop  offset="0" style="stop-color:#FFFFFF"/>
	<stop  offset="0.35" style="stop-color:#FFFFFF"/>
	<stop  offset="0.56" style="stop-color:#949CA1"/>
	<stop  offset="1" style="stop-color:#949CA1"/>
</linearGradient>
<path class="st4" d="M48.8,22.5c0,2.8,1.1,5.1,2.2,7.7h1.4c-0.8-2.1-1.7-4.2-1.7-7.6c0-2.7,0.7-5.2,1.5-7.1l1.7-3.9l-2.6,1
	C51.3,12.6,48.8,17.1,48.8,22.5z"/>
<linearGradient id="SVGID_3_" gradientUnits="userSpaceOnUse" x1="2.1" y1="779.5" x2="27.33" y2="779.5" gradientTransform="matrix(1 0 0 1 0.35 -728)">
	<stop  offset="0.15" style="stop-color:#FFFFFF"/>
	<stop  offset="0.21" style="stop-color:#FAFAFA"/>
	<stop  offset="0.29" style="stop-color:#EBECED"/>
	<stop  offset="0.37" style="stop-color:#D2D5D7"/>
	<stop  offset="0.45" style="stop-color:#AFB5B9"/>
	<stop  offset="0.51" style="stop-color:#949CA1"/>
</linearGradient>
<path class="st5" d="M25.6,55.9c-2.1-0.8-4.9-1-9-2.1c-5.6-1.4-11.4-5-13.3-11.5C3,42.6,2.7,43,2.4,43.4c2.2,6.2,7.8,10.6,13.7,12.2
	c3.8,1,5.6,1.1,8.5,1.9c0.4,0.4,3,3.2,3,3.2V58C27.6,58.1,26,56.2,25.6,55.9z"/>
<linearGradient id="SVGID_4_" gradientUnits="userSpaceOnUse" x1="42.318" y1="778.3181" x2="12.386" y2="735.556" gradientTransform="matrix(1 0 0 1 0.35 -728)">
	<stop  offset="0" style="stop-color:#949CA1"/>
	<stop  offset="1.000000e-02" style="stop-color:#99A1A6"/>
	<stop  offset="0.12" style="stop-color:#C2C6C8"/>
	<stop  offset="0.2" style="stop-color:#DBDDDE"/>
	<stop  offset="0.25" style="stop-color:#E4E5E6"/>
	<stop  offset="0.75" style="stop-color:#E4E5E6"/>
	<stop  offset="0.8" style="stop-color:#DCDEDF"/>
	<stop  offset="0.87" style="stop-color:#C7CACD"/>
	<stop  offset="0.97" style="stop-color:#A3AAAE"/>
	<stop  offset="1" style="stop-color:#949CA1"/>
</linearGradient>
<path class="st6" d="M17.1,52.1c4.6,1.2,7.6,1.3,9.6,2.3c0,0,0.7,0.7,1,1c0.3-0.3,1-1,1-1c2-1,5-1.1,9.6-2.3c5.8-1.5,12-6.5,12-14.5
	c0-5.7-3.3-7.8-3.3-15.1c0-4.9,1.8-8.7,1.8-8.7s-4.3-0.9-6.3-6.3c0,0-2.8,2.6-6.7,2.6c-4.9,0-8.1-3.4-8.1-3.4s-3.3,3.4-8.1,3.4
	c-3.9,0-6.7-2.6-6.7-2.6c-2,5.4-6.3,6.3-6.3,6.3s1.7,3.8,1.7,8.7c0,7.3-3.3,9.4-3.3,15.1C5.2,45.5,11.4,50.6,17.1,52.1z M48.2,37.5
	c0,6.8-5.4,11.2-10.4,12.5c-3.6,0.9-8,1.4-9.4,2.2c-0.3,0.2-0.7,0.6-0.7,0.6s-0.4-0.4-0.7-0.6c-1.3-0.8-5.8-1.2-9.4-2.2
	c-0.1,0-0.3-0.1-0.4-0.1l28.5-21.4C46.7,31.9,48.2,34.2,48.2,37.5z M46.2,15c-0.6,1.7-1.3,4.4-1.3,7.5c0,1.3,0.1,2.4,0.3,3.5
	L14.6,48.9c-3.8-2-7.2-5.7-7.3-10.9l35.1-26.4C43.5,13.3,45,14.3,46.2,15z M10.4,22.5c0-3.1-0.7-5.8-1.3-7.5c1.3-0.7,3-2,4.4-4.3
	c1.4,0.8,3.5,1.6,5.9,1.6c3.7,0,6.5-1.6,8.1-2.8c1.6,1.2,4.5,2.8,8.1,2.8c0.6,0,1.1,0,1.7-0.1L7.6,34.6
	C8.4,31.2,10.4,28.4,10.4,22.5z"/>
<linearGradient id="SVGID_5_" gradientUnits="userSpaceOnUse" x1="10.79" y1="732.8" x2="27.33" y2="732.8" gradientTransform="matrix(1 0 0 1 0.35 -728)">
	<stop  offset="0.25" style="stop-color:#FFFFFF"/>
	<stop  offset="0.34" style="stop-color:#FAFAFA"/>
	<stop  offset="0.45" style="stop-color:#EBECED"/>
	<stop  offset="0.57" style="stop-color:#D2D5D7"/>
	<stop  offset="0.7" style="stop-color:#AFB5B9"/>
	<stop  offset="0.79" style="stop-color:#949CA1"/>
</linearGradient>
<path class="st7" d="M19.5,8.3c4.9,0,8.1-4.2,8.1-4.2V1.5L25,4c-1.3,1.3-3.4,2.4-5.6,2.4c-1.6,0-3.1-0.7-4.4-1.8l-4-3.3l0.8,3.1
	C11.9,4.5,15.8,8.3,19.5,8.3z"/>
<linearGradient id="SVGID_6_" gradientUnits="userSpaceOnUse" x1="27.33" y1="773.35" x2="53.58" y2="773.35" gradientTransform="matrix(1 0 0 1 0.35 -728)">
	<stop  offset="0.2" style="stop-color:#FFFFFF"/>
	<stop  offset="0.33" style="stop-color:#FAFBFB"/>
	<stop  offset="0.47" style="stop-color:#EDEEEF"/>
	<stop  offset="0.63" style="stop-color:#D7DADC"/>
	<stop  offset="0.79" style="stop-color:#B8BDC1"/>
	<stop  offset="0.93" style="stop-color:#949CA1"/>
</linearGradient>
<path class="st8" d="M52.8,37.5c0,8.7-6.2,14.4-14,16.3c-4.1,1-6.9,1.3-9,2.1c-0.3,0.3-2,2.1-2,2.1v2.7c0,0,2.6-2.9,3-3.2
	c2.9-0.8,4.6-0.9,8.5-1.9C47,53.6,54,46.8,54,37.4c0-3.4-0.8-5.4-1.5-7.4h-1.4C51.8,32.3,52.8,34.6,52.8,37.5z"/>
<linearGradient id="SVGID_7_" gradientUnits="userSpaceOnUse" x1="27.33" y1="732.8" x2="43.88" y2="732.8" gradientTransform="matrix(1 0 0 1 0.35 -728)">
	<stop  offset="0.25" style="stop-color:#FFFFFF"/>
	<stop  offset="0.34" style="stop-color:#FAFAFA"/>
	<stop  offset="0.45" style="stop-color:#EBECED"/>
	<stop  offset="0.57" style="stop-color:#D2D5D7"/>
	<stop  offset="0.7" style="stop-color:#AFB5B9"/>
	<stop  offset="0.79" style="stop-color:#949CA1"/>
</linearGradient>
<path class="st9" d="M35.8,8.3c3.8,0,7.6-3.9,7.6-3.9l0.8-3.1l-4,3.3c-1.3,1.1-2.8,1.8-4.4,1.8c-2.1,0-4.3-1.1-5.6-2.4l-2.6-2.5v2.6
	C27.6,4.2,31,8.3,35.8,8.3z"/>
<linearGradient id="SVGID_8_" gradientUnits="userSpaceOnUse" x1="1.1" y1="735.05" x2="11.6" y2="735.05" gradientTransform="matrix(1 0 0 1 0.35 -728)">
	<stop  offset="0.39" style="stop-color:#FFFFFF"/>
	<stop  offset="0.47" style="stop-color:#FAFAFA"/>
	<stop  offset="0.57" style="stop-color:#EBECED"/>
	<stop  offset="0.67" style="stop-color:#D2D5D7"/>
	<stop  offset="0.79" style="stop-color:#AFB5B9"/>
	<stop  offset="0.87" style="stop-color:#949CA1"/>
</linearGradient>
<path class="st10" d="M11.9,4.5l-0.8-3.1L9.4,6.3c-0.8,2.1-2.1,3.4-3.8,4l-4.1,1.2L4,12.7C4.1,12.6,10.2,12.1,11.9,4.5z"/>
<path class="st1" d="M7.6,34.6l29.9-22.5c-0.5,0.1-1.1,0.1-1.7,0.1c-3.7,0-6.5-1.6-8.1-2.8c-1.6,1.2-4.5,2.8-8.1,2.8
	c-2.4,0-4.5-0.8-5.9-1.6c-1.3,2.2-3,3.6-4.4,4.3c0.6,1.7,1.3,4.4,1.3,7.5C10.4,28.4,8.4,31.2,7.6,34.6z M17.2,49.9
	c0.1,0,0.3,0.1,0.4,0.1c3.6,0.9,8,1.4,9.4,2.2c0.3,0.2,0.7,0.6,0.7,0.6s0.4-0.4,0.7-0.6c1.3-0.8,5.8-1.2,9.4-2.2
	c5-1.3,10.4-5.7,10.4-12.5c0-3.4-1.5-5.6-2.5-9L17.2,49.9z"/>
<path class="st1" d="M4,22.5c0,6.4-3.3,7.9-3.3,15.1c0,10.3,8,17,15.4,18.9c3.7,0.9,4.9,1,8.2,1.8c0.3,0.3,3.4,3.7,3.4,3.7
	s3.2-3.4,3.4-3.7c3.4-0.8,4.5-0.9,8.2-1.8c7.4-1.9,15.4-8.6,15.4-18.9c0-7.1-3.3-8.6-3.3-15.1c0-2.3,0.5-4.6,1.5-6.8l2.1-4.8L50,9.4
	C48.5,9,47.5,7.8,46.8,6l-2.2-6l-4.9,4c-1.3,1.1-2.6,1.6-3.9,1.6c-1.7,0-3.7-0.8-5-2.1l-3.1-3.1l-3.1,3.1c-1.3,1.3-3.3,2.1-5,2.1
	c-1.3,0-2.6-0.5-3.9-1.6l-4.9-4L8.6,6C7.9,7.8,6.8,9,5.2,9.5l-4.9,1.4l2.1,4.8C3.5,17.9,4,20.2,4,22.5z M5.6,10.2
	c1.8-0.5,3.1-1.9,3.8-4l1.8-4.9l4,3.3c1.3,1.1,2.8,1.8,4.4,1.8c2.1,0,4.3-1.1,5.6-2.4l2.6-2.5L30.4,4c1.3,1.3,3.4,2.4,5.6,2.4
	c1.6,0,3.1-0.7,4.4-1.8l4-3.3l1.8,4.9c0.8,2.1,2.1,3.4,3.8,4l4.1,1.2l-1.7,3.9c-0.9,2-1.5,4.4-1.5,7.1c0,3.5,0.9,5.5,1.7,7.6
	c0.8,2,1.5,4,1.5,7.4c0,9.4-7,16.2-14.8,18.2c-3.8,1-5.6,1.1-8.5,1.9c-0.4,0.4-3,3.2-3,3.2s-2.6-2.9-3-3.2c-2.9-0.8-4.6-0.9-8.5-1.9
	c-6-1.5-11.5-5.9-13.7-12.2c-0.7-1.8-1-3.8-1-6c0-7,3.3-8.4,3.3-15.1c0-2.7-0.7-5.2-1.5-7.1l-1.7-3.9L5.6,10.2z"/>
<path class="st1" d="M14.6,48.9L45.2,26c-0.2-1-0.3-2.2-0.3-3.5c0-3.1,0.7-5.8,1.3-7.5c-1.2-0.6-2.6-1.7-3.8-3.4L7.2,38
	C7.3,43.1,10.8,46.9,14.6,48.9z M38,17.1v8.8l4.6-3.5c0,0-0.2,1.1,0,3l-7.3,5.5v-9.5c0-1.3-1.3-1.4-1.3-1.4L38,17.1z M27.8,24.8v4.4
	l2.9-2.2v-4.4l2.5-1.9v11.8l-2.5,1.9v-4.3l-2.9,2.2v4.3l-2.6,2v-9.5c0-1.3-1.3-1.4-1.3-1.4L27.8,24.8z M17,32.9l3.3,5v-7.5l2.6-1.9
	v11.8l-2.7,2l-2.9-4.5v6.7l-2.6,1.9v-9.5c0-1.3-1.3-1.4-1.3-1.4L17,32.9z"/>
<path class="st1" d="M6.4,24.4c-0.5,5.3-3.2,7.5-3.2,13.1c0,6.9,4.7,14.2,13.4,16.3c4.1,1,6.9,1.3,9,2.1c0.3,0.3,2,2.1,2,2.1
	s1.7-1.9,2-2.1c2.1-0.8,4.9-1,9-2.1C47.2,51.6,52,44.4,52,37.5c0-6.3-3.3-8.2-3.3-15.1c0-5.3,2.6-9.9,2.6-9.9s-6.3-0.5-8-8.2
	c0,0-3.8,3.9-7.6,3.9c-4.9,0-8.1-4.2-8.1-4.2s-3.2,4.2-8.1,4.2c-3.8,0-7.6-3.9-7.6-3.9c-1.7,7.6-8,8.2-8,8.2s2.6,4.5,2.6,9.9
	C6.6,23.2,6.6,23.8,6.4,24.4z M6.6,13.8c0,0,4.3-0.9,6.3-6.3c0,0,2.8,2.6,6.7,2.6c4.9,0,8.1-3.4,8.1-3.4s3.2,3.4,8.1,3.4
	c3.9,0,6.7-2.6,6.7-2.6c2,5.4,6.3,6.3,6.3,6.3S47,17.6,47,22.5c0,7.3,3.3,9.4,3.3,15.1c0,8-6.2,13.1-12,14.5
	c-4.6,1.2-7.6,1.3-9.6,2.3c0,0-0.7,0.7-1,1c-0.3-0.3-1-1-1-1c-2-1-5-1.1-9.6-2.3c-5.8-1.5-12-6.5-12-14.5c0-5.7,3.3-7.8,3.3-15.1
	C8.4,17.6,6.6,13.8,6.6,13.8z"/>
</svg>
