<svg viewBox="0 0 24 16" xmlns="http://www.w3.org/2000/svg"><path d="m14.901 5.909-1.534-2.096-.498.231s-.332-.127-.905-.203l.36-.363v-.824h-.254c.443-.719-.256-1.465 1.022-2.334h-3.303c-2.494.841-1.873 5.522-1.873 5.522l.478-.181s-.298.625-.172 1.095c0 0-.328.712.071 1.392l-.236.332.051 1.524c-.333.58-1.592.265-1.708.916-.049.275-.714.505-.714.505-.698 2.079 4.616 2.47 5.49 3.75.663.323 1.408.506 2.196.506 2.765 0 5.005-2.241 5.005-5.006 0-2.231-1.46-4.12-3.476-4.766z"/><path d="m10.016 2.433-.245-1.586c-1.753.748-1.519 4.338-1.519 4.338l1.782-2.587h1.644c.284-.563-.063-1.46.566-1.845h-2.169zm-.543 10.745c.718.16 1.678.769 1.678.769-.07-.254-.275-.498-.275-.498-1.207-.381-1.93-1.132-1.93-1.132l-1.839-1.011s1.096.006.998-.805c-.475.349-1.387.213-1.387.589 0 .413.724.833 2.148 1.737l-2.203-1.01.132-.144-.152-.295c-.016.113-.575.115-.575.492 0 1.329 4.703 1.825 5.566 3.082.102-.653-1.184-1.275-2.161-1.774zm5.734-2.424s.475.409.475.55c0 .142-.995.729-.995.729.334-.461.604-.684.604-.883 0-.197-.353-.251-.448-.628-.36.58-.378.953-.378.953l.177 1.214-.482-.059c-1.01 1.009-.898 2.117-.898 2.117.635-1.837 2.783-1.863 2.783-3.598-.162-.128-.838-.395-.838-.395z" fill="#ce1126"/><path d="m13.246 10.815.302-.146-.329-1.282.132-.394.905-.348.263.112-.036-.412s-.259-.249-.56-.249c-.293 0-.41.21-.811.696 0 0-.231-.606-1.172-.606-.796 0-1.751.371-1.751.371-.168.229-.146.718 1.002.632l-.163.754.636.091s-.81 1.787-.365 2.217c.422.406.856.843 1.006.843.592 0 .965-.154 1.038-.228.033-.033.056-.106.056-.199 0-.331-.328-.368-.587-.368-.558 0-.759.195-.759.195l.106-.361c.07-.264 1.196-.125 1.196-.125l-.026-.35-.224.034-.473-.073-1.115.03-.055-.041 1.33-.235.29.059.25-.062-.136-.121-.145.057-.028-.295-.793-.133.625-.217z" fill="#fff"/><path d="m14.388 9.116-.252.048c-.104.419-.401.246-.447.145l-.119.434.199.652.166.358-.286.24.222.251.077.181.323-1.063.26-.426c.046-.073-.212-.582-.212-.582zm-2.454 4.661.709.485.187-.645-.621-.089z" fill="#fff"/><path d="m17.465 14.472c-.164 0-.296.132-.296.296 0 .163.132.296.296.296.163 0 .296-.133.296-.296 0-.164-.133-.296-.296-.296zm0 .528c-.129 0-.232-.104-.232-.232s.104-.232.232-.232.232.104.232.232-.104.232-.232.232z"/><path d="m17.586 14.699c0-.056-.045-.101-.101-.101h-.142v.338h.062v-.136h.046l.064.137h.069l-.066-.143c.041-.015.068-.052.068-.095zm-.101.037h-.079v-.074h.079c.021 0 .037.017.037.037s-.015.037-.037.037z"/><g fill="#bf910c"><path d="m14.633 8.022-1.439-.824-2.878.98s1.066-.277 1.851-.277c.854 0 1.003.46 1.003.46s.264-.476.662-.476c.48 0 .814.28.814.28zm-3.084-4.152.241-.256h-1.25l-1.044.842.924-1.083h1.517v-.443h-1.649l-1.475 1.999.07.344s.813-1.403 2.666-1.403z"/><path d="m10.582 11.396c0-.97.236-1.976.236-1.976s-1.441.1-1.185-1.116c0 0-.314.256-.599.145 0 0 .541-.144.541-.734l.141.43 3.741-1.494 1.473 1.28-.033-.576c-.165.06-.519-.184-.519-.184l.054-.045s.239.123.453.035l-.033-.568-1.62-2.253-.368.138s-.793-.335-1.562-.335c-1.175 0-2.638 1.162-2.638 2.446l.787.058 2.149-1.595-2.16 2.113s-.191-.373-.466-.373c-.189 0-.481.226-.481.78 0 .436.214.649.214.649l-.252.341c.185 2.73-.124 3.009-.685 2.854l1.096.529c0-1.912-.071-2.493.116-2.493.308 0 .276 1.901.357 2.795 0 0 .791.917 2.363 1.067.001-.001-1.12-.713-1.12-1.918zm3.561.412-.184.489.285.047zm1.238-5.232v1.622c.721.586 1.182 1.479 1.182 2.477 0 1.383-.883 2.562-2.115 3.005-.521.851-.376 1.352-.311 1.497 2.154-.364 3.801-2.244 3.801-4.502 0-1.797-1.044-3.354-2.557-4.099z"/></g><path d="m11.611 7.041-.111-.069c-.755.142-.626-.116-.81-.116.072-.071.006-.211.198-.403l-.017-.023c-.468.278-.196.449-.518.617l.012.027c.385-.13.244.339 1.246-.033z"/><path d="m12.111 6.558-.061-.025c-.545.255-.543.007-.652.041.056-.094-.107-.208.261-.562l-.005-.035c-.639.425-.334.591-.535.793l.019.025c.218-.139.234.255.973-.237zm-1.48.825s-.067-.062-.145-.093c-.428.044-.365-.125-.513-.118.132-.102-.009-.184.095-.287l-.018-.022c-.384.216-.152.354-.376.446l.011.027c.216-.065.19.286.946.047zm-1.388-.212c.223.556-.176.945-.337.945s-.26-.202-.26-.202.121.396.366.396.709-.586.231-1.139z"/><path d="m12.578 6.073-.041-.013c-.424.226-.452.053-.516.071.045-.092-.146-.116.128-.468l-.011-.064c-.597.529-.169.546-.427.762l.028.011c.23-.188.186.199.839-.299zm-2.319-1.446c-1.452.72-1.399 1.727-1.399 1.727l.475.022.895-.585c-.637.175-1.663.097.029-1.164zm3.317 1.542c-.779.214-.842-.927-.623-1.165-.859.551.195 1.854.623 1.165zm.486.528-.043.024c.454.489.456.149.615.289l.021-.036c-.129-.198.053-.379-.362-.81l-.002.043c.232.304.127.467.196.593-.11-.051-.131.152-.425-.103z"/><path d="m14.21 6.558.019-.024c-.132-.226.126-.276-.229-.785l-.015.066c.16.336.023.407.06.484-.06-.016-.115.103-.313-.131l-.034.012c.315.508.385.193.512.378zm3.039 4.499c-.054.276-.28.018-.406.666.098.019.184-.2.311-.176.127.025.125.261.222.279.125-.647-.181-.493-.127-.769z"/><circle cx="17.25" cy="10.675" r=".237"/><path d="m15.384 13.691c.063.076.27-.037.352.062.082.1-.069.28-.006.357.509-.42.174-.495.392-.675-.219.18-.228-.164-.738.256zm1.515-1.363c-.144.243-.27-.076-.604.493.085.05.239-.127.351-.062s.031.286.116.337c.335-.569-.006-.525.137-.768z"/><path d="m15.877 13.296c.075.064.259-.083.356 0 .099.084-.02.288.057.353.429-.502.086-.519.269-.732-.183.213-.252-.123-.682.379zm.947-3.729c.138.646.358.384.418.66-.06-.276.25-.127.112-.772-.097.021-.091.256-.217.282-.125.028-.216-.19-.313-.17zm-.549-1.063c.34.566.464.246.609.487-.146-.241.195-.2-.145-.767-.084.051-.003.271-.113.338s-.266-.109-.351-.058z"/><path d="m16.594 9.013c.242.614.418.319.521.582-.104-.263.226-.166-.017-.78-.092.036-.047.268-.167.314-.119.048-.244-.152-.337-.116zm.539 2.677c-.099.265-.279-.027-.511.591.093.034.215-.167.336-.122.12.046.08.277.172.312.231-.618-.096-.516.003-.781zm-.574-3.255c-.183-.214.16-.229-.269-.732-.075.064.042.269-.056.353-.099.084-.282-.064-.357 0 .43.501.499.165.682.379zm-.521-.603c.157-.206-.612-.469-.612-.469s.454.675.612.469zm-1.267 6.188c.048.087.271.015.333.128s-.121.262-.074.349c.58-.314.266-.452.514-.587-.248.134-.191-.205-.773.11z"/><path d="m14.164 14.491s.813.017.736-.23c-.078-.247-.736.23-.736.23zm-3.895-5.686 1.265.177c.042.212.371.412.6.091l.346.099-.278.218.533.073.209-.411-1.204-.489z"/></svg>