<svg viewBox="0 0 24 16" xmlns="http://www.w3.org/2000/svg"><path d="m15.061 2.087h-11.496v.543c0 .84.328 1.628.89 2.2h-.89v.543c0 .84.328 1.628.89 2.199h-.89v.543c0 .84.328 1.629.89 2.201h-.89v.542c0 1.684 1.289 3.055 2.874 3.055h2.666l1.809-3.059c1.019 1.24 2.544 1.981 4.146 1.981 2.963 0 5.374-2.411 5.374-5.375.001-2.962-2.411-5.373-5.373-5.373z"/><path d="m11.044 11.587c-.206 0-.375.169-.375.375 0 .208.169.377.375.377.208 0 .375-.169.375-.377 0-.206-.167-.375-.375-.375zm0 .671c-.162 0-.294-.133-.294-.296 0-.161.132-.295.294-.295.163 0 .296.134.296.295 0 .163-.133.296-.296.296z"/><path d="m11.198 11.875c0-.07-.057-.127-.127-.127h-.181v.43h.08v-.176h.059l.08.176h.089l-.085-.182c.05-.018.085-.064.085-.121zm-.127.047h-.101v-.093h.101c.026 0 .047.02.047.046s-.02.047-.047.047z"/><path d="m15.063 2.267h-11.322v.357c0 .994.478 1.872 1.198 2.388h-1.198v.358c0 .994.478 1.871 1.198 2.388h-1.198v.357c0 .996.478 1.873 1.198 2.387h-1.198v.359c0 1.584 1.208 2.873 2.693 2.873h2.562l1.891-3.196c.978 1.325 2.524 2.117 4.176 2.117 2.864 0 5.194-2.331 5.194-5.195.001-2.863-2.329-5.193-5.194-5.193z" fill="#fff"/><path d="m15.063 2.624h-10.86c0 1.39 1.046 2.515 2.334 2.515h4.091c.064 0 .116.052.116.116 0 .063-.052.115-.116.115h-6.425c0 1.388 1.046 2.515 2.334 2.515h2.467c.064 0 .116.051.116.115s-.052.115-.116.115h-4.801c0 1.389 1.046 2.514 2.334 2.514h.843c.064 0 .116.053.116.117 0 .062-.052.115-.116.115h-3.177c0 1.389 1.046 2.514 2.334 2.514h2.256l4.216-7.127c.416-.702 1.18-1.173 2.055-1.173 1.317 0 2.385 1.067 2.385 2.385s-1.067 2.387-2.385 2.387c-1.302 0-2.358-1.042-2.386-2.337l-1.596 2.698c.873 1.262 2.33 2.089 3.981 2.089 2.671 0 4.836-2.166 4.836-4.837s-2.165-4.836-4.836-4.836z"/><circle cx="15.063" cy="7.46" fill="#f74902" r="1.373"/></svg>