<svg viewBox="0 0 24 16" xmlns="http://www.w3.org/2000/svg"><path d="m16.943 5.957.357.118-.002.23c-.19-.007-.343-.043-.343.513 0 .415.079.549.079.666 0 .199-.017.247-.641.247 0 0-.098-.119-.439-.251 0 0-.007-.032-.021-.09l2.643-4.597h-.801c.06-.114.001-.303-.147-.452-.17-.169-.391-.222-.494-.119-.047.047-.062.118-.048.198l-.328.345c.008-.052.026-.326-.49-.474-.155-.308-.286-.693-.595-.693-.253 0-.472.192-.472.192s-.944-.879-1.862-.879c-.798 0-1.897.782-2.382.782-.516 0-.973-1.25-1.698-1.25-.391 0-.851.313-1.347.616-.496.301-.588.67-.709.972-.08.2-.334.469-.63.761h-2.285l4.643 8.074c-.035.007-.069.011-.101.011h-3.46l-.639 1.15h4.097c.174 0 .413-.104.531-.233l.065-.07 2.009 3.494 1.857-3.229h1.566v-.326h-.376l-.066-.209h.057l.271-.126c0-.313-.377-.753-.377-.753l-.062-.351.515-.894 2.4-.886c.425-.157.473-.777.473-.777s.391.184.605-.293c0 0 .434.139.669.139.204 0 .49-.11.49-.417 0 0 .314-.189.418-.512l-2.827-.937z"/><g fill="#fcb514"><path d="m13.36 8.963c0-.049-.735-.244-1.024-.355-.266.104.078.157.078.5 0 .203-.1.441-.1.441l-.146.042s-.293.54-.48.46c-.269.473-.378.581-.805.581-.137 0-.257-.039-.363-.106l-.93 1.014 1.841 3.203 1.585-2.755h-1.14c0-.294.187-.535.187-.535 0-.468.288-.566.503-.586.454-.04.64-.001.64-.223 0-.157-.014-.343-.014-.343h.168c0-.611-.172-.761-.172-1.072 0-.12.172-.17.172-.266zm.73 1.158.356-.621-.398.195zm1.195-6.303-.084-.188c-.433.073-.82-.146-.931-.204-.11-.056.011-.298.011-.298s-.03-.052-.099-.1h-.452c-.085.076-.105.194-.036.266.48.498.866 1.033 1.173 1.548l.502-.527zm-2.058 7.803.097-.168h-.159zm3.957-8.592-.064.072c.263.311.154.628.154.628 0 .24-.127.236-.127.236 0 .559-.293.46-.293.46 0 .735-.81.438-.81.438-.133-.017-.243-.054-.332-.097l-.549.612c.356.692.568 1.307.683 1.69l2.322-4.039zm-7.275 6.227c-.148-.358-.083-.439-.083-.439s-.476-.391-.335-.878c0 0-1.226-1.777-1.226-2.831 0-.545.264-.492.264-.938 0-.366-.25-.639-.43-.639-.206 0-.848.424-1.788.978l.355-.816-.856.879s-.167-.858.294-1.319c.076-.075.152-.15.228-.224h-1.636l4.464 7.763c.082-.039.157-.087.209-.14l.704-.71c-.113-.263-.164-.536-.164-.686z"/><path d="m12.543 11.662h.155l.067-.209h-.34z"/></g><g fill="#fff"><path d="m13.597 11.453-.121.209h.493l.059-.209zm5.394-4.819-.123.17.315.104-.044-.224zm-1.206-.399-.116.171.812.27-.005-.213z"/><ellipse cx="18.966" cy="7.228" rx=".105" ry=".188" transform="matrix(-.23268159 -.97255297 .97255297 -.23268159 16.349166 27.353057)"/><ellipse cx="12.398" cy="11.139" rx=".188" ry=".105" transform="matrix(-.78869796 .61478087 -.61478087 -.78869796 29.02611 12.301639)"/><path d="m9.47 10.753c-.148.15-.43.268-.641.268h-.021l-.391.864h.41c.135 0 .334-.088.425-.188l1.138-1.241-.259-.369zm-4.497 1.132h.558l.48-.864h-.558zm9.17-.432-.091.319h-.887l-.117-.319h-.168l-.101.319h-.3l-.181-.319h-.096c-.029.033-.162.194-.206.425h2.749v-.105h-.347l-.103-.319h-.152zm3.264-5.133.152.05.182-.266.842.279.01.329.166.055.19-.263.284.094.069.349.117.039c.058-.04.215-.159.307-.336l-2.611-.864-.033.101.329.109zm-5.5 1.633 2.39-2.511c-.874-1.213-2.148-2.306-3.299-2.306-1.026 0-1.719.755-1.719 1.554 0 1.439 1.293 2.558 2.628 3.263zm.665.317c.806.347 1.549.531 1.939.531.36 0 .853-.1.853-.881 0-.512-.277-1.233-.722-1.961zm-6.469-4.828c-.167.188-.188.732-.188.732l1.36-1.171-.545 1.003s.92-.418 1.004-.627c0 0-.189-.46-.607-.879 0 0-.856.754-1.024.942zm1.871-1.569c0-.148.209-.297.235-.368 0 0-.135-.183-.326-.091-.029.417-.136.615-.183.868.156.129.104-.196.328-.196.075 0 .184.093.184.2 0 .125-.068.191-.068.191l.157-.013s.067-.067.067-.201c.001-.304-.394-.31-.394-.39zm7.543 2.485-3.844 4.04c-.14.146.229.402.359.253l3.681-4.108c.135-.151-.054-.327-.196-.185zm-4.796 4.365s.057-.21-.107-.21c-.336 0-.658.278-.658.421 0 .074.03.139.03.139s.438-.421.735-.35zm.658-.009c0-.146-.127-.17-.265-.17s-.21.093-.21.151c0 .151.154.316.222.316.038.001.253-.118.253-.297zm.209.05c-.085 0-.133.102-.133.277 0 .058.072.102.114.102.028 0 .093-.064.093-.262 0-.061-.021-.117-.074-.117zm.31.17c-.146 0-.093.325-.093.433 0 .106-.041.161-.041.161.03.054.026.205.124.205.056 0 .137-.084.137-.294 0-.316.005-.505-.127-.505zm.252.084-.021.193.131.021.034-.111c-.036-.02-.067-.124-.144-.103zm-2.062.302c.072.829.57 1.182.57 1.182l.098-.051s-.25-.475-.524-1.357zm.344-.336c.218.892.485 1.413.597 1.442 0 0 .076-.129.076-.899 0 0-.191-.809-.673-.543zm.866.336c.04.913-.106.897-.106 1.037 0 .227.388-.063.388-.639-.001-.681-.282-.398-.282-.398zm-1.602-1.415c-.258.357.165.729.165.729s.155.011.241-.075c0 0-.133-.487-.406-.654zm.618.33c0-.052-.073-.046-.073-.425 0-.301-.339-.188-.339-.028s.275.357.275.474c0 0 .137.051.137-.021zm.269-.198c0-.604-.207-.5-.207-.283 0 .242.136.353.207.283zm.199-.441c-.075.166-.021.412-.021.582 0 .176.117.17.172.14-.067-.134.115-.595-.151-.722zm.269.09c-.035.215.033.598.033.598s.139.059.187-.014c-.011-.076-.011-.247-.011-.348 0-.258-.209-.236-.209-.236zm.384.199c-.053.334.062.51.062.51.042-.024.073-.008.073-.291 0-.282-.135-.219-.135-.219zm5.065-4.994c.238-.121-.011-.433-.181-.336-.707.459-.782 1.161-.782 1.161s.063.103.233.075c0 0 .378-.728.73-.9zm-.552.906s.017.084.123.084c.201 0 .609-.433.609-.785 0-.072-.107-.075-.107-.075-.373.241-.625.776-.625.776zm.933-.839c.253 0 .452-.262.452-.317s-.056-.093-.155-.093-.362.284-.362.364c-.001.017.012.046.065.046zm-1.417 1.267s.073-.054.194-.047c-.076-.241-.212-.182-.212-.182-.054.081.018.229.018.229zm.959.63c.088-.381-.302-.777-.302-.777-.275-.021-.283.076-.283.076s.196.701.585.701zm-.097-.899s.092.591.358.591c.025-.091-.083-.591-.358-.591zm.235-.206s.153.439.316.439c0 0 .062-.292-.214-.528-.086 0-.102.089-.102.089zm.601.115c0-.213-.341-.589-.341-.589l-.082.164.329.494c0 .001.094.047.094-.069zm-.265-.726.309.542s-.008-.309-.241-.59c0 0-.068-.008-.068.048zm-1.794.363s-.385-.203-.688-.289l-.021.062c.001.001.168.254.709.227zm.179-.089c.028.012.114-.077.055-.116-.071-.046-.611-.345-.776-.392-.092.094-.041.151-.041.151zm.13-.247c.043.023.113-.116.068-.146-.268-.178-.531-.346-.828-.48-.074.099-.05.187-.05.187zm.208-.322c0-.139-.607-.607-.702-.607s-.138.117-.138.117l.77.55c.025.018.07-.044.07-.06zm.198-.18-.564-.646c-.075-.085-.205.076-.205.076l.638.625c.059.057.162-.025.131-.055zm.151-.241-.474-.645c-.12 0-.145.103-.145.103l.516.549c.066.07.103-.007.103-.007zm.007-.343-.149-.32c-.015-.031-.119-.026-.119.035-.001.046.108.285.268.285z"/></g><path d="m13.282 14.426c0-.175-.142-.316-.317-.316-.174 0-.316.142-.316.316s.143.317.316.317c.176 0 .317-.142.317-.317zm-.565 0c0-.137.111-.248.248-.248.138 0 .249.111.249.248 0 .139-.111.249-.249.249-.137 0-.248-.111-.248-.249z"/><path d="m13.096 14.607-.071-.153c.041-.015.071-.055.071-.102 0-.06-.049-.106-.108-.106h-.152v.361h.068v-.147h.049l.068.147zm-.109-.215h-.084v-.078h.084c.022 0 .04.018.04.039 0 .022-.017.039-.04.039z"/></svg>