<svg viewBox="0 0 24 16" xmlns="http://www.w3.org/2000/svg"><g fill="#002868"><path d="m20.076 7.28c0-1.638-1.019-3.253-2.825-4.245l-.692.55c1.234.777 1.962 1.938 1.962 3.257 0 3.076-3.802 5.862-8.032 5.862-.435 0-.86-.031-1.271-.093l-1.428 1.057c.901.306 1.907.467 2.958.467 5.022 0 9.328-3.391 9.328-6.855"/><path d="m13.688 8.425-2.583.505 5.731-4.71-2.668.358 5.186-4.113-6.037 1.589c-.079-.002-.159-.003-.24-.003-4.947 0-9.152 3.362-9.152 6.91 0 1.74.938 3.125 2.391 4.022l-2.231 2.552zm-9.074.012c0-3.182 3.98-5.863 8.033-5.863.027 0 .055.001.083.001l-3.918 4.381 2.253-.356-4.438 4.293 1.8-.325-1.257 1.437c-1.528-.724-2.556-1.971-2.556-3.568m13.086 3.639h.1v.3h.036v-.3h.104v-.036h-.24zm.433.237-.086-.273h-.058v.336h.036v-.286l.09.286h.036l.09-.286v.286h.036v-.336h-.058z"/></g></svg>