<svg xmlns="http://www.w3.org/2000/svg" viewBox="0 0 24 16"><path d="M12.334 9.964h-.231v.434h.231c.044 0 .079-.036.079-.079v-.275C12.414 10 12.378 9.964 12.334 9.964zM10.626 8.36c.078-.014.157-.027.236-.039.03-.005.056-.021.074-.045.018-.024.025-.054.02-.084l-.052-.32c-.01-.06-.068-.104-.13-.095-.079.012-.158.025-.236.039l-.019.003.088.544L10.626 8.36zM11.96 8.683c.057 0 .113 0 .17 0 .062 0 .113-.05.113-.113V7.795c0-.063-.051-.114-.113-.114-.057 0-.114 0-.17 0-.063 0-.113.052-.113.114v.775C11.846 8.632 11.897 8.683 11.96 8.683zM11.982 11.703L11.844 12.248 12.121 12.248zM10.896 10.534L11.141 10.534 11.019 9.99zM15.987 8.66c-.05-.026-.101-.052-.151-.078-.016-.008-.034-.012-.051-.012-.043 0-.082.024-.102.062l-.356.688c-.014.027-.016.057-.007.086.009.029.029.052.056.066.05.026.101.052.151.078.016.008.034.013.053.013.042 0 .081-.023.1-.061l.356-.688C16.065 8.758 16.043 8.689 15.987 8.66z" fill="#00205B"/><path d="M12.242 16.041c-0.023 0-0.044-0.009-0.06-0.026 -0.193-0.208-0.339-0.424-0.447-0.659 -0.059-0.13-0.107-0.267-0.142-0.41 -0.035-0.143-0.059-0.296-0.071-0.454 -0.371 0.177-0.771 0.334-1.192 0.467 -0.422 0.134-0.875 0.248-1.347 0.338 -0.004 0.001-0.009 0.001-0.014 0.001 -0.023 0-0.045-0.011-0.058-0.03 -0.014-0.019-0.017-0.043-0.011-0.064 0.097-0.308 0.208-0.558 0.35-0.783 -0.342 0.074-0.788 0.141-1.36 0.203 -0.003 0-0.005 0-0.008 0 -0.024 0-0.046-0.012-0.059-0.031 -0.014-0.019-0.017-0.044-0.009-0.066 0.08-0.218 0.167-0.421 0.257-0.605 -0.421 0.112-0.924 0.203-1.577 0.286 -0.003 0-0.006 0.001-0.009 0.001 -0.027 0-0.051-0.015-0.064-0.039 -0.012-0.024-0.011-0.053 0.005-0.075 0.447-0.639 0.923-1.163 1.453-1.6 -0.363-0.146-0.712-0.349-1.126-0.657 -0.02-0.015-0.031-0.038-0.029-0.063 0.002-0.025 0.015-0.046 0.037-0.058 0.474-0.264 0.953-0.473 1.46-0.638 -0.451-0.089-0.814-0.205-1.106-0.356C7.095 10.715 7.081 10.697 7.077 10.675c-0.004-0.022 0.001-0.044 0.015-0.061l0 0c0.138-0.166 0.272-0.298 0.419-0.412 -0.228-0.095-0.447-0.207-0.65-0.333C6.652 9.739 6.452 9.591 6.266 9.427c-0.029-0.026-0.033-0.071-0.008-0.101C6.386 9.174 6.54 9.028 6.731 8.878 6.489 8.719 6.252 8.547 6.028 8.366c-0.231-0.186-0.457-0.387-0.67-0.596C5.344 7.757 5.337 7.738 5.337 7.718 5.337 7.699 5.344 7.681 5.358 7.667 5.465 7.563 5.584 7.47 5.71 7.392 5.551 7.256 5.399 7.1 5.258 6.928c-0.146-0.179-0.285-0.381-0.413-0.6C4.835 6.309 4.833 6.287 4.84 6.267c0.007-0.02 0.023-0.036 0.043-0.044 0.214-0.08 0.411-0.134 0.601-0.163C5.336 5.757 5.225 5.397 5.136 4.933 5.132 4.912 5.137 4.89 5.151 4.873c0.014-0.017 0.034-0.026 0.055-0.026 0.006 0 0.012 0.001 0.018 0.002L5.225 4.849c0.433 0.113 0.897 0.318 1.151 0.438 0.057-0.25 0.121-0.491 0.243-0.707 0.013-0.023 0.037-0.037 0.063-0.037 0.015 0 0.03 0.005 0.042 0.014l0 0C6.916 4.696 7.099 4.843 7.268 4.994c0.163 0.146 0.318 0.3 0.46 0.458C7.81 5.324 7.91 5.219 8.032 5.131l0 0C8.045 5.122 8.059 5.117 8.074 5.117c0.022 0 0.042 0.01 0.056 0.026 0.433 0.538 1.096 1.281 1.826 1.807C9.777 6.392 9.519 5.858 9.265 5.364 9.255 5.344 9.254 5.321 9.264 5.301c0.009-0.02 0.027-0.034 0.048-0.039l0 0c0.091-0.021 0.215-0.036 0.367-0.046C9.384 4.767 9.123 4.194 8.944 3.595 8.938 3.574 8.942 3.551 8.955 3.533 8.968 3.515 8.99 3.504 9.012 3.504c0.001 0 0.002 0 0.003 0 0.278 0.012 0.601 0.073 0.872 0.162C9.853 3.452 9.841 3.216 9.851 2.962 9.861 2.725 9.891 2.471 9.939 2.208c0.006-0.034 0.036-0.059 0.07-0.059 0.009 0 0.017 0.002 0.025 0.005 0.183 0.069 0.395 0.173 0.599 0.293 -0.012-0.203-0.008-0.419 0.012-0.641 0.02-0.224 0.056-0.448 0.104-0.649 0.008-0.032 0.036-0.054 0.068-0.054 0.008 0 0.016 0.001 0.023 0.004 0.125 0.044 0.279 0.119 0.458 0.224 0.158-0.452 0.407-0.886 0.652-1.287 0.013-0.022 0.036-0.035 0.062-0.035 0.025 0 0.048 0.013 0.062 0.035 0.159 0.259 0.273 0.459 0.372 0.649 0.119 0.229 0.211 0.438 0.281 0.638 0.178-0.105 0.332-0.181 0.458-0.224 0.007-0.003 0.015-0.004 0.023-0.004 0.032 0 0.06 0.022 0.068 0.054 0.048 0.201 0.084 0.425 0.104 0.649 0.02 0.223 0.024 0.438 0.012 0.641 0.204-0.121 0.415-0.224 0.599-0.293 0.008-0.003 0.017-0.005 0.025-0.005 0.035 0 0.064 0.025 0.07 0.059 0.048 0.263 0.078 0.517 0.088 0.754 0.011 0.254-0.001 0.49-0.035 0.704 0.271-0.089 0.594-0.15 0.872-0.162 0.001 0 0.002 0 0.003 0 0.022 0 0.043 0.011 0.057 0.028 0.013 0.018 0.017 0.041 0.011 0.062 -0.179 0.599-0.44 1.172-0.736 1.62 0.153 0.01 0.276 0.025 0.367 0.046l0 0c0.021 0.005 0.039 0.019 0.048 0.039 0.009 0.02 0.009 0.043-0.001 0.063l0 0c-0.253 0.494-0.511 1.027-0.69 1.585 0.794-0.582 1.391-1.268 1.825-1.805 0.013-0.017 0.034-0.026 0.055-0.026 0.015 0 0.029 0.005 0.041 0.013l0 0c0.123 0.088 0.222 0.194 0.304 0.321 0.142-0.158 0.297-0.312 0.46-0.458 0.169-0.151 0.352-0.298 0.543-0.437l0 0c0.012-0.009 0.027-0.014 0.043-0.014 0.026 0 0.05 0.014 0.063 0.036 0.123 0.217 0.186 0.458 0.243 0.707 0.254-0.12 0.719-0.325 1.151-0.438l0 0c0.006-0.001 0.012-0.002 0.018-0.002 0.021 0 0.042 0.01 0.056 0.026 0.014 0.017 0.019 0.039 0.015 0.06 -0.09 0.464-0.201 0.824-0.348 1.127 0.19 0.03 0.387 0.083 0.601 0.163 0.02 0.008 0.036 0.023 0.043 0.044 0.007 0.02 0.005 0.042-0.005 0.061L19.18 6.328c-0.128 0.219-0.267 0.421-0.413 0.6 -0.141 0.172-0.293 0.328-0.453 0.464 0.127 0.079 0.245 0.171 0.352 0.275 0.014 0.014 0.022 0.032 0.022 0.051 0 0.019-0.008 0.038-0.021 0.052 -0.213 0.21-0.439 0.41-0.67 0.596 -0.224 0.181-0.461 0.353-0.703 0.512 0.191 0.15 0.345 0.297 0.472 0.448l0 0c0.025 0.03 0.022 0.075-0.007 0.1l0 0c-0.185 0.164-0.385 0.313-0.595 0.443 -0.203 0.126-0.421 0.238-0.65 0.333 0.147 0.114 0.28 0.246 0.419 0.412l0 0c0.014 0.017 0.019 0.039 0.015 0.061 -0.004 0.022-0.018 0.04-0.038 0.049 -0.292 0.15-0.655 0.267-1.106 0.356 0.507 0.164 0.986 0.373 1.46 0.638 0.021 0.012 0.035 0.034 0.037 0.058 0.002 0.025-0.009 0.048-0.029 0.063 -0.414 0.308-0.764 0.512-1.126 0.657 0.53 0.437 1.005 0.96 1.453 1.6 0.015 0.022 0.017 0.051 0.005 0.075 -0.013 0.024-0.037 0.039-0.064 0.039 0 0 0 0 0 0 -0.003 0-0.006 0-0.009-0.001 -0.653-0.083-1.156-0.174-1.577-0.286 0.09 0.184 0.176 0.388 0.257 0.605 0.008 0.022 0.005 0.047-0.009 0.066 -0.014 0.019-0.036 0.031-0.059 0.031 -0.003 0-0.005 0-0.008 0 -0.572-0.062-1.018-0.128-1.36-0.203 0.141 0.225 0.253 0.475 0.35 0.784 0.007 0.022 0.003 0.046-0.011 0.064 -0.013 0.018-0.035 0.029-0.057 0.029 -0.005 0-0.009 0-0.014-0.001v0c-0.541-0.104-1.095-0.266-1.465-0.384 -0.469-0.149-0.906-0.31-1.199-0.443 -0.004-0.002-0.007-0.002-0.011-0.002 -0.011 0-0.023 0.007-0.026 0.02 -0.031 0.15 0.022 0.34 0.158 0.566 0.11 0.184 0.243 0.336 0.293 0.393l0.002 0.002c0.03 0.034 0.027 0.086-0.006 0.117l-0.49 0.452C12.283 16.034 12.263 16.041 12.242 16.041z" fill="#00205B"/><path d="M12.013 0.057c0.008 0 0.017 0.004 0.021 0.012 0.262 0.429 0.505 0.86 0.657 1.304 0.003 0.01 0.013 0.017 0.023 0.017 0.004 0 0.009-0.001 0.013-0.004 0.161-0.096 0.33-0.184 0.473-0.234 0.003-0.001 0.005-0.001 0.008-0.001 0.01 0 0.02 0.007 0.022 0.018 0.094 0.392 0.143 0.879 0.112 1.32 -0.001 0.015 0.011 0.026 0.024 0.026 0.004 0 0.008-0.001 0.013-0.004 0.206-0.124 0.432-0.238 0.629-0.312 0.003-0.001 0.006-0.002 0.008-0.002 0.011 0 0.022 0.008 0.024 0.02 0.089 0.487 0.127 1.012 0.046 1.481 -0.003 0.015 0.009 0.027 0.023 0.027 0.003 0 0.005 0 0.008-0.001 0.28-0.097 0.617-0.16 0.897-0.172 0 0 0.001 0 0.001 0 0.016 0 0.027 0.015 0.022 0.03 -0.162 0.542-0.418 1.145-0.752 1.641 -0.01 0.015 0 0.036 0.018 0.037 0.141 0.008 0.289 0.022 0.4 0.047 0.015 0.004 0.023 0.021 0.016 0.035 -0.264 0.516-0.536 1.077-0.716 1.666 -0.005 0.015 0.008 0.028 0.021 0.028 0.004 0 0.008-0.001 0.012-0.004 0.794-0.568 1.408-1.254 1.897-1.859 0.005-0.006 0.012-0.009 0.019-0.009 0.005 0 0.01 0.001 0.014 0.005 0.131 0.094 0.231 0.207 0.307 0.333 0.005 0.008 0.013 0.012 0.021 0.012 0.007 0 0.013-0.003 0.018-0.008 0.296-0.332 0.636-0.635 1.017-0.91 0.004-0.003 0.01-0.005 0.015-0.005 0.009 0 0.017 0.004 0.022 0.013 0.129 0.228 0.192 0.49 0.244 0.723 0.003 0.011 0.012 0.018 0.023 0.018 0.003 0 0.007-0.001 0.01-0.002 0.36-0.172 0.792-0.349 1.169-0.447 0.002-0.001 0.004-0.001 0.006-0.001 0.015 0 0.028 0.014 0.025 0.03 -0.081 0.419-0.19 0.806-0.358 1.143 -0.008 0.015 0.002 0.033 0.018 0.035 0.205 0.029 0.407 0.085 0.622 0.165 0.015 0.006 0.021 0.023 0.013 0.037 -0.252 0.434-0.544 0.792-0.879 1.072 -0.013 0.011-0.011 0.031 0.003 0.04 0.137 0.082 0.26 0.177 0.371 0.285 0.01 0.01 0.01 0.026 0 0.036 -0.425 0.418-0.888 0.791-1.391 1.119 -0.015 0.01-0.015 0.03-0.002 0.041 0.185 0.144 0.349 0.292 0.489 0.46 0.009 0.01 0.007 0.026-0.003 0.035 -0.365 0.323-0.782 0.584-1.267 0.782 -0.018 0.007-0.021 0.031-0.005 0.043 0.172 0.13 0.312 0.273 0.441 0.428 0.01 0.012 0.006 0.031-0.008 0.038 -0.346 0.178-0.767 0.293-1.203 0.372 -0.02 0.004-0.021 0.031-0.002 0.037 0.557 0.172 1.068 0.395 1.558 0.668 0.016 0.009 0.017 0.031 0.003 0.042 -0.359 0.267-0.725 0.499-1.151 0.665 -0.018 0.007-0.022 0.03-0.007 0.042 0.582 0.474 1.058 1.02 1.473 1.614 0.012 0.017-0.001 0.04-0.021 0.04 -0.001 0-0.002 0-0.003 0 -0.593-0.075-1.145-0.168-1.621-0.298 -0.002-0.001-0.005-0.001-0.007-0.001 -0.017 0-0.029 0.018-0.021 0.035 0.102 0.203 0.194 0.42 0.278 0.647 0.006 0.017-0.007 0.034-0.024 0.034 -0.001 0-0.002 0-0.003 0 -0.535-0.058-1.021-0.126-1.409-0.214 -0.002 0-0.004-0.001-0.006-0.001 -0.019 0-0.031 0.021-0.02 0.038 0.164 0.25 0.281 0.521 0.374 0.818 0.005 0.016-0.007 0.032-0.023 0.032 -0.002 0-0.003 0-0.005 0 -0.919-0.177-2.089-0.568-2.654-0.823 -0.01-0.005-0.02-0.007-0.031-0.007 -0.034 0-0.065 0.023-0.072 0.058 -0.079 0.385 0.367 0.891 0.464 1.001 0.013 0.015 0.012 0.038-0.003 0.052l-0.49 0.452c-0.007 0.006-0.015 0.009-0.024 0.009 -0.009 0-0.018-0.004-0.025-0.011 -0.349-0.376-0.604-0.843-0.649-1.515 -0.001-0.018-0.016-0.03-0.032-0.03 -0.005 0-0.009 0.001-0.014 0.003 -0.757 0.363-1.61 0.631-2.548 0.81 -0.002 0-0.003 0-0.005 0 -0.016 0-0.029-0.016-0.024-0.033 0.093-0.297 0.21-0.568 0.374-0.818 0.011-0.017-0.001-0.038-0.02-0.038 -0.002 0-0.004 0-0.006 0.001 -0.388 0.088-0.874 0.156-1.409 0.214 -0.001 0-0.002 0-0.003 0 -0.017 0-0.03-0.017-0.024-0.034 0.084-0.227 0.176-0.443 0.278-0.647 0.008-0.017-0.004-0.035-0.021-0.035 -0.002 0-0.004 0-0.007 0.001 -0.476 0.13-1.028 0.223-1.621 0.298 -0.001 0-0.002 0-0.003 0 -0.02 0-0.032-0.023-0.021-0.04 0.416-0.594 0.892-1.14 1.473-1.614 0.015-0.012 0.011-0.035-0.007-0.042 -0.426-0.166-0.792-0.398-1.151-0.665 -0.015-0.011-0.013-0.033 0.003-0.042 0.49-0.273 1.001-0.495 1.558-0.668 0.019-0.006 0.018-0.033-0.002-0.037 -0.436-0.079-0.856-0.194-1.203-0.372 -0.014-0.007-0.018-0.026-0.008-0.038 0.129-0.155 0.269-0.298 0.441-0.428 0.016-0.012 0.013-0.036-0.005-0.043C7.08 9.975 6.662 9.714 6.298 9.391 6.287 9.382 6.286 9.367 6.295 9.356 6.435 9.189 6.598 9.04 6.784 8.896c0.014-0.011 0.013-0.032-0.002-0.041 -0.503-0.328-0.966-0.701-1.391-1.119C5.381 7.727 5.381 7.711 5.391 7.701 5.502 7.593 5.625 7.497 5.762 7.416c0.014-0.009 0.016-0.029 0.003-0.04 -0.335-0.279-0.627-0.638-0.879-1.072 -0.008-0.014-0.002-0.031 0.013-0.037 0.215-0.081 0.417-0.136 0.622-0.165 0.017-0.002 0.026-0.02 0.018-0.035C5.372 5.73 5.263 5.344 5.182 4.924c-0.003-0.016 0.009-0.03 0.025-0.03 0.002 0 0.004 0 0.006 0.001 0.378 0.098 0.81 0.276 1.169 0.447C6.386 5.344 6.389 5.345 6.393 5.345c0.011 0 0.02-0.007 0.023-0.018C6.468 5.093 6.531 4.831 6.66 4.603c0.005-0.008 0.013-0.013 0.022-0.013 0.005 0 0.01 0.002 0.015 0.005 0.38 0.275 0.72 0.578 1.017 0.91 0.005 0.006 0.012 0.008 0.018 0.008 0.008 0 0.016-0.004 0.021-0.012 0.076-0.126 0.176-0.239 0.307-0.333C8.064 5.166 8.069 5.164 8.074 5.164c0.007 0 0.014 0.003 0.019 0.009C8.614 5.822 9.289 6.543 9.992 7.034c0.004 0.003 0.008 0.004 0.012 0.004 0.013 0 0.025-0.013 0.02-0.027C9.843 6.421 9.572 5.859 9.307 5.342c-0.007-0.014 0.001-0.031 0.016-0.035 0.111-0.025 0.26-0.039 0.4-0.047 0.019-0.001 0.029-0.022 0.018-0.037 -0.334-0.496-0.59-1.099-0.752-1.641C8.985 3.567 8.996 3.551 9.012 3.551c0 0 0.001 0 0.001 0 0.28 0.012 0.617 0.075 0.897 0.172 0.003 0.001 0.005 0.001 0.008 0.001 0.014 0 0.025-0.012 0.023-0.027 -0.082-0.469-0.044-0.994 0.046-1.481 0.002-0.012 0.013-0.02 0.024-0.02 0.003 0 0.006 0 0.008 0.002 0.197 0.074 0.423 0.188 0.629 0.312 0.004 0.002 0.008 0.004 0.013 0.004 0.013 0 0.025-0.011 0.024-0.026 -0.031-0.44 0.018-0.927 0.112-1.32 0.003-0.011 0.012-0.018 0.022-0.018 0.003 0 0.005 0 0.008 0.001 0.144 0.05 0.312 0.138 0.473 0.234 0.004 0.002 0.008 0.004 0.013 0.004 0.01 0 0.019-0.006 0.023-0.017 0.152-0.444 0.395-0.875 0.657-1.304C11.996 0.061 12.004 0.057 12.013 0.057M12.013-0.037c-0.02 0-0.039 0.005-0.057 0.014 -0.019 0.01-0.034 0.025-0.045 0.043 -0.159 0.26-0.274 0.462-0.373 0.652 -0.109 0.211-0.196 0.405-0.264 0.59 -0.161-0.092-0.301-0.159-0.417-0.2 -0.012-0.004-0.025-0.007-0.039-0.007C10.792 1.057 10.766 1.065 10.746 1.081c-0.021 0.016-0.036 0.039-0.042 0.065 -0.049 0.203-0.085 0.429-0.105 0.655 -0.017 0.193-0.023 0.382-0.016 0.562 -0.183-0.103-0.368-0.192-0.531-0.254l0 0 0 0c-0.013-0.005-0.027-0.008-0.041-0.008 -0.057 0-0.106 0.041-0.117 0.097L9.893 2.2 9.893 2.2c-0.049 0.265-0.078 0.521-0.088 0.76 -0.009 0.228-0.001 0.442 0.025 0.639C9.571 3.521 9.275 3.469 9.017 3.457 9.015 3.457 9.013 3.457 9.012 3.457 8.975 3.457 8.939 3.475 8.917 3.505 8.895 3.534 8.888 3.573 8.899 3.609 8.986 3.899 9.092 4.185 9.215 4.458c0.117 0.261 0.245 0.501 0.382 0.716C9.478 5.184 9.379 5.198 9.302 5.216L9.302 5.216 9.302 5.216C9.266 5.224 9.237 5.248 9.221 5.281c-0.015 0.033-0.015 0.071 0.002 0.104l0 0 0 0c0.231 0.451 0.466 0.935 0.641 1.439 -0.679-0.515-1.291-1.204-1.698-1.71l0 0 0 0C8.143 5.086 8.11 5.07 8.074 5.07c-0.025 0-0.048 0.007-0.068 0.022L8.005 5.092 8.005 5.092C7.936 5.142 7.872 5.198 7.816 5.26 7.783 5.296 7.752 5.335 7.723 5.376c-0.132-0.144-0.274-0.283-0.423-0.417C7.129 4.807 6.945 4.659 6.752 4.519c-0.02-0.015-0.045-0.023-0.07-0.023 -0.043 0-0.083 0.023-0.104 0.06 -0.061 0.108-0.113 0.232-0.159 0.378 -0.03 0.096-0.054 0.192-0.076 0.285C6.172 5.14 6.003 5.067 5.838 5.003c-0.219-0.086-0.422-0.153-0.602-0.199L5.236 4.804 5.236 4.804C5.226 4.801 5.216 4.8 5.207 4.8 5.171 4.8 5.138 4.816 5.115 4.843 5.092 4.871 5.083 4.907 5.089 4.942l0 0 0 0c0.044 0.229 0.093 0.429 0.149 0.612 0.052 0.172 0.11 0.327 0.176 0.47C5.24 6.056 5.06 6.107 4.866 6.179L4.866 6.179 4.866 6.179C4.833 6.192 4.807 6.218 4.795 6.251 4.784 6.285 4.787 6.321 4.805 6.352L4.805 6.352l0 0c0.129 0.222 0.269 0.426 0.417 0.606C5.35 7.115 5.488 7.259 5.632 7.386 5.522 7.458 5.42 7.541 5.325 7.633l0 0c-0.023 0.022-0.036 0.053-0.036 0.085C5.289 7.75 5.302 7.781 5.325 7.804c0.214 0.211 0.441 0.412 0.673 0.599 0.209 0.168 0.428 0.329 0.652 0.478C6.581 8.938 6.518 8.993 6.458 9.049 6.371 9.13 6.294 9.211 6.223 9.296 6.203 9.32 6.193 9.35 6.195 9.382 6.198 9.413 6.212 9.441 6.235 9.462l0 0C6.328 9.544 6.426 9.624 6.525 9.697c0.1 0.075 0.205 0.146 0.311 0.212 0.107 0.067 0.22 0.13 0.334 0.188 0.081 0.041 0.165 0.081 0.25 0.118 -0.126 0.105-0.244 0.224-0.364 0.37L7.056 10.584l0 0c-0.023 0.028-0.032 0.065-0.025 0.1 0.007 0.035 0.03 0.065 0.062 0.082l0 0c0.169 0.087 0.365 0.164 0.584 0.23 0.115 0.035 0.236 0.066 0.365 0.095 -0.184 0.064-0.365 0.134-0.542 0.21 -0.256 0.11-0.512 0.236-0.762 0.376L6.737 11.677l0 0c-0.035 0.02-0.058 0.056-0.061 0.096 -0.003 0.041 0.015 0.079 0.048 0.103 0.201 0.15 0.384 0.272 0.558 0.376 0.17 0.101 0.337 0.186 0.506 0.257 -0.509 0.429-0.969 0.941-1.401 1.559 -0.026 0.037-0.029 0.084-0.008 0.123 0.021 0.04 0.061 0.064 0.106 0.064 0.005 0 0.01 0 0.016-0.001 0.322-0.041 0.603-0.083 0.859-0.129 0.23-0.041 0.436-0.085 0.626-0.133 -0.075 0.161-0.147 0.334-0.215 0.518l0 0 0 0c-0.013 0.037-0.008 0.078 0.014 0.11 0.022 0.032 0.059 0.051 0.098 0.051 0.004 0 0.009 0 0.013-0.001v0c0.289-0.031 0.539-0.063 0.763-0.096 0.184-0.027 0.348-0.056 0.496-0.085 -0.048 0.084-0.092 0.171-0.134 0.264 -0.06 0.134-0.114 0.277-0.164 0.437 -0.011 0.036-0.005 0.076 0.018 0.106 0.022 0.031 0.059 0.049 0.096 0.049 0.008 0 0.015-0.001 0.022-0.002l0 0c0.236-0.045 0.469-0.096 0.692-0.152 0.225-0.056 0.447-0.119 0.66-0.187 0.214-0.068 0.425-0.143 0.626-0.222 0.174-0.068 0.345-0.142 0.51-0.219 0.013 0.136 0.036 0.268 0.067 0.393 0.036 0.145 0.085 0.286 0.145 0.418 0.109 0.24 0.258 0.46 0.455 0.671 0.024 0.026 0.059 0.041 0.094 0.041 0.032 0 0.063-0.012 0.087-0.034l0 0 0 0 0.49-0.452 0 0 0 0c0.025-0.023 0.04-0.055 0.042-0.089 0.002-0.035-0.009-0.068-0.032-0.094l-0.002-0.002c-0.414-0.473-0.461-0.754-0.444-0.891 0.294 0.131 0.722 0.289 1.181 0.434 0.251 0.08 0.501 0.152 0.741 0.216 0.262 0.069 0.507 0.126 0.729 0.169 0.008 0.001 0.015 0.002 0.023 0.002 0.037 0 0.073-0.018 0.095-0.048 0.022-0.03 0.029-0.07 0.018-0.106l0 0 0 0c-0.051-0.161-0.104-0.304-0.164-0.437 -0.042-0.093-0.086-0.181-0.135-0.264 0.148 0.03 0.312 0.058 0.496 0.085 0.224 0.033 0.474 0.065 0.763 0.096 0.004 0 0.009 0.001 0.013 0.001 0.039 0 0.076-0.019 0.098-0.051 0.022-0.032 0.028-0.073 0.014-0.11l0 0 0 0c-0.068-0.184-0.14-0.357-0.215-0.518 0.19 0.048 0.397 0.091 0.626 0.133 0.256 0.046 0.537 0.088 0.859 0.129l0 0c0.005 0.001 0.01 0.001 0.015 0.001 0.045 0 0.085-0.025 0.106-0.064 0.021-0.04 0.017-0.087-0.008-0.123h0c-0.433-0.619-0.892-1.13-1.401-1.559 0.169-0.072 0.335-0.156 0.506-0.257 0.174-0.103 0.357-0.226 0.558-0.376l0 0 0 0c0.033-0.024 0.05-0.063 0.048-0.104 -0.003-0.041-0.025-0.077-0.061-0.096 -0.25-0.139-0.506-0.266-0.762-0.376 -0.177-0.076-0.358-0.146-0.542-0.21 0.129-0.029 0.25-0.06 0.365-0.095 0.218-0.066 0.415-0.143 0.584-0.23 0.032-0.016 0.055-0.046 0.062-0.082 0.007-0.036-0.002-0.072-0.025-0.1l0 0 0 0c-0.121-0.145-0.239-0.265-0.364-0.369 0.085-0.037 0.169-0.077 0.25-0.118 0.114-0.058 0.227-0.121 0.334-0.188 0.106-0.066 0.211-0.137 0.311-0.212 0.099-0.074 0.197-0.153 0.29-0.235l0 0 0 0c0.023-0.021 0.037-0.049 0.04-0.08 0.002-0.031-0.007-0.062-0.027-0.086 -0.071-0.085-0.148-0.166-0.235-0.247 -0.06-0.056-0.123-0.111-0.193-0.167 0.224-0.15 0.444-0.31 0.652-0.478 0.233-0.187 0.459-0.389 0.673-0.599l0 0 0 0c0.023-0.022 0.036-0.053 0.035-0.085C18.736 7.687 18.723 7.656 18.7 7.633l0 0L18.7 7.633c-0.094-0.092-0.197-0.175-0.307-0.247 0.144-0.127 0.282-0.271 0.411-0.428 0.148-0.181 0.288-0.385 0.417-0.606l0 0 0 0c0.018-0.03 0.021-0.067 0.009-0.1 -0.012-0.033-0.038-0.059-0.07-0.072l0 0 0 0c-0.194-0.073-0.374-0.124-0.548-0.155 0.066-0.143 0.124-0.298 0.176-0.47 0.056-0.183 0.104-0.383 0.149-0.612L18.936 4.942l0 0c0.007-0.035-0.002-0.071-0.025-0.099 -0.023-0.028-0.056-0.043-0.092-0.043 -0.01 0-0.02 0.001-0.029 0.004L18.789 4.804l0 0c-0.18 0.047-0.383 0.114-0.602 0.199 -0.164 0.064-0.334 0.137-0.505 0.217 -0.022-0.093-0.046-0.189-0.076-0.285 -0.046-0.146-0.097-0.27-0.159-0.378 -0.021-0.037-0.061-0.06-0.104-0.06 -0.026 0-0.05 0.008-0.07 0.023 -0.193 0.14-0.377 0.288-0.547 0.44 -0.149 0.133-0.291 0.273-0.423 0.417 -0.029-0.041-0.06-0.079-0.093-0.116 -0.056-0.062-0.12-0.118-0.188-0.168l0 0 0 0C16 5.078 15.976 5.07 15.952 5.07c-0.036 0-0.07 0.016-0.092 0.044 -0.296 0.366-0.559 0.664-0.828 0.936 -0.163 0.166-0.33 0.322-0.495 0.466 -0.123 0.107-0.248 0.209-0.374 0.305 0.174-0.503 0.409-0.985 0.639-1.436l0 0 0 0c0.017-0.033 0.017-0.071 0.002-0.104 -0.015-0.033-0.045-0.057-0.081-0.065l0 0 0 0c-0.077-0.017-0.176-0.031-0.295-0.041 0.137-0.215 0.265-0.455 0.382-0.716 0.123-0.273 0.229-0.559 0.316-0.85 0.011-0.036 0.004-0.074-0.018-0.104 -0.022-0.03-0.057-0.047-0.094-0.047 -0.002 0-0.004 0-0.005 0l0 0c-0.258 0.011-0.554 0.063-0.813 0.142 0.026-0.197 0.035-0.411 0.025-0.639 -0.01-0.239-0.04-0.495-0.088-0.76h0c-0.01-0.056-0.059-0.097-0.117-0.097 -0.014 0-0.028 0.003-0.041 0.008l0 0 0 0c-0.163 0.062-0.348 0.15-0.531 0.254 0.006-0.18 0.001-0.368-0.016-0.562 -0.02-0.226-0.057-0.453-0.105-0.655l0 0 0 0c-0.013-0.053-0.06-0.09-0.114-0.09 0 0 0 0 0 0 -0.013 0-0.026 0.002-0.038 0.007l0 0c-0.117 0.041-0.257 0.108-0.417 0.2 -0.068-0.186-0.155-0.38-0.264-0.59 -0.099-0.191-0.214-0.392-0.373-0.652 -0.011-0.018-0.027-0.033-0.045-0.043C12.052-0.032 12.032-0.037 12.013-0.037L12.013-0.037z" fill="#FFF"/><path d="M14.585 8.072c-.104-.034-.21-.067-.314-.099l.08-.237c.306.093.612.196.912.306l-.08.237c-.103-.038-.207-.075-.31-.111l-.019-.006-.399 1.187c-.083-.029-.167-.057-.249-.084l.399-1.187L14.585 8.072zM14.118 9.718L14.873 9.718 14.873 9.964 14.375 9.964 14.375 10.249 14.714 10.249 14.714 10.495 14.375 10.495 14.375 10.78 14.873 10.78 14.873 11.025 14.118 11.025zM13.983 12.358h.259v.055c0 .044.036.08.08.08h.212c.044 0 .08-.036.08-.08v-.081c0-.03-.021-.059-.043-.07-.006-.003-.464-.207-.464-.207-.087-.044-.125-.133-.125-.23V11.69c0-.143.117-.258.261-.258h.368c.144 0 .261.116.261.258v.121h-.259v-.055c0-.044-.036-.079-.08-.079l-.212 0c-.044 0-.08.036-.08.08v.029c0 .03.021.059.043.07.006.003.464.207.464.207.087.044.125.133.125.23v.187c0 .143-.117.258-.261.258h-.368c-.144 0-.261-.116-.261-.258v-.122h0V12.358zM13.551 8.439l.144-.851c.087.016.173.033.258.05l-.251 1.481c-.068-.014-.136-.027-.205-.04-.096-.284-.193-.572-.291-.856l-.025-.073-.144.851c-.087-.014-.174-.026-.26-.038l.251-1.481c.069.01.138.019.207.03.097.282.195.57.291.854L13.551 8.439zM13.482 11.963L13.482 12.208 13.082 12.208 13.082 12.739 12.824 12.739 12.824 11.432 13.643 11.432 13.643 11.678 13.082 11.678 13.082 11.963zM13.058 11.025L13.058 9.718 13.314 9.718 13.314 10.78 13.787 10.78 13.787 11.025zM10.543 4.876c.354.531.817.973 1.375 1.314.001.001.003 0 .004-.001 0 0 .001-.001.001-.003-.005-.405-.001-.816.011-1.221 0-.014-.006-.027-.017-.035-.311-.238-.564-.536-.75-.886l.007-.004c.21.323.472.6.756.801.003.002.009 0 .009-.005.005-.148.01-.271.016-.387.021-.339.037-.691.05-1.047 0-.013-.004-.025-.012-.035-.258-.31-.456-.601-.605-.888l.007-.004c.18.281.385.543.607.777.001.001.003.001.003.001.002 0 .005-.002.005-.005.017-.549.023-1.099.019-1.636l.008 0c.045.506.066 1.583.05 2.507 0 .002.001.004.002.005.002.002.006.003.008.002.241-.119.486-.287.746-.516l.006.006c-.237.254-.483.451-.752.602-.007.004-.012.012-.012.02-.002.081-.003.155-.006.225-.024.521-.024 1.138-.001 1.887 0 .005.006.007.01.005.612-.437 1.07-.906 1.362-1.395l.007.004c-.238.494-.736 1.051-1.366 1.529-.005.004-.008.01-.008.016.004.117.009.235.014.353 0 .003-.001.006-.003.009-.002.002-.005.004-.009.004l0 0h0l-.133 0c-.006 0-.011-.005-.012-.011-.006-.167-.011-.339-.014-.525 0-.005-.003-.01-.007-.012-.561-.356-1.065-.883-1.383-1.446L10.543 4.876zM10.98 11.963L10.98 12.208 10.58 12.208 10.58 12.493 11.141 12.493 11.141 12.739 10.321 12.739 10.321 11.432 11.141 11.432 11.141 11.678 10.58 11.678 10.58 11.963zM10.841 10.78L10.786 11.025 10.523 11.025 10.844 9.718 11.193 9.718 11.515 11.025 11.252 11.025 11.197 10.78zM11.806 11.432L12.159 11.432 12.512 12.739 12.246 12.739 12.184 12.493 11.781 12.493 11.718 12.739 11.452 12.739zM11.576 8.655V7.723c0-.159.128-.29.285-.292.061-.001.122-.001.184-.001.061 0 .123 0 .184.001.157.002.285.133.285.292v.932c0 .156-.123.279-.285.279-.201-.002-.341 0-.372 0C11.699 8.934 11.576 8.812 11.576 8.655zM12.411 10.643h-.308v.382h-.256V9.718h.564c.143 0 .258.115.258.258v.409C12.669 10.528 12.554 10.643 12.411 10.643zM10.823 7.517c.014-.002.028-.003.042-.003.14 0 .263.105.286.245l.077.476c.02.126-.048.25-.166.3l-.022.01.014.02c.093.132.186.265.28.398-.085.011-.17.023-.256.036-.095-.134-.19-.268-.284-.4l-.007-.01-.012.002c-.036.006-.073.012-.109.018l-.019.003.072.445c-.086.015-.173.031-.259.047l-.24-1.483C10.419 7.581 10.622 7.547 10.823 7.517zM9.981 12.493L9.981 12.739 9.216 12.739 9.216 11.432 9.475 11.432 9.475 12.493zM9.935 11.025L9.935 10.422 9.704 10.945 9.473 10.422 9.473 11.025 9.216 11.025 9.216 9.718 9.42 9.718 9.704 10.373 9.987 9.718 10.191 9.718 10.191 11.025zM7.4 7.289C7.396 7.284 7.39 7.282 7.384 7.282c-.013 0-.026 0-.039 0-.385 0-.732-.098-1.062-.3l.004-.007c.312.149.604.221.893.221.041 0 .083-.002.124-.005-.072-.072-.138-.136-.2-.194C6.683 6.589 6.336 6.219 6.042 5.869l.006-.005c.349.365.653.666.928.919L6.98 6.781C7.018 6.549 6.999 6.33 6.923 6.112l.007-.003c.109.224.153.47.131.73-.001.01.003.02.011.027.249.219.484.44.7.655.001 0 .001 0 .001-.001 0-.305-.082-.578-.253-.835l.006-.005c.226.264.344.577.35.929 0 .01.004.02.011.027.034.035.068.07.1.104.002.002.003.006.003.009C7.991 7.753 7.989 7.756 7.986 7.758L7.895 7.801C7.893 7.801 7.892 7.802 7.89 7.802c-.003 0-.007-.001-.009-.004C7.697 7.597 7.539 7.43 7.4 7.289zM8.63 9.797L8.055 8.685 8.037 8.694C7.94 8.745 7.843 8.798 7.747 8.851L7.632 8.629C7.911 8.474 8.198 8.325 8.486 8.187l.115.222c-.099.047-.198.096-.296.146L8.288 8.564l.576 1.112C8.786 9.716 8.707 9.756 8.63 9.797zM9.085 7.95c.115-.04.232-.08.348-.118.028-.009.058-.014.087-.014.123 0 .237.082.276.199l.299.883c.024.071.019.147-.014.213C10.048 9.181 9.989 9.231 9.916 9.255c-.116.038-.234.078-.349.118C9.536 9.384 9.504 9.39 9.471 9.39c-.119 0-.225-.076-.263-.189L8.909 8.318C8.858 8.167 8.937 8.002 9.085 7.95zM13.902 13.778c-.156 0-.3-.015-.436-.038-.002 0-.004.002-.002.004.133.129.398.261.548.32l.071.028-.075-.013c-.175-.029-.541-.203-.74-.376-.002-.002-.005-.003-.008-.004-.326-.074-.605-.173-.884-.173-.363 0-.627.083-.758.444-.007-.081.001-.153.02-.216.001-.003 0-.005-.002-.007-.071-.047-.34-.214-.607-.214-.401 0-.917.45-1.313.496.192-.065.407-.209.624-.341.002-.001.001-.004-.001-.005-.366-.072-.826.007-1.314.131.467-.181.945-.278 1.443-.204.003 0 .005 0 .007-.002.187-.106.373-.188.543-.188.316 0 .588.164.67.218.002.001.005.001.006-.001.126-.185.386-.26.659-.26.433 0 1.1.321 1.632.321.583 0 .749-.053.923-.09C14.744 13.674 14.483 13.778 13.902 13.778zM16.309 8.874l-.428.828c-.048.093-.142.151-.247.151-.046 0-.093-.012-.134-.034-.108-.058-.218-.114-.327-.169-.069-.034-.12-.093-.143-.165-.023-.071-.017-.146.018-.213l.428-.828c.05-.096.152-.158.26-.158.045 0 .087.01.127.03.109.055.219.111.326.169C16.328 8.558 16.382 8.732 16.309 8.874zM16.522 7.352c.038.002.077.004.115.004.266 0 .524-.059.812-.187l.004.007c-.296.181-.629.272-1.016.276-.012 0-.024.005-.032.014-.111.116-.207.218-.294.314-.003.003-.006.005-.01.005-.002 0-.004-.001-.006-.002l-.093-.048c-.003-.002-.005-.004-.005-.008-.001-.003 0-.006.003-.009.235-.243.492-.489.765-.732.008-.007.013-.018.012-.029-.022-.292.009-.549.095-.786l.008.002c-.048.244-.056.494-.022.723 0 .002.002.003.003.003.001 0 .002 0 .002-.001.36-.341.694-.667 1.022-.997l.006.005c-.277.324-.579.652-.898.974-.157.149-.316.306-.472.466-.001.001-.001.003-.001.003C16.52 7.35 16.521 7.352 16.522 7.352z" fill="#00205B"/><path d="M9.543 9.11L9.543 9.11c0.013 0 0.025-0.002 0.037-0.006 0.053-0.019 0.107-0.037 0.161-0.055 0.029-0.01 0.052-0.03 0.066-0.057C9.82 8.965 9.822 8.934 9.813 8.906L9.564 8.172C9.548 8.125 9.505 8.094 9.456 8.094c-0.012 0-0.024 0.002-0.036 0.006C9.366 8.118 9.312 8.136 9.258 8.155 9.199 8.175 9.168 8.24 9.188 8.299l0.249 0.734C9.452 9.079 9.495 9.11 9.543 9.11z" fill="#00205B"/><path d="M11.919 6.325c.004.003.007.007.007.012.003.186.008.358.014.525 0 .006.005.011.012.011l.133 0h0l0 0c.003 0 .006-.001.009-.004.002-.002.004-.006.003-.009-.005-.117-.01-.236-.014-.353 0-.006.003-.012.008-.016.63-.477 1.128-1.034 1.366-1.529l-.007-.004c-.292.489-.751.958-1.362 1.395-.004.002-.01 0-.01-.005-.024-.748-.023-1.365.001-1.887.002-.07.004-.144.006-.225 0-.008.005-.016.012-.02.269-.151.515-.348.752-.602L12.843 3.612c-.261.228-.505.397-.746.516-.003.001-.006.001-.008-.002-.001-.001-.002-.003-.002-.005.016-.924-.005-2.001-.05-2.507l-.008 0c.005.537-.002 1.087-.019 1.636 0 .003-.003.005-.005.005 0 0-.002 0-.003-.001-.222-.235-.426-.496-.607-.777l-.007.004c.149.287.347.578.605.888.008.01.012.022.012.035-.012.356-.029.708-.05 1.047-.006.116-.011.239-.016.387 0 .005-.006.007-.009.005-.284-.202-.545-.479-.756-.801l-.007.004c.187.35.439.648.75.886.011.008.017.021.017.035-.012.405-.016.815-.011 1.221 0 .001-.001.002-.001.003-.001.001-.003.001-.004.001C11.36 5.849 10.897 5.407 10.543 4.876l-.007.004C10.854 5.443 11.358 5.969 11.919 6.325zM7.89 7.802c.002 0 .004 0 .005-.001l.091-.043c.003-.002.005-.004.006-.008.001-.003 0-.007-.003-.009C7.957 7.707 7.923 7.673 7.889 7.638 7.881 7.63 7.877 7.621 7.877 7.61c-.006-.353-.124-.665-.35-.929L7.521 6.686c.171.257.253.53.253.835 0 .001-.001.001-.001.001C7.557 7.306 7.321 7.085 7.073 6.866 7.065 6.859 7.061 6.849 7.062 6.839 7.083 6.579 7.039 6.333 6.93 6.109L6.923 6.112c.076.218.095.437.057.669L6.976 6.782C6.701 6.529 6.398 6.229 6.048 5.863L6.042 5.869c.294.35.641.72 1.061 1.13.062.058.127.121.2.194C7.262 7.195 7.22 7.197 7.179 7.197c-.289 0-.581-.072-.893-.221L6.283 6.983c.33.202.677.3 1.062.3.013 0 .026 0 .039 0 .006 0 .012.002.016.006.139.142.297.308.481.509C7.883 7.8 7.886 7.802 7.89 7.802zM16.992 6.881c.319-.323.621-.65.898-.974l-.006-.005c-.328.33-.663.656-1.022.997-.001.001-.002.001-.002.001-.001 0-.003-.001-.003-.003-.034-.229-.026-.479.022-.723l-.008-.002c-.086.237-.117.494-.095.786.001.011-.004.022-.012.029-.273.244-.53.49-.765.732-.002.002-.003.006-.003.009.001.003.002.006.005.008l.093.048c.002.001.004.002.006.002.004 0 .008-.002.01-.005.087-.095.183-.198.294-.314.008-.009.02-.014.032-.014.387-.005.719-.095 1.016-.276l-.004-.007c-.289.127-.547.187-.812.187-.038 0-.076-.001-.115-.004-.002 0-.003-.002-.003-.002 0-.001-.001-.002.001-.003C16.676 7.187 16.835 7.03 16.992 6.881zM12.353 13.376c-.274 0-.533.075-.659.26-.001.002-.004.003-.006.001-.082-.054-.354-.218-.67-.218-.17 0-.356.083-.543.188-.002.001-.005.002-.007.002-.498-.073-.975.023-1.443.204.488-.123.948-.202 1.314-.131.002 0 .003.003.001.005-.217.132-.432.276-.624.341.396-.046.912-.496 1.313-.496.267 0 .536.167.607.214.002.002.003.004.002.007-.02.063-.027.134-.02.216.13-.361.395-.444.758-.444.279 0 .558.099.884.173.003.001.006.002.008.004.199.173.565.347.74.376l.075.013-.071-.028c-.149-.058-.414-.19-.548-.32-.002-.002 0-.004.002-.004.136.023.28.038.436.038.58 0 .842-.104 1.006-.171-.175.037-.341.09-.923.09C13.454 13.697 12.786 13.376 12.353 13.376zM8.306 8.555c.098-.049.197-.098.296-.146L8.486 8.187c-.288.138-.575.287-.854.442l.115.222C7.843 8.798 7.94 8.745 8.037 8.694l.018-.009.576 1.112c.077-.041.155-.081.233-.121L8.288 8.564 8.306 8.555zM9.471 9.39c.032 0 .065-.006.096-.017C9.682 9.332 9.8 9.293 9.916 9.255c.073-.024.132-.074.166-.142.033-.066.038-.142.014-.213L9.797 8.017C9.757 7.9 9.643 7.818 9.52 7.818c-.03 0-.059.005-.087.014C9.317 7.87 9.2 7.91 9.085 7.95c-.148.052-.228.217-.176.368L9.208 9.201C9.246 9.314 9.352 9.39 9.471 9.39zM9.258 8.155c.054-.019.107-.037.161-.055.012-.004.024-.006.036-.006.049 0 .093.031.108.078l.249.734c.01.029.008.059-.006.086C9.794 9.019 9.77 9.039 9.741 9.049 9.688 9.067 9.634 9.085 9.58 9.103c-.012.004-.024.006-.037.006l0 0c-.048 0-.091-.031-.107-.076L9.188 8.299C9.168 8.24 9.199 8.175 9.258 8.155zM12.229 8.934c.161 0 .285-.122.285-.279V7.723c0-.159-.128-.29-.285-.292-.061-.001-.122-.001-.184-.001-.061 0-.122 0-.184.001-.157.002-.285.133-.285.292v.932c0 .156.124.279.281.279C11.887 8.934 12.027 8.932 12.229 8.934zM11.846 7.795c0-.063.051-.114.113-.114.057 0 .114 0 .17 0 .062 0 .113.052.113.114v.775c0 .062-.051.113-.113.113-.058 0-.114 0-.17 0-.063 0-.114-.05-.114-.113v-.775H11.846zM11.781 12.493h.403l.062.246h.266l-.354-1.307h-.352l-.354 1.307h.266L11.781 12.493zM11.982 11.703l.139.545h-.278L11.982 11.703zM12.669 10.385V9.976c0-.143-.116-.258-.258-.258h-.564v1.307h.256v-.382h.308C12.554 10.643 12.669 10.528 12.669 10.385zM12.414 10.318c0 .044-.036.079-.079.079h-.231v-.434h.231c.044 0 .079.036.079.079v.275H12.414zM9.216 11.432L9.216 12.739 9.981 12.739 9.981 12.493 9.475 12.493 9.475 11.432zM10.191 9.718L9.987 9.718 9.704 10.373 9.42 9.718 9.216 9.718 9.216 11.025 9.473 11.025 9.473 10.422 9.704 10.945 9.935 10.422 9.935 11.025 10.191 11.025zM10.718 9.056l-.072-.445.019-.003c.036-.006.073-.012.109-.018l.012-.002.007.01c.095.133.189.267.284.4.085-.013.171-.025.255-.036-.093-.133-.187-.266-.28-.398l-.014-.02.022-.01c.118-.05.187-.174.166-.3l-.077-.476c-.023-.14-.146-.245-.286-.245-.014 0-.028.001-.042.003-.201.03-.404.065-.604.103l.24 1.483C10.545 9.087 10.632 9.071 10.718 9.056zM10.537 7.816c.079-.014.158-.027.236-.039.062-.01.12.034.13.095l.052.32c.005.03-.002.06-.02.084-.018.024-.044.04-.074.045-.079.012-.157.025-.236.039l-.02.003-.088-.544L10.537 7.816zM11.252 11.025h.263l-.322-1.307h-.349l-.322 1.307h.263l.055-.246h.355L11.252 11.025zM10.896 10.534l.122-.545.122.545H10.896zM13.643 11.678L13.643 11.432 12.824 11.432 12.824 12.739 13.082 12.739 13.082 12.208 13.482 12.208 13.482 11.963 13.082 11.963 13.082 11.678zM13.029 7.481l-.251 1.481c.086.012.173.025.26.038l.144-.851.025.073c.097.284.195.572.291.856.068.013.137.026.205.04l.251-1.481c-.085-.017-.171-.034-.258-.05l-.144.851-.025-.074c-.096-.284-.193-.572-.291-.854C13.167 7.5 13.098 7.49 13.029 7.481zM14.244 12.739h.368c.144 0 .261-.116.261-.258v-.187c0-.097-.038-.186-.125-.23 0 0-.458-.204-.464-.207-.022-.012-.043-.041-.043-.07v-.029c0-.044.036-.08.08-.08l.212 0c.044 0 .08.036.08.079v.055h.259v-.121c0-.143-.117-.258-.261-.258h-.368c-.144 0-.261.116-.261.258v.135c0 .097.038.186.125.23 0 0 .458.204.464.207.022.012.043.041.043.07v.081c0 .044-.036.08-.08.08h-.212c-.044 0-.08-.036-.08-.08v-.055h-.259v.122C13.983 12.623 14.1 12.739 14.244 12.739zM14.873 10.78L14.375 10.78 14.375 10.495 14.714 10.495 14.714 10.249 14.375 10.249 14.375 9.964 14.873 9.964 14.873 9.718 14.118 9.718 14.118 11.025 14.873 11.025zM13.787 10.78L13.314 10.78 13.314 9.718 13.058 9.718 13.058 11.025 13.787 11.025zM14.454 9.349l.399-1.187.019.006c.103.036.207.073.31.111l.08-.237C14.962 7.932 14.656 7.828 14.35 7.736l-.08.237c.104.032.21.065.314.099l.019.006-.399 1.187C14.288 9.292 14.371 9.32 14.454 9.349zM11.141 11.678L11.141 11.432 10.321 11.432 10.321 12.739 11.141 12.739 11.141 12.493 10.58 12.493 10.58 12.208 10.98 12.208 10.98 11.963 10.58 11.963 10.58 11.678zM16.189 8.484c-.107-.057-.217-.114-.326-.169-.04-.02-.082-.03-.127-.03-.109 0-.211.062-.26.158l-.428.828c-.034.067-.041.142-.018.213.023.072.074.131.143.165.109.055.219.111.327.169.042.022.088.034.134.034.104 0 .199-.058.247-.151l.428-.828C16.382 8.732 16.328 8.558 16.189 8.484zM16.036 8.814l-.356.688c-.019.038-.058.061-.1.061-.018 0-.036-.004-.053-.013-.05-.026-.101-.052-.151-.078-.027-.014-.047-.037-.056-.066-.009-.029-.007-.059.007-.086l.356-.688c.02-.038.059-.062.102-.062.018 0 .036.004.051.012.051.026.101.052.151.078C16.043 8.689 16.065 8.758 16.036 8.814z" fill="#FFF"/><path d="M15.374 15.01v0.266h-0.067v-0.266H15.231v-0.066h0.221v0.066H15.374zM15.735 15.277v-0.196l-0.056 0.122h-0.059l-0.056-0.122v0.196h-0.067v-0.333h0.067l0.086 0.178 0.086-0.178h0.067v0.333H15.735z" fill="#00205B"/></svg>