<svg viewBox="0 0 24 16" xmlns="http://www.w3.org/2000/svg"><path d="m12.334 9.964h-.231v.434h.231c.044 0 .079-.036.079-.079v-.275c.001-.044-.035-.08-.079-.08zm-1.708-1.604c.078-.014.157-.027.236-.039.03-.005.056-.021.074-.045s.025-.054.02-.084l-.052-.32c-.01-.06-.068-.104-.13-.095-.079.012-.158.025-.236.039l-.019.003.088.544zm1.334.323h.17c.062 0 .113-.05.113-.113v-.775c0-.063-.051-.114-.113-.114-.057 0-.114 0-.17 0-.063 0-.113.052-.113.114v.775c-.001.062.05.113.113.113zm.022 3.02-.138.545h.277zm-1.086-1.169h.245l-.122-.544zm5.091-1.874c-.05-.026-.101-.052-.151-.078-.016-.008-.034-.012-.051-.012-.043 0-.082.024-.102.062l-.356.688c-.014.027-.016.057-.007.086s.029.052.056.066c.05.026.101.052.151.078.016.008.034.013.053.013.042 0 .081-.023.1-.061l.356-.688c.029-.056.007-.125-.049-.154z" fill="#00205b"/><path d="m12.242 16.041c-.023 0-.044-.009-.06-.026-.193-.208-.339-.424-.447-.659-.059-.13-.107-.267-.142-.41s-.059-.296-.071-.454c-.371.177-.771.334-1.192.467-.422.134-.875.248-1.347.338-.004.001-.009.001-.014.001-.023 0-.045-.011-.058-.03-.014-.019-.017-.043-.011-.064.097-.308.208-.558.35-.783-.342.074-.788.141-1.36.203-.003 0-.005 0-.008 0-.024 0-.046-.012-.059-.031-.014-.019-.017-.044-.009-.066.08-.218.167-.421.257-.605-.421.112-.924.203-1.577.286-.003 0-.006.001-.009.001-.027 0-.051-.015-.064-.039-.012-.024-.011-.053.005-.075.447-.639.923-1.163 1.453-1.6-.363-.146-.712-.349-1.126-.657-.02-.015-.031-.038-.029-.063s.015-.046.037-.058c.474-.264.953-.473 1.46-.638-.451-.089-.814-.205-1.106-.356-.02-.008-.034-.026-.038-.048s.001-.044.015-.061c.138-.166.272-.298.419-.412-.228-.095-.447-.207-.65-.333-.209-.13-.409-.278-.595-.442-.029-.026-.033-.071-.008-.101.128-.152.282-.298.473-.448-.242-.159-.479-.331-.703-.512-.231-.186-.457-.387-.67-.596-.014-.013-.021-.032-.021-.052 0-.019.007-.037.021-.051.107-.104.226-.197.352-.275-.159-.136-.311-.292-.452-.464-.146-.179-.285-.381-.413-.6-.01-.019-.012-.041-.005-.061s.023-.036.043-.044c.214-.08.411-.134.601-.163-.148-.303-.259-.663-.348-1.127-.004-.021.001-.043.015-.06s.034-.026.055-.026c.006 0 .012.001.018.002h.001c.433.113.897.318 1.151.438.057-.25.121-.491.243-.707.013-.023.037-.037.063-.037.015 0 .03.005.042.014.192.139.375.286.544.437.163.146.318.3.46.458.082-.128.182-.233.304-.321.013-.009.027-.014.042-.014.022 0 .042.01.056.026.433.538 1.096 1.281 1.826 1.807-.179-.558-.437-1.092-.691-1.586-.01-.02-.011-.043-.001-.063.009-.02.027-.034.048-.039.091-.021.215-.036.367-.046-.295-.449-.556-1.022-.735-1.621-.006-.021-.002-.044.011-.062s.035-.029.057-.029h.003c.278.012.601.073.872.162-.034-.214-.046-.45-.036-.704.01-.237.04-.491.088-.754.006-.034.036-.059.07-.059.009 0 .017.002.025.005.183.069.395.173.599.293-.012-.203-.008-.419.012-.641.02-.224.056-.448.104-.649.008-.032.036-.054.068-.054.008 0 .016.001.023.004.125.044.279.119.458.224.158-.452.407-.886.652-1.287.013-.022.036-.035.062-.035.025 0 .048.013.062.035.159.259.273.459.372.649.119.229.211.438.281.638.178-.105.332-.181.458-.224.007-.003.015-.004.023-.004.032 0 .06.022.068.054.048.201.084.425.104.649.02.223.024.438.012.641.204-.121.415-.224.599-.293.008-.003.017-.005.025-.005.035 0 .064.025.07.059.048.263.078.517.088.754.011.254-.001.49-.035.704.271-.089.594-.15.872-.162h.003c.022 0 .043.011.057.028.013.018.017.041.011.062-.179.599-.44 1.172-.736 1.62.153.01.276.025.367.046.021.005.039.019.048.039s.009.043-.001.063c-.253.494-.511 1.027-.69 1.585.794-.582 1.391-1.268 1.825-1.805.013-.017.034-.026.055-.026.015 0 .029.005.041.013.123.088.222.194.304.321.142-.158.297-.312.46-.458.169-.151.352-.298.543-.437.012-.009.027-.014.043-.014.026 0 .05.014.063.036.123.217.186.458.243.707.254-.12.719-.325 1.151-.438.006-.001.012-.002.018-.002.021 0 .042.01.056.026.014.017.019.039.015.06-.09.464-.201.824-.348 1.127.19.03.387.083.601.163.02.008.036.023.043.044.007.02.005.042-.005.061l.002.003c-.128.219-.267.421-.413.6-.141.172-.293.328-.453.464.127.079.245.171.352.275.014.014.022.032.022.051s-.008.038-.021.052c-.213.21-.439.41-.67.596-.224.181-.461.353-.703.512.191.15.345.297.472.448.025.03.022.075-.007.1-.185.164-.385.313-.595.443-.203.126-.421.238-.65.333.147.114.28.246.419.412.014.017.019.039.015.061s-.018.04-.038.049c-.292.15-.655.267-1.106.356.507.164.986.373 1.46.638.021.012.035.034.037.058.002.025-.009.048-.029.063-.414.308-.764.512-1.126.657.53.437 1.005.96 1.453 1.6.015.022.017.051.005.075-.013.024-.037.039-.064.039-.003 0-.006 0-.009-.001-.653-.083-1.156-.174-1.577-.286.09.184.176.388.257.605.008.022.005.047-.009.066s-.036.031-.059.031c-.003 0-.005 0-.008 0-.572-.062-1.018-.128-1.36-.203.141.225.253.475.35.784.007.022.003.046-.011.064-.013.018-.035.029-.057.029-.005 0-.009 0-.014-.001-.541-.104-1.095-.266-1.465-.384-.469-.149-.906-.31-1.199-.443-.004-.002-.007-.002-.011-.002-.011 0-.023.007-.026.02-.031.15.022.34.158.566.11.184.243.336.293.393l.002.002c.03.034.027.086-.006.117l-.49.452c-.016.015-.036.022-.057.022z" fill="#00205b"/><path d="m12.013.057c.008 0 .017.004.021.012.262.429.505.86.657 1.304.003.01.013.017.023.017.004 0 .009-.001.013-.004.161-.096.33-.184.473-.234.003-.001.005-.001.008-.001.01 0 .02.007.022.018.094.392.143.879.112 1.32-.001.015.011.026.024.026.004 0 .008-.001.013-.004.206-.124.432-.238.629-.312.003-.001.006-.002.008-.002.011 0 .022.008.024.02.089.487.127 1.012.046 1.481-.003.015.009.027.023.027.003 0 .005 0 .008-.001.28-.097.617-.16.897-.172h.001c.016 0 .027.015.022.03-.162.542-.418 1.145-.752 1.641-.01.015 0 .036.018.037.141.008.289.022.4.047.015.004.023.021.016.035-.264.516-.536 1.077-.716 1.666-.005.015.008.028.021.028.004 0 .008-.001.012-.004.794-.568 1.408-1.254 1.897-1.859.005-.006.012-.009.019-.009.005 0 .01.001.014.005.131.094.231.207.307.333.005.008.013.012.021.012.007 0 .013-.003.018-.008.296-.332.636-.635 1.017-.91.004-.003.01-.005.015-.005.009 0 .017.004.022.013.129.228.192.49.244.723.003.011.012.018.023.018.003 0 .007-.001.01-.002.36-.172.792-.349 1.169-.447.002-.001.004-.001.006-.001.015 0 .028.014.025.03-.081.419-.19.806-.358 1.143-.008.015.002.033.018.035.205.029.407.085.622.165.015.006.021.023.013.037-.252.434-.544.792-.879 1.072-.013.011-.011.031.003.04.137.082.26.177.371.285.01.01.01.026 0 .036-.425.418-.888.791-1.391 1.119-.015.01-.015.03-.002.041.185.144.349.292.489.46.009.01.007.026-.003.035-.365.323-.782.584-1.267.782-.018.007-.021.031-.005.043.172.13.312.273.441.428.01.012.006.031-.008.038-.346.178-.767.293-1.203.372-.02.004-.021.031-.002.037.557.172 1.068.395 1.558.668.016.009.017.031.003.042-.359.267-.725.499-1.151.665-.018.007-.022.03-.007.042.582.474 1.058 1.02 1.473 1.614.012.017-.001.04-.021.04-.001 0-.002 0-.003 0-.593-.075-1.145-.168-1.621-.298-.002-.001-.005-.001-.007-.001-.017 0-.029.018-.021.035.102.203.194.42.278.647.006.017-.007.034-.024.034-.001 0-.002 0-.003 0-.535-.058-1.021-.126-1.409-.214-.002 0-.004-.001-.006-.001-.019 0-.031.021-.02.038.164.25.281.521.374.818.005.016-.007.032-.023.032-.002 0-.003 0-.005 0-.919-.177-2.089-.568-2.654-.823-.01-.005-.02-.007-.031-.007-.034 0-.065.023-.072.058-.079.385.367.891.464 1.001.013.015.012.038-.003.052l-.49.452c-.007.006-.015.009-.024.009s-.018-.004-.025-.011c-.349-.376-.604-.843-.649-1.515-.001-.018-.016-.03-.032-.03-.005 0-.009.001-.014.003-.757.363-1.61.631-2.548.81-.002 0-.003 0-.005 0-.016 0-.029-.016-.024-.033.093-.297.21-.568.374-.818.011-.017-.001-.038-.02-.038-.002 0-.004 0-.006.001-.388.088-.874.156-1.409.214-.001 0-.002 0-.003 0-.017 0-.03-.017-.024-.034.084-.227.176-.443.278-.647.008-.017-.004-.035-.021-.035-.002 0-.004 0-.007.001-.476.13-1.028.223-1.621.298-.001 0-.002 0-.003 0-.02 0-.032-.023-.021-.04.416-.594.892-1.14 1.473-1.614.015-.012.011-.035-.007-.042-.426-.166-.792-.398-1.151-.665-.015-.011-.013-.033.003-.042.49-.273 1.001-.495 1.558-.668.019-.006.018-.033-.002-.037-.436-.079-.856-.194-1.203-.372-.014-.007-.018-.026-.008-.038.129-.155.269-.298.441-.428.016-.012.013-.036-.005-.043-.476-.198-.894-.459-1.258-.782-.011-.009-.012-.024-.003-.035.14-.167.303-.316.489-.46.014-.011.013-.032-.002-.041-.503-.328-.966-.701-1.391-1.119-.01-.009-.01-.025 0-.035.111-.108.234-.204.371-.285.014-.009.016-.029.003-.04-.335-.279-.627-.638-.879-1.072-.008-.014-.002-.031.013-.037.215-.081.417-.136.622-.165.017-.002.026-.02.018-.035-.167-.337-.276-.723-.357-1.143-.003-.016.009-.03.025-.03.002 0 .004 0 .006.001.378.098.81.276 1.169.447.004.002.007.003.011.003.011 0 .02-.007.023-.018.052-.234.115-.496.244-.724.005-.008.013-.013.022-.013.005 0 .01.002.015.005.38.275.72.578 1.017.91.005.006.012.008.018.008.008 0 .016-.004.021-.012.076-.126.176-.239.307-.333.004-.002.009-.004.014-.004.007 0 .014.003.019.009.521.649 1.196 1.37 1.899 1.861.004.003.008.004.012.004.013 0 .025-.013.02-.027-.181-.59-.452-1.152-.717-1.669-.007-.014.001-.031.016-.035.111-.025.26-.039.4-.047.019-.001.029-.022.018-.037-.334-.496-.59-1.099-.752-1.641-.004-.015.007-.031.023-.031h.001c.28.012.617.075.897.172.003.001.005.001.008.001.014 0 .025-.012.023-.027-.082-.469-.044-.994.046-1.481.002-.012.013-.02.024-.02.003 0 .006 0 .008.002.197.074.423.188.629.312.004.002.008.004.013.004.013 0 .025-.011.024-.026-.031-.44.018-.927.112-1.32.003-.011.012-.018.022-.018.003 0 .005 0 .008.001.144.05.312.138.473.234.004.002.008.004.013.004.01 0 .019-.006.023-.017.152-.444.395-.875.657-1.304.003-.007.011-.011.02-.011m0-.094c-.02 0-.039.005-.057.014-.019.01-.034.025-.045.043-.159.26-.274.462-.373.652-.109.211-.196.405-.264.59-.161-.092-.301-.159-.417-.2-.012-.004-.025-.007-.039-.007-.026.002-.052.01-.072.026-.021.016-.036.039-.042.065-.049.203-.085.429-.105.655-.017.193-.023.382-.016.562-.183-.103-.368-.192-.531-.254-.013-.005-.027-.008-.041-.008-.057 0-.106.041-.117.097l-.001.002c-.049.265-.078.521-.088.76-.009.228-.001.442.025.639-.259-.078-.555-.13-.813-.142-.002 0-.004 0-.005 0-.037 0-.073.018-.095.048-.022.029-.029.068-.018.104.087.29.193.576.316.849.117.261.245.501.382.716-.119.01-.218.024-.295.042-.036.008-.065.032-.081.065-.015.033-.015.071.002.104.231.451.466.935.641 1.439-.679-.515-1.291-1.204-1.698-1.71-.023-.028-.056-.044-.092-.044-.025 0-.048.007-.068.022h-.001c-.069.05-.133.106-.189.168-.033.036-.064.075-.093.116-.132-.144-.274-.283-.423-.417-.171-.152-.355-.3-.548-.44-.02-.015-.045-.023-.07-.023-.043 0-.083.023-.104.06-.061.108-.113.232-.159.378-.03.096-.054.192-.076.285-.171-.079-.34-.152-.505-.216-.219-.086-.422-.153-.602-.199-.01-.003-.02-.004-.029-.004-.036 0-.069.016-.092.043-.023.028-.032.064-.026.099.044.229.093.429.149.612.052.172.11.327.176.47-.174.032-.354.083-.548.155-.033.013-.059.039-.071.072-.011.034-.008.07.01.101.129.222.269.426.417.606.128.157.266.301.41.428-.11.072-.212.155-.307.247-.023.022-.036.053-.036.085s.013.063.036.086c.214.211.441.412.673.599.209.168.428.329.652.478-.069.057-.132.112-.192.168-.087.081-.164.162-.235.247-.02.024-.03.054-.028.086.003.031.017.059.04.08.093.082.191.162.29.235.1.075.205.146.311.212.107.067.22.13.334.188.081.041.165.081.25.118-.126.105-.244.224-.364.37v-.001c-.023.028-.032.065-.025.1s.03.065.062.082c.169.087.365.164.584.23.115.035.236.066.365.095-.184.064-.365.134-.542.21-.256.11-.512.236-.762.376h-.001c-.035.02-.058.056-.061.096-.003.041.015.079.048.103.201.15.384.272.558.376.17.101.337.186.506.257-.509.429-.969.941-1.401 1.559-.026.037-.029.084-.008.123.021.04.061.064.106.064.005 0 .01 0 .016-.001.322-.041.603-.083.859-.129.23-.041.436-.085.626-.133-.075.161-.147.334-.215.518-.013.037-.008.078.014.11s.059.051.098.051c.004 0 .009 0 .013-.001.289-.031.539-.063.763-.096.184-.027.348-.056.496-.085-.048.084-.092.171-.134.264-.06.134-.114.277-.164.437-.011.036-.005.076.018.106.022.031.059.049.096.049.008 0 .015-.001.022-.002.236-.045.469-.096.692-.152.225-.056.447-.119.66-.187.214-.068.425-.143.626-.222.174-.068.345-.142.51-.219.013.136.036.268.067.393.036.145.085.286.145.418.109.24.258.46.455.671.024.026.059.041.094.041.032 0 .063-.012.087-.034l.49-.452c.025-.023.04-.055.042-.089.002-.035-.009-.068-.032-.094l-.002-.002c-.414-.473-.461-.754-.444-.891.294.131.722.289 1.181.434.251.08.501.152.741.216.262.069.507.126.729.169.008.001.015.002.023.002.037 0 .073-.018.095-.048s.029-.07.018-.106c-.051-.161-.104-.304-.164-.437-.042-.093-.086-.181-.135-.264.148.03.312.058.496.085.224.033.474.065.763.096.004 0 .009.001.013.001.039 0 .076-.019.098-.051s.028-.073.014-.11c-.068-.184-.14-.357-.215-.518.19.048.397.091.626.133.256.046.537.088.859.129.005.001.01.001.015.001.045 0 .085-.025.106-.064.021-.04.017-.087-.008-.123-.433-.619-.892-1.13-1.401-1.559.169-.072.335-.156.506-.257.174-.103.357-.226.558-.376.033-.024.05-.063.048-.104-.003-.041-.025-.077-.061-.096-.25-.139-.506-.266-.762-.376-.177-.076-.358-.146-.542-.21.129-.029.25-.06.365-.095.218-.066.415-.143.584-.23.032-.016.055-.046.062-.082s-.002-.072-.025-.1c-.121-.145-.239-.265-.364-.369.085-.037.169-.077.25-.118.114-.058.227-.121.334-.188.106-.066.211-.137.311-.212.099-.074.197-.153.29-.235.023-.021.037-.049.04-.08.002-.031-.007-.062-.027-.086-.071-.085-.148-.166-.235-.247-.06-.056-.123-.111-.193-.167.224-.15.444-.31.652-.478.233-.187.459-.389.673-.599.023-.022.036-.053.035-.085 0-.033-.013-.064-.036-.087-.094-.092-.197-.175-.307-.247.144-.127.282-.271.411-.428.148-.181.288-.385.417-.606.018-.03.021-.067.009-.1s-.038-.059-.07-.072c-.194-.073-.374-.124-.548-.155.066-.143.124-.298.176-.47.056-.183.104-.383.149-.612l-.001-.001c.007-.035-.002-.071-.025-.099s-.056-.043-.092-.043c-.01 0-.02.001-.029.004h-.001c-.18.047-.383.114-.602.199-.164.064-.334.137-.505.217-.022-.093-.046-.189-.076-.285-.046-.146-.097-.27-.159-.378-.021-.037-.061-.06-.104-.06-.026 0-.05.008-.07.023-.193.14-.377.288-.547.44-.149.133-.291.273-.423.417-.029-.041-.06-.079-.093-.116-.056-.062-.12-.118-.188-.168-.022-.015-.046-.023-.07-.023-.036 0-.07.016-.092.044-.296.366-.559.664-.828.936-.163.166-.33.322-.495.466-.123.107-.248.209-.374.305.174-.503.409-.985.639-1.436.017-.033.017-.071.002-.104s-.045-.057-.081-.065c-.077-.017-.176-.031-.295-.041.137-.215.265-.455.382-.716.123-.273.229-.559.316-.85.011-.036.004-.074-.018-.104s-.057-.047-.094-.047c-.002 0-.004 0-.005 0-.258.011-.554.063-.813.142.026-.197.035-.411.025-.639-.01-.239-.04-.495-.088-.76-.01-.056-.059-.097-.117-.097-.014 0-.028.003-.041.008-.163.062-.348.15-.531.254.006-.18.001-.368-.016-.562-.02-.226-.057-.453-.105-.655-.013-.053-.06-.09-.114-.09-.013 0-.026.002-.038.007-.117.041-.257.108-.417.2-.068-.186-.155-.38-.264-.59-.099-.191-.214-.392-.373-.652-.011-.018-.027-.033-.045-.043-.02-.013-.04-.018-.059-.018z" fill="#fff"/><path d="m14.585 8.072c-.104-.034-.21-.067-.314-.099l.08-.237c.306.093.612.196.912.306l-.08.237c-.103-.038-.207-.075-.31-.111l-.019-.006-.399 1.187c-.083-.029-.167-.057-.249-.084l.399-1.187zm-.467 1.646h.755v.246h-.498v.285h.339v.246h-.339v.285h.498v.245h-.755zm-.135 2.64h.259v.055c0 .044.036.08.08.08h.212c.044 0 .08-.036.08-.08v-.081c0-.03-.021-.059-.043-.07-.006-.003-.464-.207-.464-.207-.087-.044-.125-.133-.125-.23v-.135c0-.143.117-.258.261-.258h.368c.144 0 .261.116.261.258v.121h-.259v-.055c0-.044-.036-.079-.08-.079h-.212c-.044 0-.08.036-.08.08v.029c0 .03.021.059.043.07.006.003.464.207.464.207.087.044.125.133.125.23v.187c0 .143-.117.258-.261.258h-.368c-.144 0-.261-.116-.261-.258zm-.432-3.919.144-.851c.087.016.173.033.258.05l-.251 1.481c-.068-.014-.136-.027-.205-.04-.096-.284-.193-.572-.291-.856l-.025-.073-.144.851c-.087-.014-.174-.026-.26-.038l.251-1.481c.069.01.138.019.207.03.097.282.195.57.291.854zm-.069 3.524v.245h-.4v.531h-.258v-1.307h.819v.246h-.561v.285zm-.424-.938v-1.307h.256v1.062h.473v.245zm-2.515-6.149c.354.531.817.973 1.375 1.314.001.001.003 0 .004-.001 0 0 .001-.001.001-.003-.005-.405-.001-.816.011-1.221 0-.014-.006-.027-.017-.035-.311-.238-.564-.536-.75-.886l.007-.004c.21.323.472.6.756.801.003.002.009 0 .009-.005.005-.148.01-.271.016-.387.021-.339.037-.691.05-1.047 0-.013-.004-.025-.012-.035-.258-.31-.456-.601-.605-.888l.007-.004c.18.281.385.543.607.777.001.001.003.001.003.001.002 0 .005-.002.005-.005.017-.549.023-1.099.019-1.636h.008c.045.506.066 1.583.05 2.507 0 .002.001.004.002.005.002.002.006.003.008.002.241-.119.486-.287.746-.516l.006.006c-.237.254-.483.451-.752.602-.007.004-.012.012-.012.02-.002.081-.003.155-.006.225-.024.521-.024 1.138-.001 1.887 0 .005.006.007.01.005.612-.437 1.07-.906 1.362-1.395l.007.004c-.238.494-.736 1.051-1.366 1.529-.005.004-.008.01-.008.016.004.117.009.235.014.353 0 .003-.001.006-.003.009-.002.002-.005.004-.009.004h-.133c-.006 0-.011-.005-.012-.011-.006-.167-.011-.339-.014-.525 0-.005-.003-.01-.007-.012-.561-.356-1.065-.883-1.383-1.446zm.437 7.087v.245h-.4v.285h.561v.246h-.82v-1.307h.82v.246h-.561v.285zm-.139-1.183-.055.245h-.263l.321-1.307h.349l.322 1.307h-.263l-.055-.245zm.965.652h.353l.353 1.307h-.266l-.062-.246h-.403l-.063.246h-.266zm-.23-2.777v-.932c0-.159.128-.29.285-.292.061-.001.122-.001.184-.001.061 0 .123 0 .184.001.157.002.285.133.285.292v.932c0 .156-.123.279-.285.279-.201-.002-.341 0-.372 0-.158 0-.281-.122-.281-.279zm.835 1.988h-.308v.382h-.256v-1.307h.564c.143 0 .258.115.258.258v.409c0 .143-.115.258-.258.258zm-1.588-3.126c.014-.002.028-.003.042-.003.14 0 .263.105.286.245l.077.476c.02.126-.048.25-.166.3l-.022.01.014.02c.093.132.186.265.28.398-.085.011-.17.023-.256.036-.095-.134-.19-.268-.284-.4l-.007-.01-.012.002c-.036.006-.073.012-.109.018l-.019.003.072.445c-.086.015-.173.031-.259.047l-.24-1.483c.199-.04.402-.074.603-.104zm-.842 4.976v.246h-.765v-1.307h.259v1.061zm-.046-1.468v-.603l-.231.523-.231-.523v.603h-.257v-1.307h.204l.284.655.283-.655h.204v1.307zm-2.535-3.736c-.004-.005-.01-.007-.016-.007-.013 0-.026 0-.039 0-.385 0-.732-.098-1.062-.3l.004-.007c.312.149.604.221.893.221.041 0 .083-.002.124-.005-.072-.072-.138-.136-.2-.194-.421-.408-.768-.778-1.062-1.128l.006-.005c.349.365.653.666.928.919l.004-.002c.038-.232.019-.451-.057-.669l.007-.003c.109.224.153.47.131.73-.001.01.003.02.011.027.249.219.484.44.7.655.001 0 .001 0 .001-.001 0-.305-.082-.578-.253-.835l.006-.005c.226.264.344.577.35.929 0 .01.004.02.011.027.034.035.068.07.1.104.002.002.003.006.003.009.001.004-.001.007-.004.009l-.091.043c-.002 0-.003.001-.005.001-.003 0-.007-.001-.009-.004-.184-.201-.342-.368-.481-.509zm1.23 2.508-.575-1.112-.018.009c-.097.051-.194.104-.29.157l-.115-.222c.279-.155.566-.304.854-.442l.115.222c-.099.047-.198.096-.296.146l-.017.009.576 1.112c-.078.04-.157.08-.234.121zm.455-1.847c.115-.04.232-.08.348-.118.028-.009.058-.014.087-.014.123 0 .237.082.276.199l.299.883c.024.071.019.147-.014.213-.033.068-.092.118-.165.142-.116.038-.234.078-.349.118-.031.011-.063.017-.096.017-.119 0-.225-.076-.263-.189l-.299-.883c-.051-.151.028-.316.176-.368zm4.817 5.828c-.156 0-.3-.015-.436-.038-.002 0-.004.002-.002.004.133.129.398.261.548.32l.071.028-.075-.013c-.175-.029-.541-.203-.74-.376-.002-.002-.005-.003-.008-.004-.326-.074-.605-.173-.884-.173-.363 0-.627.083-.758.444-.007-.081.001-.153.02-.216.001-.003 0-.005-.002-.007-.071-.047-.34-.214-.607-.214-.401 0-.917.45-1.313.496.192-.065.407-.209.624-.341.002-.001.001-.004-.001-.005-.366-.072-.826.007-1.314.131.467-.181.945-.278 1.443-.204.003 0 .005 0 .007-.002.187-.106.373-.188.543-.188.316 0 .588.164.67.218.002.001.005.001.006-.001.126-.185.386-.26.659-.26.433 0 1.1.321 1.632.321.583 0 .749-.053.923-.09-.164.066-.425.17-1.006.17zm2.407-4.904-.428.828c-.048.093-.142.151-.247.151-.046 0-.093-.012-.134-.034-.108-.058-.218-.114-.327-.169-.069-.034-.12-.093-.143-.165-.023-.071-.017-.146.018-.213l.428-.828c.05-.096.152-.158.26-.158.045 0 .087.01.127.03.109.055.219.111.326.169.139.073.193.247.12.389zm.213-1.522c.038.002.077.004.115.004.266 0 .524-.059.812-.187l.004.007c-.296.181-.629.272-1.016.276-.012 0-.024.005-.032.014-.111.116-.207.218-.294.314-.003.003-.006.005-.01.005-.002 0-.004-.001-.006-.002l-.093-.048c-.003-.002-.005-.004-.005-.008-.001-.003 0-.006.003-.009.235-.243.492-.489.765-.732.008-.007.013-.018.012-.029-.022-.292.009-.549.095-.786l.008.002c-.048.244-.056.494-.022.723 0 .002.002.003.003.003s.002 0 .002-.001c.36-.341.694-.667 1.022-.997l.006.005c-.277.324-.579.652-.898.974-.157.149-.316.306-.472.466-.001.001-.001.003-.001.003 0 .001.001.003.002.003z" fill="#00205b"/><path d="m9.543 9.11c.013 0 .025-.002.037-.006.053-.019.107-.037.161-.055.029-.01.052-.03.066-.057.013-.027.015-.058.006-.086l-.249-.734c-.016-.047-.059-.078-.108-.078-.012 0-.024.002-.036.006-.054.018-.108.036-.162.055-.059.02-.09.085-.07.144l.249.734c.015.046.058.077.106.077z" fill="#00205b"/><path d="m11.919 6.325c.004.003.007.007.007.012.003.186.008.358.014.525 0 .006.005.011.012.011h.133c.003 0 .006-.001.009-.004.002-.002.004-.006.003-.009-.005-.117-.01-.236-.014-.353 0-.006.003-.012.008-.016.63-.477 1.128-1.034 1.366-1.529l-.007-.004c-.292.489-.751.958-1.362 1.395-.004.002-.01 0-.01-.005-.024-.748-.023-1.365.001-1.887.002-.07.004-.144.006-.225 0-.008.005-.016.012-.02.269-.151.515-.348.752-.602l-.006-.002c-.261.228-.505.397-.746.516-.003.001-.006.001-.008-.002-.001-.001-.002-.003-.002-.005.016-.924-.005-2.001-.05-2.507h-.008c.005.537-.002 1.087-.019 1.636 0 .003-.003.005-.005.005 0 0-.002 0-.003-.001-.222-.235-.426-.496-.607-.777l-.007.004c.149.287.347.578.605.888.008.01.012.022.012.035-.012.356-.029.708-.05 1.047-.006.116-.011.239-.016.387 0 .005-.006.007-.009.005-.284-.202-.545-.479-.756-.801l-.007.004c.187.35.439.648.75.886.011.008.017.021.017.035-.012.405-.016.815-.011 1.221 0 .001-.001.002-.001.003-.001.001-.003.001-.004.001-.558-.343-1.021-.785-1.375-1.316l-.007.004c.318.563.822 1.089 1.383 1.445zm-4.029 1.477c.002 0 .004 0 .005-.001l.091-.043c.003-.002.005-.004.006-.008.001-.003 0-.007-.003-.009-.032-.034-.066-.068-.1-.103-.008-.008-.012-.017-.012-.028-.006-.353-.124-.665-.35-.929l-.006.005c.171.257.253.53.253.835 0 .001-.001.001-.001.001-.216-.216-.452-.437-.7-.656-.008-.007-.012-.017-.011-.027.021-.26-.023-.506-.132-.73l-.007.003c.076.218.095.437.057.669l-.004.001c-.275-.253-.578-.553-.928-.919l-.006.006c.294.35.641.72 1.061 1.13.062.058.127.121.2.194-.041.002-.083.004-.124.004-.289 0-.581-.072-.893-.221l-.003.007c.33.202.677.3 1.062.3h.039c.006 0 .012.002.016.006.139.142.297.308.481.509.002.002.005.004.009.004zm9.102-.921c.319-.323.621-.65.898-.974l-.006-.005c-.328.33-.663.656-1.022.997-.001.001-.002.001-.002.001-.001 0-.003-.001-.003-.003-.034-.229-.026-.479.022-.723l-.008-.002c-.086.237-.117.494-.095.786.001.011-.004.022-.012.029-.273.244-.53.49-.765.732-.002.002-.003.006-.003.009.001.003.002.006.005.008l.093.048c.002.001.004.002.006.002.004 0 .008-.002.01-.005.087-.095.183-.198.294-.314.008-.009.02-.014.032-.014.387-.005.719-.095 1.016-.276l-.004-.007c-.289.127-.547.187-.812.187-.038 0-.076-.001-.115-.004-.002 0-.003-.002-.003-.002 0-.001-.001-.002.001-.003.157-.161.316-.318.473-.467zm-4.639 6.495c-.274 0-.533.075-.659.26-.001.002-.004.003-.006.001-.082-.054-.354-.218-.67-.218-.17 0-.356.083-.543.188-.002.001-.005.002-.007.002-.498-.073-.975.023-1.443.204.488-.123.948-.202 1.314-.131.002 0 .003.003.001.005-.217.132-.432.276-.624.341.396-.046.912-.496 1.313-.496.267 0 .536.167.607.214.002.002.003.004.002.007-.02.063-.027.134-.02.216.13-.361.395-.444.758-.444.279 0 .558.099.884.173.003.001.006.002.008.004.199.173.565.347.74.376l.075.013-.071-.028c-.149-.058-.414-.19-.548-.32-.002-.002 0-.004.002-.004.136.023.28.038.436.038.58 0 .842-.104 1.006-.171-.175.037-.341.09-.923.09-.531.001-1.199-.32-1.632-.32zm-4.047-4.821c.098-.049.197-.098.296-.146l-.116-.222c-.288.138-.575.287-.854.442l.115.222c.096-.053.193-.106.29-.157l.018-.009.576 1.112c.077-.041.155-.081.233-.121l-.576-1.112zm1.165.835c.032 0 .065-.006.096-.017.115-.041.233-.08.349-.118.073-.024.132-.074.166-.142.033-.066.038-.142.014-.213l-.299-.883c-.04-.117-.154-.199-.277-.199-.03 0-.059.005-.087.014-.116.038-.233.078-.348.118-.148.052-.228.217-.176.368l.299.883c.038.113.144.189.263.189zm-.213-1.235c.054-.019.107-.037.161-.055.012-.004.024-.006.036-.006.049 0 .093.031.108.078l.249.734c.01.029.008.059-.006.086-.012.027-.036.047-.065.057-.053.018-.107.036-.161.054-.012.004-.024.006-.037.006-.048 0-.091-.031-.107-.076l-.248-.734c-.02-.059.011-.124.07-.144zm2.971.779c.161 0 .285-.122.285-.279v-.932c0-.159-.128-.29-.285-.292-.061-.001-.122-.001-.184-.001-.061 0-.122 0-.184.001-.157.002-.285.133-.285.292v.932c0 .156.124.279.281.279.03 0 .17-.002.372 0zm-.383-1.139c0-.063.051-.114.113-.114h.17c.062 0 .113.052.113.114v.775c0 .062-.051.113-.113.113-.058 0-.114 0-.17 0-.063 0-.114-.05-.114-.113v-.775zm-.065 4.698h.403l.062.246h.266l-.354-1.307h-.352l-.354 1.307h.266zm.201-.79.139.545h-.278zm.687-1.318v-.409c0-.143-.116-.258-.258-.258h-.564v1.307h.256v-.382h.308c.143 0 .258-.115.258-.258zm-.255-.067c0 .044-.036.079-.079.079h-.231v-.434h.231c.044 0 .079.036.079.079v.275zm-3.198 1.114v1.307h.765v-.246h-.506v-1.061zm.975-1.714h-.204l-.283.655-.284-.655h-.204v1.307h.257v-.603l.231.523.231-.523v.603h.256zm.527-.662-.072-.445.019-.003c.036-.006.073-.012.109-.018l.012-.002.007.01c.095.133.189.267.284.4.085-.013.171-.025.255-.036-.093-.133-.187-.266-.28-.398l-.014-.02.022-.01c.118-.05.187-.174.166-.3l-.077-.476c-.023-.14-.146-.245-.286-.245-.014 0-.028.001-.042.003-.201.03-.404.065-.604.103l.24 1.483c.088-.015.175-.031.261-.046zm-.181-1.24c.079-.014.158-.027.236-.039.062-.01.12.034.13.095l.052.32c.005.03-.002.06-.02.084s-.044.04-.074.045c-.079.012-.157.025-.236.039l-.02.003-.088-.544zm.715 3.209h.263l-.322-1.307h-.349l-.322 1.307h.263l.055-.246h.355zm-.356-.491.122-.545.122.545zm2.747 1.144v-.246h-.819v1.307h.258v-.531h.4v-.245h-.4v-.285zm-.614-4.197-.251 1.481c.086.012.173.025.26.038l.144-.851.025.073c.097.284.195.572.291.856.068.013.137.026.205.04l.251-1.481c-.085-.017-.171-.034-.258-.05l-.144.851-.025-.074c-.096-.284-.193-.572-.291-.854-.069-.01-.138-.02-.207-.029zm1.215 5.258h.368c.144 0 .261-.116.261-.258v-.187c0-.097-.038-.186-.125-.23 0 0-.458-.204-.464-.207-.022-.012-.043-.041-.043-.07v-.029c0-.044.036-.08.08-.08h.212c.044 0 .08.036.08.079v.055h.259v-.121c0-.143-.117-.258-.261-.258h-.368c-.144 0-.261.116-.261.258v.135c0 .097.038.186.125.23 0 0 .458.204.464.207.022.012.043.041.043.07v.081c0 .044-.036.08-.08.08h-.212c-.044 0-.08-.036-.08-.08v-.055h-.259v.122c0 .142.117.258.261.258zm.629-1.959h-.498v-.285h.339v-.246h-.339v-.285h.498v-.246h-.755v1.307h.755zm-1.086 0h-.473v-1.062h-.256v1.307h.729zm.667-1.431.399-1.187.019.006c.103.036.207.073.31.111l.08-.237c-.3-.11-.606-.214-.912-.306l-.08.237c.104.032.21.065.314.099l.019.006-.399 1.187c.084.027.167.055.25.084zm-3.313 2.329v-.246h-.82v1.307h.82v-.246h-.561v-.285h.4v-.245h-.4v-.285zm5.048-3.194c-.107-.057-.217-.114-.326-.169-.04-.02-.082-.03-.127-.03-.109 0-.211.062-.26.158l-.428.828c-.034.067-.041.142-.018.213.023.072.074.131.143.165.109.055.219.111.327.169.042.022.088.034.134.034.104 0 .199-.058.247-.151l.428-.828c.073-.141.019-.315-.12-.389zm-.153.33-.356.688c-.019.038-.058.061-.1.061-.018 0-.036-.004-.053-.013-.05-.026-.101-.052-.151-.078-.027-.014-.047-.037-.056-.066s-.007-.059.007-.086l.356-.688c.02-.038.059-.062.102-.062.018 0 .036.004.051.012.051.026.101.052.151.078.056.029.078.098.049.154z" fill="#fff"/><path d="m15.374 15.01v.266h-.067v-.266h-.076v-.066h.221v.066zm.361.267v-.196l-.056.122h-.059l-.056-.122v.196h-.067v-.333h.067l.086.178.086-.178h.067v.333z" fill="#00205b"/></svg>