<svg viewBox="0 0 80 58.76" xmlns="http://www.w3.org/2000/svg"><g><path d="m80 36.36c.06-11.35-11.8-18.42-15.59-19.65 0 0 7.18 10.41 6.65 17.59-.23 3.17-1.8 4.2-3.39 4.41-.03-6.23-2.62-11.42-4.45-14.3l1.38-1.5s-2.87-7.63-14.5-16.89l-1.85 1.2-11.14-7.22-11.12 7.2-1.73-1.12-24.26 15.72 14.05 7.57-2.87 1.86 15.44 8.32-2.8 1.81s10.78 5.98 21.46 5.11c1.01.63 2.05 1.22 3.13 1.77-5.35 2.8-11.62 1.27-11.62 1.27l-7.61 4.79c19.5 9.44 30.4 1.64 34.3-3.08 8.83-.47 16.46-4.63 16.52-14.87z" fill="#7bb2e1"/><path d="m78.45 36.77c0-6.43-4.44-13.29-10.53-16.81 5.4 9.85 6.13 16.38 2.59 19.17-1.11.87-2.76 1.3-4.6 1.28.04-.54.07-1.09.07-1.63 0-5.51-2.05-10.53-4.93-14.53l1.5-1.66s-3.14-6.65-12.58-14.44l-1.73 1.12-11.14-7.21-11.12 7.2-1.73-1.12-20.87 13.53 14.05 7.57-2.87 1.86 15.44 8.32-2.69 1.74.44.21c3.16 1.43 10.18 4.07 17.71 3.35 1.75 1.18 3.74 2.27 5.99 3.12-3.44 3.57-9.78 4.11-14.34 3.31l-4.53 2.93c4.26 1.97 9.19 2.92 13.48 2.92 5.84 0 11.15-1.75 14.86-5.41.59-.58 1.12-1.2 1.6-1.84 9.21-.12 15.93-4.78 15.93-12.97z" fill="#010101"/><path d="m60.05 35.93s1.58-.48 3.12-.12c-.05-.35-.11-.69-.18-1.04-.19-.8-1-2.5-4.53-3.53 0 0 1.21-.69 3.41-.27-.13-.32-.26-.64-.4-.96-.4-.79-1.67-2.58-4.86-2.77 0 0 1.33-.78 2.92-.81-.59-.9-1.22-1.75-1.89-2.54l1.47-1.67c-1.33-2.1-4.22-6.08-9.37-10.6l-1.5.97-11.14-7.21-9.89 6.41 14.04 2.01 7.34 4.76-6.29-1.59-12.82 4.85 7.61 2.77-9.33 2.91 12.43 6.67s1.35-1.3 3.63-2.39c1.46-.7 3.29-1.31 5.4-1.42 0 0-2.19-4.02-7.21-6.22l.99-1.16s-1.75-.65-5.91-.96c0 0 4.85-2.38 9.84-2.04l6.07 3.93h2.6l-2.78 3.26c2.45 3.03 4.02 6.62 4.64 10.23.6.46 1.2.87 1.81 1.21 1.3.73 2.69 1.24 4.06 1.53 0-.12.01-.24.02-.36-.01-.8-.34-2.89-3.32-3.83z" fill="#fff"/><path d="m55.06 48.93c-.11.13-.22.27-.34.39-2.41 2.69-5.97 4.1-9.63 4.59-1.05.14-2.1.21-3.13.21 1.39.19 2.77.29 4.1.29 5.28 0 9.87-1.53 13.04-4.66.05-.05.09-.1.14-.14-1.12-.11-3.93-.62-4.17-.67z" fill="#fff"/><g fill="#7bb2e1"><path d="m48.61 18.55-7.41-7.03-8.76-1.36 4.67-4.78-9.89 6.41 14.04 2.01z"/><path d="m42.32 16.96-12.82 4.85 7.61 2.78-4.36-2.83z"/><path d="m48.25 12.6 2.9 1.88-1.4-2.86z"/><path d="m40.21 34.16s1.35-1.3 3.63-2.39l-16.06-4.28z"/><path d="m57.47 37.38c.6.46 1.2.87 1.81 1.21.15.09.31.17.46.25-.09-1.48-.36-3.03-.81-4.63-.78-2.71-2.06-5.27-3.75-7.53l.43-2.78-2.78 3.26c2.45 3.03 4.02 6.62 4.64 10.23z"/><path d="m59.24 49.61s-1.81-.25-4.18-.67c-.11.13-.22.27-.34.39-2.41 2.69-5.97 4.1-9.63 4.59-1.05.14-2.1.21-3.13.21 0 0 1.88.14 3.34.04.19-.01.38-.03.56-.05.16-.01.32-.03.47-.05h.03c.23-.03.47-.06.7-.1 3.53-.53 6.4-1.87 8.51-3.82l3.66-.54z"/></g><path d="m42.54 36.32c3.77-3.06 7.44-3.4 7.44-3.4s.88 1.37 2.48 3.07c3.52 3.74 8.11 6.5 13.25 6.5 3.29 0 6.28-1.21 7.74-3.92 2.1-3.86.48-9.41-1.57-13.55 1.81 2.08 3.67 5.17 4.33 8.52.51 2.57.46 5.6-1.16 8.27-2.26 3.71-6.99 5.42-12.17 5.42-7.01 0-14.55-3.72-20.34-10.91" fill="#fff"/><path d="m45.55 34.37c-.95.48-1.97 1.11-3.01 1.96 4.21 5.22 9.6 9 15.83 10.42 1.5.34 3.17.52 4.88.49 2.9-.51 4.21-1.74 4.21-1.74-12.49 1.6-19.64-7.58-21.91-11.12" fill="#7bb2e1"/><path d="m46.6 22.62s1.01 2.47 2.85 3.57l1.25-.92 1.09-.12-5.19-2.54z" fill="#7bb2e1"/><path d="m25.53 17.42-5.15 6.6 9.28-5.72-2.78-1.79 2.53-1.71-5.1-3.3-2.95 6.59z" fill="#fff"/><path d="m17.53 20.11 4.77-.81-1.92 4.72 5.15-6.6-4.17.67 2.95-6.59-15.57 9.87 10.1-4.1z" fill="#7bb2e1"/></g><g opacity="0"><path d="m64.4 16.71s7.18 10.41 6.65 17.59c-.23 3.16-1.8 4.2-3.38 4.41-.03-6.23-2.63-11.42-4.45-14.31l1.38-1.5s-2.87-7.63-14.5-16.88l-1.86 1.2-11.13-7.22-11.13 7.21-1.73-1.12-24.25 15.71 14.04 7.57-2.87 1.86 15.45 8.32-2.81 1.82s10.78 5.97 21.46 5.11c1.01.63 2.06 1.22 3.13 1.76-5.35 2.8-11.61 1.28-11.61 1.28l-7.61 4.79c19.5 9.43 30.4 1.64 34.3-3.08 8.82-.47 16.46-4.63 16.52-14.87.05-11.36-11.81-18.42-15.6-19.65m-1.89 33.04c-.48.64-1.02 1.26-1.6 1.84-3.7 3.66-9.02 5.41-14.86 5.41-4.29 0-9.22-.94-13.47-2.92l4.52-2.93c4.57.8 10.9.26 14.35-3.31-2.25-.85-4.25-1.94-6-3.12-7.52.72-14.55-1.92-17.7-3.35l-.44-.21 2.69-1.74-15.44-8.32 2.87-1.87-14.05-7.56 20.87-13.53 1.73 1.12 11.13-7.2 11.13 7.21 1.73-1.12c9.44 7.79 12.58 14.45 12.58 14.45l-1.51 1.65c2.88 4 4.93 9.02 4.93 14.53 0 .55-.02 1.09-.06 1.63 1.84.02 3.49-.41 4.6-1.28 3.53-2.78 2.8-9.32-2.6-19.17 6.09 3.53 10.53 10.39 10.53 16.81 0 8.19-6.72 12.86-15.93 12.98" fill="#3a3a3a"/><path d="m60.04 35.93s1.58-.48 3.12-.12c-.05-.35-.11-.69-.18-1.04-.19-.8-1-2.5-4.53-3.53 0 0 1.21-.69 3.41-.27-.13-.32-.26-.64-.4-.96-.4-.79-1.67-2.58-4.86-2.77 0 0 1.33-.78 2.92-.81-.59-.9-1.22-1.75-1.89-2.54l1.47-1.67c-1.33-2.1-4.22-6.08-9.37-10.6l-1.5.97-11.14-7.21-9.89 6.41 14.04 2.01 7.34 4.76-6.29-1.59-12.82 4.85 7.61 2.77-9.33 2.91 12.43 6.67s1.35-1.3 3.63-2.39c1.46-.7 3.29-1.31 5.4-1.42 0 0-2.19-4.02-7.21-6.22l.99-1.16s-1.75-.65-5.91-.96c0 0 4.85-2.38 9.84-2.04l6.07 3.93h2.6l-2.78 3.26c2.45 3.03 4.02 6.62 4.64 10.23.6.46 1.2.87 1.81 1.21 1.3.73 2.69 1.24 4.06 1.53 0-.12.01-.24.02-.36-.01-.8-.34-2.89-3.32-3.83z" fill="#4a494a"/><path d="m55.06 48.93c-.11.13-.22.27-.34.39-2.41 2.69-5.97 4.1-9.63 4.59-1.05.14-2.1.21-3.13.21 1.39.19 2.77.29 4.1.29 5.28 0 9.87-1.53 13.04-4.66.05-.05.09-.1.14-.14-1.12-.11-3.93-.62-4.17-.67z" fill="#4a494a"/><g fill="#3a3a3a"><path d="m48.6 18.55-7.41-7.03-8.75-1.36 4.67-4.78-9.89 6.41 14.04 2.01z"/><path d="m42.31 16.96-12.82 4.85 7.62 2.78-4.37-2.83z"/><path d="m48.24 12.6 2.91 1.88-1.4-2.86z"/><path d="m40.21 34.16s1.35-1.3 3.63-2.39l-16.06-4.28z"/><path d="m57.46 37.38c.6.46 1.2.87 1.81 1.21.15.09.31.17.46.25-.09-1.48-.36-3.03-.81-4.63-.78-2.71-2.06-5.27-3.75-7.53l.43-2.78-2.78 3.26c2.45 3.03 4.02 6.62 4.64 10.23z"/><path d="m59.23 49.61s-1.81-.25-4.18-.67c-.11.13-.22.27-.34.39-2.41 2.69-5.97 4.1-9.63 4.59-1.05.14-2.1.21-3.13.21 0 0 1.88.14 3.34.04.19-.01.38-.03.56-.05.16-.01.32-.03.47-.05h.03c.23-.03.47-.06.7-.1 3.53-.53 6.4-1.87 8.51-3.82l3.66-.54z"/></g><path d="m42.53 36.32c3.77-3.06 7.44-3.4 7.44-3.4s.88 1.37 2.48 3.07c3.52 3.74 8.11 6.5 13.25 6.5 3.29 0 6.28-1.21 7.74-3.92 2.1-3.86.48-9.41-1.57-13.55 1.81 2.08 3.67 5.17 4.33 8.52.51 2.57.46 5.6-1.16 8.27-2.26 3.71-6.99 5.42-12.17 5.42-7.01 0-14.55-3.72-20.34-10.91" fill="#4a494a"/><path d="m45.54 34.37c-.95.48-1.97 1.11-3.01 1.96 4.21 5.22 9.6 9 15.83 10.42 1.5.34 3.17.52 4.88.49 2.9-.51 4.21-1.74 4.21-1.74-12.49 1.6-19.64-7.58-21.91-11.12" fill="#3a3a3a"/><path d="m46.6 22.62s1.01 2.47 2.85 3.57l1.25-.92 1.09-.12-5.19-2.54z" fill="#3a3a3a"/><path d="m25.52 17.42-5.14 6.6 9.27-5.72-2.77-1.79 2.52-1.71-5.09-3.3-2.95 6.59z" fill="#4a494a"/><path d="m17.52 20.11 4.78-.81-1.92 4.72 5.14-6.6-4.16.67 2.95-6.59-15.58 9.87 10.11-4.1z" fill="#3a3a3a"/></g><g opacity="0"><path d="m64.41 16.71s7.18 10.41 6.65 17.59c-.23 3.16-1.8 4.2-3.38 4.41-.03-6.23-2.63-11.42-4.45-14.31l1.38-1.5s-2.87-7.63-14.51-16.88l-1.85 1.2-11.14-7.22-11.12 7.21-1.73-1.12-24.26 15.71 14.05 7.57-2.87 1.86 15.44 8.32-2.8 1.82s10.78 5.97 21.46 5.11c1.01.63 2.06 1.22 3.13 1.76-5.35 2.8-11.61 1.28-11.61 1.28l-7.61 4.79c19.5 9.43 30.4 1.64 34.3-3.08 8.82-.47 16.46-4.63 16.51-14.87.06-11.36-11.8-18.42-15.59-19.65m-1.89 33.04c-.49.64-1.02 1.26-1.6 1.84-3.7 3.66-9.02 5.41-14.86 5.41-4.29 0-9.22-.94-13.47-2.92l4.52-2.93c4.57.8 10.9.26 14.34-3.31-2.24-.85-4.24-1.94-5.99-3.12-7.52.72-14.55-1.92-17.7-3.35l-.44-.21 2.69-1.74-15.44-8.32 2.87-1.87-14.05-7.56 20.87-13.53 1.73 1.12 11.12-7.2 11.14 7.21 1.73-1.12c9.44 7.79 12.58 14.45 12.58 14.45l-1.51 1.65c2.88 4 4.93 9.02 4.93 14.53 0 .55-.02 1.09-.06 1.63 1.84.02 3.49-.41 4.6-1.28 3.53-2.78 2.8-9.32-2.6-19.17 6.09 3.53 10.53 10.39 10.53 16.81 0 8.19-6.72 12.86-15.93 12.98" fill="#3a3a3a"/><path d="m60.05 35.93s1.58-.48 3.12-.12c-.05-.35-.11-.69-.18-1.04-.19-.8-1-2.5-4.53-3.53 0 0 1.21-.69 3.41-.27-.13-.32-.26-.64-.4-.96-.4-.79-1.67-2.58-4.86-2.77 0 0 1.33-.78 2.92-.81-.59-.9-1.22-1.75-1.89-2.54l1.47-1.67c-1.33-2.1-4.22-6.08-9.37-10.6l-1.5.97-11.14-7.21-9.89 6.41 14.04 2.01 7.34 4.76-6.29-1.59-12.82 4.85 7.61 2.77-9.33 2.91 12.43 6.67s1.35-1.3 3.63-2.39c1.46-.7 3.29-1.31 5.4-1.42 0 0-2.19-4.02-7.21-6.22l.99-1.16s-1.75-.65-5.91-.96c0 0 4.85-2.38 9.84-2.04l6.07 3.93h2.6l-2.78 3.26c2.45 3.03 4.02 6.62 4.64 10.23.6.46 1.2.87 1.81 1.21 1.3.73 2.69 1.24 4.06 1.53 0-.12.01-.24.02-.36-.01-.8-.34-2.89-3.32-3.83z" fill="#fff"/><path d="m55.07 48.93c-.11.13-.22.27-.34.39-2.41 2.69-5.97 4.1-9.63 4.59-1.05.14-2.1.21-3.13.21 1.39.19 2.77.29 4.1.29 5.28 0 9.87-1.53 13.04-4.66.05-.05.09-.1.14-.14-1.12-.11-3.93-.62-4.17-.67z" fill="#4a494a"/><g fill="#7bb2e1"><path d="m48.61 18.55-7.41-7.03-8.75-1.36 4.66-4.78-9.89 6.41 14.05 2.01z"/><path d="m42.32 16.96-12.82 4.85 7.61 2.78-4.36-2.83z"/><path d="m48.25 12.6 2.91 1.88-1.4-2.86z"/><path d="m40.22 34.16s1.35-1.3 3.63-2.39l-16.06-4.28z"/><path d="m57.47 37.38c.6.46 1.2.87 1.81 1.21.15.09.31.17.46.25-.09-1.48-.36-3.03-.81-4.63-.78-2.71-2.06-5.27-3.75-7.53l.43-2.78-2.78 3.26c2.45 3.03 4.02 6.62 4.64 10.23z"/></g><path d="m59.24 49.61s-1.81-.25-4.18-.67c-.11.13-.22.27-.34.39-2.41 2.69-5.97 4.1-9.63 4.59-1.05.14-2.1.21-3.13.21 0 0 1.88.14 3.34.04.19-.01.38-.03.56-.05.16-.01.32-.03.47-.05h.03c.23-.03.47-.06.7-.1 3.53-.53 6.4-1.87 8.51-3.82l3.66-.54z" fill="#3a3a3a"/><path d="m42.54 36.32c3.77-3.06 7.44-3.4 7.44-3.4s.88 1.37 2.48 3.07c3.52 3.74 8.11 6.5 13.25 6.5 3.29 0 6.28-1.21 7.74-3.92 2.1-3.86.48-9.41-1.57-13.55 1.81 2.08 3.67 5.17 4.33 8.52.51 2.57.46 5.6-1.16 8.27-2.26 3.71-6.99 5.42-12.17 5.42-7.01 0-14.55-3.72-20.34-10.91" fill="#4a494a"/><path d="m45.55 34.37c-.95.48-1.97 1.11-3.01 1.96 4.21 5.22 9.6 9 15.83 10.42 1.5.34 3.17.52 4.88.49 2.9-.51 4.21-1.74 4.21-1.74-12.49 1.6-19.64-7.58-21.91-11.12" fill="#3a3a3a"/><path d="m46.61 22.62s1.01 2.47 2.85 3.57l1.25-.92 1.09-.12-5.19-2.54z" fill="#3a3a3a"/><path d="m25.53 17.42-5.14 6.6 9.27-5.72-2.77-1.79 2.52-1.71-5.09-3.3-2.95 6.59z" fill="#fff"/><path d="m17.53 20.11 4.78-.81-1.92 4.72 5.14-6.6-4.16.67 2.95-6.59-15.58 9.87 10.11-4.1z" fill="#7bb2e1"/></g><g opacity="0"><path d="m64.41 16.71s7.18 10.41 6.65 17.59c-.24 3.16-1.81 4.2-3.39 4.41-.03-6.23-2.62-11.42-4.44-14.31l1.37-1.5s-2.86-7.63-14.5-16.88l-1.85 1.2-11.14-7.22-11.12 7.21-1.73-1.12-24.26 15.71 14.05 7.57-2.87 1.86 15.44 8.32-2.8 1.82s10.78 5.97 21.46 5.11c1 .63 2.05 1.22 3.13 1.76-5.35 2.8-11.62 1.28-11.62 1.28l-7.61 4.79c19.5 9.43 30.41 1.64 34.3-3.08 8.83-.47 16.47-4.63 16.52-14.87.06-11.36-11.81-18.42-15.59-19.65m-1.9 33.04c-.48.64-1.01 1.26-1.6 1.84-3.7 3.66-9.02 5.41-14.85 5.41-4.29 0-9.22-.94-13.48-2.92l4.53-2.93c4.56.8 10.9.26 14.34-3.31a28.9 28.9 0 0 1 -5.99-3.12c-7.52.72-14.55-1.92-17.71-3.35l-.43-.21 2.68-1.74-15.44-8.32 2.87-1.87-14.05-7.56 20.88-13.53 1.73 1.12 11.12-7.2 11.14 7.21 1.73-1.12c9.43 7.79 12.57 14.45 12.57 14.45l-1.5 1.65c2.88 4 4.93 9.02 4.93 14.53 0 .55-.02 1.09-.07 1.63 1.85.02 3.5-.41 4.6-1.28 3.54-2.78 2.81-9.32-2.59-19.17 6.09 3.53 10.53 10.39 10.53 16.81 0 8.19-6.73 12.86-15.94 12.98" fill="#3a3a3a"/><path d="m60.05 35.93s1.58-.48 3.12-.12c-.05-.35-.11-.69-.18-1.04-.19-.8-1-2.5-4.53-3.53 0 0 1.21-.69 3.41-.27-.13-.32-.26-.64-.4-.96-.4-.79-1.67-2.58-4.86-2.77 0 0 1.33-.78 2.92-.81-.59-.9-1.22-1.75-1.89-2.54l1.47-1.67c-1.33-2.1-4.22-6.08-9.37-10.6l-1.5.97-11.14-7.21-9.89 6.41 14.04 2.01 7.34 4.76-6.29-1.59-12.82 4.85 7.61 2.77-9.33 2.91 12.43 6.67s1.35-1.3 3.63-2.39c1.46-.7 3.29-1.31 5.4-1.42 0 0-2.19-4.02-7.21-6.22l.99-1.16s-1.75-.65-5.91-.96c0 0 4.85-2.38 9.84-2.04l6.07 3.93h2.6l-2.78 3.26c2.45 3.03 4.02 6.62 4.64 10.23.6.46 1.2.87 1.81 1.21 1.3.73 2.69 1.24 4.06 1.53 0-.12.01-.24.02-.36-.01-.8-.34-2.89-3.32-3.83z" fill="#4a494a"/><path d="m55.06 48.93c-.11.13-.22.27-.34.39-2.41 2.69-5.97 4.1-9.63 4.59-1.05.14-2.1.21-3.13.21 1.39.19 2.77.29 4.1.29 5.28 0 9.87-1.53 13.04-4.66.05-.05.09-.1.14-.14-1.12-.11-3.93-.62-4.17-.67z" fill="#4a494a"/><g fill="#3a3a3a"><path d="m48.61 18.55-7.41-7.03-8.76-1.36 4.67-4.78-9.89 6.41 14.04 2.01z"/><path d="m42.32 16.96-12.82 4.85 7.61 2.78-4.36-2.83z"/><path d="m48.25 12.6 2.9 1.88-1.4-2.86z"/><path d="m40.21 34.16s1.35-1.3 3.63-2.39l-16.06-4.28z"/><path d="m57.47 37.38c.6.46 1.2.87 1.81 1.21.15.09.31.17.46.25-.09-1.48-.36-3.03-.81-4.63-.78-2.71-2.06-5.27-3.75-7.53l.43-2.78-2.78 3.26c2.45 3.03 4.02 6.62 4.64 10.23z"/><path d="m59.24 49.61s-1.81-.25-4.18-.67c-.11.13-.22.27-.34.39-2.41 2.69-5.97 4.1-9.63 4.59-1.05.14-2.1.21-3.13.21 0 0 1.88.14 3.34.04.19-.01.38-.03.56-.05.16-.01.32-.03.47-.05h.03c.23-.03.47-.06.7-.1 3.53-.53 6.4-1.87 8.51-3.82l3.66-.54z"/></g><path d="m42.54 36.32c3.77-3.06 7.44-3.4 7.44-3.4s.88 1.37 2.48 3.07c3.52 3.74 8.11 6.5 13.25 6.5 3.29 0 6.28-1.21 7.74-3.92 2.1-3.86.48-9.41-1.57-13.55 1.81 2.08 3.67 5.17 4.33 8.52.51 2.57.46 5.6-1.16 8.27-2.26 3.71-6.99 5.42-12.17 5.42-7.01 0-14.55-3.72-20.34-10.91" fill="#4a494a"/><path d="m45.55 34.37c-.95.48-1.97 1.11-3.01 1.96 4.21 5.22 9.6 9 15.83 10.42 1.5.34 3.17.52 4.88.49 2.9-.51 4.21-1.74 4.21-1.74-12.49 1.6-19.64-7.58-21.91-11.12" fill="#3a3a3a"/><path d="m46.6 22.62s1.01 2.47 2.85 3.57l1.25-.92 1.09-.12-5.19-2.54z" fill="#3a3a3a"/><path d="m25.53 17.42-5.15 6.6 9.28-5.72-2.78-1.79 2.53-1.71-5.1-3.3-2.95 6.59z" fill="#fff"/><path d="m17.53 20.11 4.77-.81-1.92 4.72 5.15-6.6-4.17.67 2.95-6.59-15.57 9.87 10.1-4.1z" fill="#7bb2e1"/></g><g opacity="0"><path d="m64.41 16.71s7.18 10.41 6.65 17.59c-.23 3.16-1.8 4.2-3.39 4.41-.03-6.23-2.62-11.42-4.44-14.31l1.38-1.5s-2.87-7.63-14.51-16.88l-1.85 1.2-11.14-7.22-11.12 7.21-1.73-1.12-24.26 15.71 14.05 7.57-2.87 1.86 15.44 8.32-2.8 1.82s10.78 5.97 21.46 5.11c1.01.63 2.05 1.22 3.13 1.76-5.35 2.8-11.62 1.28-11.62 1.28l-7.6 4.79c19.49 9.43 30.4 1.64 34.29-3.08 8.83-.47 16.47-4.63 16.52-14.87.06-11.36-11.8-18.42-15.59-19.65m-1.89 33.04c-.49.64-1.02 1.26-1.6 1.84-3.71 3.66-9.02 5.41-14.86 5.41-4.29 0-9.22-.94-13.48-2.92l4.53-2.93c4.57.8 10.9.26 14.34-3.31-2.25-.85-4.24-1.94-5.99-3.12-7.52.72-14.55-1.92-17.7-3.35l-.44-.21 2.69-1.74-15.45-8.32 2.88-1.87-14.05-7.56 20.87-13.53 1.73 1.12 11.12-7.2 11.14 7.21 1.73-1.12c9.44 7.79 12.57 14.45 12.57 14.45l-1.5 1.65c2.88 4 4.93 9.02 4.93 14.53 0 .55-.02 1.09-.06 1.63 1.84.02 3.49-.41 4.6-1.28 3.53-2.78 2.8-9.32-2.6-19.17 6.09 3.53 10.53 10.39 10.53 16.81 0 8.19-6.73 12.86-15.93 12.98" fill="#3a3a3a"/><path d="m60.05 35.93s1.58-.48 3.12-.12c-.05-.35-.11-.69-.18-1.04-.19-.8-1-2.5-4.53-3.53 0 0 1.21-.69 3.41-.27-.13-.32-.26-.64-.4-.96-.4-.79-1.67-2.58-4.86-2.77 0 0 1.33-.78 2.92-.81-.59-.9-1.22-1.75-1.89-2.54l1.47-1.67c-1.33-2.1-4.22-6.08-9.37-10.6l-1.5.97-11.14-7.21-9.89 6.41 14.04 2.01 7.34 4.76-6.29-1.59-12.82 4.85 7.61 2.77-9.33 2.91 12.43 6.67s1.35-1.3 3.63-2.39c1.46-.7 3.29-1.31 5.4-1.42 0 0-2.19-4.02-7.21-6.22l.99-1.16s-1.75-.65-5.91-.96c0 0 4.85-2.38 9.84-2.04l6.07 3.93h2.6l-2.78 3.26c2.45 3.03 4.02 6.62 4.64 10.23.6.46 1.2.87 1.81 1.21 1.3.73 2.69 1.24 4.06 1.53 0-.12.01-.24.02-.36-.01-.8-.34-2.89-3.32-3.83z" fill="#4a494a"/><path d="m55.06 48.93c-.11.13-.22.27-.34.39-2.41 2.69-5.97 4.1-9.63 4.59-1.05.14-2.1.21-3.13.21 1.39.19 2.77.29 4.1.29 5.28 0 9.87-1.53 13.04-4.66.05-.05.09-.1.14-.14-1.12-.11-3.93-.62-4.17-.67z" fill="#4a494a"/><g fill="#3a3a3a"><path d="m48.61 18.55-7.41-7.03-8.75-1.36 4.66-4.78-9.89 6.41 14.05 2.01z"/><path d="m42.32 16.96-12.82 4.85 7.61 2.78-4.36-2.83z"/><path d="m48.25 12.6 2.91 1.88-1.41-2.86z"/><path d="m40.21 34.16s1.35-1.3 3.63-2.39l-16.06-4.28z"/><path d="m57.47 37.38c.6.46 1.2.87 1.81 1.21.15.09.31.17.46.25-.09-1.48-.36-3.03-.81-4.63-.78-2.71-2.06-5.27-3.75-7.53l.43-2.78-2.78 3.26c2.45 3.03 4.02 6.62 4.64 10.23z"/><path d="m59.24 49.61s-1.81-.25-4.18-.67c-.11.13-.22.27-.34.39-2.41 2.69-5.97 4.1-9.63 4.59-1.05.14-2.1.21-3.13.21 0 0 1.88.14 3.34.04.19-.01.38-.03.56-.05.16-.01.32-.03.47-.05h.03c.23-.03.47-.06.7-.1 3.53-.53 6.4-1.87 8.51-3.82l3.66-.54z"/></g><path d="m42.54 36.32c3.77-3.06 7.44-3.4 7.44-3.4s.88 1.37 2.48 3.07c3.52 3.74 8.11 6.5 13.25 6.5 3.29 0 6.28-1.21 7.74-3.92 2.1-3.86.48-9.41-1.57-13.55 1.81 2.08 3.67 5.17 4.33 8.52.51 2.57.46 5.6-1.16 8.27-2.26 3.71-6.99 5.42-12.17 5.42-7.01 0-14.55-3.72-20.34-10.91" fill="#fff"/><path d="m45.55 34.37c-.95.48-1.97 1.11-3.01 1.96 4.21 5.22 9.6 9 15.83 10.42 1.5.34 3.17.52 4.88.49 2.9-.51 4.21-1.74 4.21-1.74-12.49 1.6-19.64-7.58-21.91-11.12" fill="#7bb2e1"/><path d="m46.6 22.62s1.01 2.47 2.85 3.57l1.25-.92 1.09-.12-5.19-2.54z" fill="#3a3a3a"/><path d="m25.53 17.42-5.15 6.6 9.28-5.72-2.77-1.79 2.52-1.71-5.1-3.3-2.94 6.59z" fill="#4a494a"/><path d="m17.53 20.11 4.78-.81-1.93 4.72 5.15-6.6-4.16.67 2.94-6.59-15.57 9.87 10.11-4.1z" fill="#3a3a3a"/></g></svg>