<svg id="Layer_4" data-name="Layer 4" xmlns="http://www.w3.org/2000/svg" version="1.1" viewBox="0 0 130 150"><defs><style>.cls-1{fill:#ffb81d}.cls-1,.cls-2,.cls-3{stroke-width:0}.cls-2{fill:#071d49}.cls-3{fill:#fff}</style></defs><polygon class="cls-2" points="127.4 111 127.4 39 65 3 2.6 39 2.6 111 65 147 127.4 111"/><path class="cls-1" d="M65,9.5L8.3,42.3v65.5l56.7,32.7,56.7-32.7V42.3S65,9.5,65,9.5ZM119,106.2l-54,31.2-54-31.2v-62.3l54-31.2,54,31.2v62.3Z"/><g><path class="cls-1" d="M84.5,42.6h-39c-.8,0-1.1-.9-.6-1.4,5.7-5.4,12.6-9,20.1-9s14.5,3.5,20.1,9c.5.5.2,1.4-.6,1.4h0Z"/><path class="cls-1" d="M93.5,56.5h-56.9c-1.1,0-1.8-1.2-1.3-2.2,1.1-2.1,2.4-4.2,3.7-6.2.9-1.3,2.4-2.1,4-2.1h44.2c1.6,0,3.1.8,4,2.1,1.4,2,2.6,4,3.7,6.2.5,1-.2,2.2-1.3,2.2h0Z"/><path class="cls-1" d="M98.6,70.5H31.4c-1,0-1.7-.9-1.4-1.9.6-2.2,1.1-4.3,1.8-6.1.5-1.5,1.9-2.4,3.4-2.4h59.8c1.5,0,2.9,1,3.4,2.4.6,1.8,1.2,3.9,1.8,6.1.2.9-.5,1.9-1.4,1.9h0Z"/><path class="cls-1" d="M101.6,84.4H28.4c-.9,0-1.6-.8-1.5-1.8.4-1.9.7-3.8,1.1-5.8.4-1.7,1.8-2.8,3.5-2.8h66.9c1.7,0,3.2,1.2,3.5,2.8.4,2,.8,3.9,1.1,5.8.2.9-.5,1.8-1.5,1.8h0Z"/><path class="cls-1" d="M72,98.4c-.8,0-1.5-.7-1.5-1.5h0c0-1.5-.6-2.9-1.6-3.9s-2.4-1.6-3.9-1.6c-3,0-5.5,2.4-5.5,5.5h0c0,.8-.7,1.5-1.5,1.5H26c-.9,0-1.6-.8-1.5-1.7.2-1.3.5-3.3.9-5.7.3-1.7,1.8-3,3.5-3h72.1c1.8,0,3.2,1.3,3.5,3,.4,2.4.7,4.4.9,5.7.1.9-.6,1.7-1.5,1.7h-32Z"/></g><polygon class="cls-3" points="65 107.6 67.2 114.4 74.5 114.4 68.6 118.7 70.9 125.6 65 121.3 59.1 125.6 61.4 118.7 55.5 114.4 62.8 114.4 65 107.6"/></svg>