<svg id="Layer_1" xmlns="http://www.w3.org/2000/svg" viewBox="0 0 2000 2000"><style>.st0{fill:#fff}.st1{fill:#b4975a}.st2{fill:#333f42}</style><switch><g><path class="st0" d="M1113.7 135.3C1094.2 117 1000.5 29 1000.5 29s-93.7 88-113.2 106.2H283.5v1326.2c225.4 249.9 414.7 369.3 717 508.5 301.7-139 491.2-258.2 717-508.5V135.3h-603.8z"/><path class="st1" d="M1103.8 160.2c-1-1-103.3-97-103.3-97s-102.2 95.9-103.3 97H308.4v1291.6c211.2 234.2 399.5 355.9 692.1 490.6 291.9-134.5 480.2-255.7 692-490.6V160.2h-588.7z"/><path d="M1642.6 210.2v1222.5c-192.9 213.9-395 341-642.1 454.8-247.1-113.8-449.2-240.9-642.1-454.8V210.2h431.9c-170.2 99-282.1 271.3-282.1 504.1v658c116.1 120.3 273 241.3 421.6 311.6L602.9 741.1l307.9 148-37.1 37.1 110.4 357.1h32.8l110.4-357.1-37.1-37.1 307.9-148-326.9 942.6c147.6-69.8 304.6-190.3 421.6-311.6v-658c0-232.7-111.9-405-282.1-504.1h431.9z"/><path class="st2" d="M1086.2 207c8.8-37.7 17.6-46.7 17.6-46.7s-91.2-85.6-102.2-96c-.7-.7-1.1-1-1.1-1v942.9l68.5-220.5L1434.1 610c-32.6-188.8-155.6-332.9-347.9-403zm381.6 601.5l-271.7 786.2 47.1-60.8s123.8-94.8 199.6-182V950.1l25-141.6z"/><path class="st0" d="M902 933.2L910.8 889.1 873.7 926.2 984.1 1283.4 1000.5 1251.9z"/><path class="st2" d="M533.2 808.5l226.1 654.3-125.7-296.2-75.4-216.5-25-141.6zm374-64.3L616.4 633.8 932 785.7v-462l-24.8 420.5z"/><path class="st0" d="M1398.1 741.1L1398.1 741.1 1071.2 1683.8 1115.1 1633.3 1429.8 725.9z"/><path class="st0" d="M914.8 207c-2.3-9.7-5.2-20.2-8.7-29.5-1.2-3.2-6.1-15.3-8.9-17.2-228.8 83.4-389 275.4-389 554v658c8.1 8.4 16.5 16.8 25 25.2V714.2c0-233.6 112.4-421.6 356.7-523.7 12.4 6 24.9 16.5 24.9 16.5z"/><g><path class="st0" d="M1318.9 1858.6v35.9h-9v-35.9h-10.4v-8.9h29.7v8.9h-10.3zm48.6 35.8V1868l-7.6 16.5h-7.9l-7.6-16.5v26.4h-9v-44.8h9l11.5 23.9 11.5-23.9h9v44.8h-8.9z"/></g></g></switch></svg>