<svg viewBox="0 0 24 16" xmlns="http://www.w3.org/2000/svg"><path d="m20 8c0 4.419-3.58 8-7.999 8s-8.001-3.581-8.001-8c0-4.418 3.582-8 8-8 4.419 0 8 3.582 8 8" fill="#8e9090"/><path d="m19.463 8c0 4.121-3.34 7.463-7.461 7.463-4.122 0-7.464-3.342-7.464-7.463s3.34-7.463 7.462-7.463 7.463 3.342 7.463 7.463" fill="#041e41"/><path d="m12.723 2.546-.723-1.819-.765 1.819c-2.693.363-4.77 2.669-4.77 5.462 0 3.045 2.491 5.514 5.536 5.514 3.044 0 5.492-2.469 5.492-5.514-.001-2.793-2.078-5.099-4.77-5.462" fill="#fff"/><path d="m11.541 11.006-.001.001.056.126zm-2.909-4.034.004.541.001.005v-.005zm2.655-1.172-.112 1.277-2.085.995 2.085-.995.113-1.277.074-.348zm4.082 1.157-.445 1.115.445-1.112zm-.969 2.358v-.001l-1.39.094z" fill="none"/><path d="m12.573 5.091-.573.253-.559-.26-1.05-.688s.422 2.502.423 2.504l-1.118-1.116-.031.88-1.635-.617.595 1.654-.881.005.893.778v.952l.332-.165.619.041.599.523-.353.439.589.096m-.308.726v.833l1.316-.649.1-.25.47 2.279.475-2.298.107.269 1.316.649v-.833l-.49-.705.007.01.773-.125-.352-.439.6-.523.609-.041.331.165v-.946l.901-.786-.881-.005.596-1.654-1.637.617-.03-.88-1.117 1.116c.029-.174.423-2.504.423-2.504l-1.059.695m-1.032 5.915.055.127z" fill="#7b303e"/><path d="m11.068 9.412-1.36-.091.575.502c-.009.025-.312.399-.312.399l.673.109.424-.609zm.356-4.251-.931-.611s.001.004.002.011l.741 1.81.05-.571zm-.61 1.842-.003-.002-1.046-1.044-.031.811-1.565-.589 1.528 1.602 1.284-.613zm.848 4.28.339 1.717-.001-.943zm-3.721-3.504.694.606v-.61zm5.582-3.223-.934.616.104.482zm2.343 1.622-1.562.591-.457.79.312.148z" fill="#ac162c"/><path d="m15.37 6.957-.446 1.115-2.084-.995-.113-1.277-.726-3.319-.713 3.319-.113 1.277-2.085.995-.458-1.1.005.541v1.924l.331-.166 2.102.141v.311l-.955 1.373v.833l1.317-.65.109-.273.459 1.051.474-1.051.109.273 1.316.65v-.833l-.954-1.373v-.311l2.102-.141.331.166v-1.924z" fill="#55565a"/><path d="m11.43 5.82-.118 1.352h-.001l-.065.766-.137-.67-2.094 1-.234-.565v1.501l.157-.079 2.276.152v.491l-.955 1.373v.556l1.059-.522.164-.413-.091-.456.154.358.455 1.034v-8.635z" fill="#8e9090"/><g fill="#041e41"><path d="m18.147 14.559c.229 0 .413-.184.413-.411s-.185-.41-.413-.41c-.226 0-.41.183-.41.41s.184.411.41.411zm0-.734c.18 0 .324.144.324.322s-.145.323-.324.323c-.178 0-.322-.146-.322-.323 0-.178.145-.322.322-.322z"/><path d="m18.067 14.192h.063l.089.19h.099l-.094-.199c.054-.019.094-.07.094-.132 0-.076-.062-.139-.14-.139h-.199v.47h.089zm0-.191h.111c.027 0 .05.023.05.051 0 .029-.022.052-.05.052h-.111z"/></g></svg>